<?xml version="1.0" encoding="UTF-8"?><svg xmlns="http://www.w3.org/2000/svg" xmlns:xlink="http://www.w3.org/1999/xlink" fill-opacity="1" color-rendering="auto" color-interpolation="auto" text-rendering="auto" stroke="black" stroke-linecap="square" width="537" stroke-miterlimit="10" shape-rendering="auto" stroke-opacity="1" fill="black" stroke-dasharray="none" font-weight="normal" stroke-width="1" height="229" font-family="'Dialog'" font-style="normal" stroke-linejoin="miter" font-size="12px" stroke-dashoffset="0" image-rendering="auto">
  <!--Generated by ySVG 2.5-->
  <defs id="genericDefs"/>
  <g>
    <defs id="defs1">
      <clipPath clipPathUnits="userSpaceOnUse" id="clipPath1">
        <path d="M0 0 L537 0 L537 229 L0 229 L0 0 Z"/>
      </clipPath>
      <clipPath clipPathUnits="userSpaceOnUse" id="clipPath2">
        <path d="M1084 678 L1621 678 L1621 907 L1084 907 L1084 678 Z"/>
      </clipPath>
      <clipPath clipPathUnits="userSpaceOnUse" id="clipPath3">
        <path d="M-140.4714 210.3589 L-140.4714 -326.6411 L88.5286 -326.6411 L88.5286 210.3589 L-140.4714 210.3589 Z"/>
      </clipPath>
    </defs>
    <g fill="white" text-rendering="geometricPrecision" shape-rendering="geometricPrecision" transform="translate(-1084,-678)" stroke="white">
      <rect x="1084" width="537" height="229" y="678" clip-path="url(#clipPath2)" stroke="none"/>
    </g>
    <g stroke-linecap="butt" transform="matrix(1,0,0,1,-1084,-678)" fill="gray" text-rendering="geometricPrecision" shape-rendering="geometricPrecision" stroke-dasharray="6,2" stroke="gray" stroke-miterlimit="1.45">
      <rect x="1274.1518" y="814.4714" clip-path="url(#clipPath2)" fill="none" width="157.235" rx="4" ry="4" height="77.481"/>
    </g>
    <g stroke-linecap="butt" font-size="10px" transform="matrix(0,1,-1,0,210.3589,140.4714)" fill="rgb(31,73,125)" text-rendering="geometricPrecision" font-family="'Calibri'" shape-rendering="geometricPrecision" stroke="rgb(31,73,125)" stroke-miterlimit="1.45">
      <text x="2" xml:space="preserve" y="11.5215" clip-path="url(#clipPath3)" stroke="none">udbyder</text>
    </g>
    <g stroke-linecap="butt" transform="matrix(1,0,0,1,-1084,-678)" fill="gray" text-rendering="geometricPrecision" shape-rendering="geometricPrecision" stroke="gray" stroke-miterlimit="1.45">
      <rect fill="none" x="1300.2096" width="105.1195" height="25" y="845.548" clip-path="url(#clipPath2)"/>
    </g>
    <g stroke-linecap="butt" font-size="10px" transform="matrix(1,0,0,1,-1084,-678)" fill="rgb(51,102,255)" text-rendering="geometricPrecision" font-family="'Calibri'" shape-rendering="geometricPrecision" stroke="rgb(51,102,255)" font-weight="bold" stroke-miterlimit="1.45">
      <text x="1312.762" xml:space="preserve" y="861.466" clip-path="url(#clipPath2)" stroke="none">forretningstjeneste</text>
    </g>
    <g stroke-linecap="butt" transform="matrix(1,0,0,1,-1084,-678)" fill="gray" text-rendering="geometricPrecision" shape-rendering="geometricPrecision" stroke-dasharray="6,2" stroke="gray" stroke-miterlimit="1.45">
      <rect x="1099.804" y="693.4231" clip-path="url(#clipPath2)" fill="none" width="157.235" rx="4" ry="4" height="77.481"/>
    </g>
    <g stroke-linecap="butt" font-size="10px" transform="matrix(1,0,0,1,-1084,-678)" fill="rgb(148,0,39)" text-rendering="geometricPrecision" font-family="'Calibri'" shape-rendering="geometricPrecision" stroke="rgb(148,0,39)" stroke-miterlimit="1.45">
      <text x="1105.8041" xml:space="preserve" y="708.9446" clip-path="url(#clipPath2)" stroke="none">tillidstjeneste </text>
    </g>
    <g fill="white" text-rendering="geometricPrecision" shape-rendering="geometricPrecision" transform="matrix(1,0,0,1,-1084,-678)" stroke="white">
      <rect x="1125.8618" width="105.1195" height="25" y="723.9688" clip-path="url(#clipPath2)" stroke="none"/>
    </g>
    <g stroke-linecap="butt" transform="matrix(1,0,0,1,-1084,-678)" fill="gray" text-rendering="geometricPrecision" shape-rendering="geometricPrecision" stroke="gray" stroke-miterlimit="1.45">
      <rect fill="none" x="1125.8618" width="105.1195" height="25" y="723.9688" clip-path="url(#clipPath2)"/>
    </g>
    <g stroke-linecap="butt" font-size="10px" transform="matrix(1,0,0,1,-1084,-678)" fill="rgb(148,0,39)" text-rendering="geometricPrecision" font-family="'Calibri'" shape-rendering="geometricPrecision" stroke="rgb(148,0,39)" font-weight="bold" stroke-miterlimit="1.45">
      <text x="1146.8029" xml:space="preserve" y="739.8868" clip-path="url(#clipPath2)" stroke="none">Autentifikation</text>
    </g>
    <g stroke-linecap="butt" transform="matrix(1,0,0,1,-1084,-678)" fill="gray" text-rendering="geometricPrecision" shape-rendering="geometricPrecision" stroke-dasharray="6,2" stroke="gray" stroke-miterlimit="1.45">
      <rect x="1274.1518" y="694.6369" clip-path="url(#clipPath2)" fill="none" width="157.235" rx="4" ry="4" height="77.481"/>
    </g>
    <g stroke-linecap="butt" font-size="10px" transform="matrix(1,0,0,1,-1084,-678)" fill="rgb(148,0,39)" text-rendering="geometricPrecision" font-family="'Calibri'" shape-rendering="geometricPrecision" stroke="rgb(148,0,39)" stroke-miterlimit="1.45">
      <text x="1280.1519" xml:space="preserve" y="710.1584" clip-path="url(#clipPath2)" stroke="none">tillidstjeneste </text>
    </g>
    <g fill="white" text-rendering="geometricPrecision" shape-rendering="geometricPrecision" transform="matrix(1,0,0,1,-1084,-678)" stroke="white">
      <rect x="1300.2096" width="105.1195" height="25" y="725.1826" clip-path="url(#clipPath2)" stroke="none"/>
    </g>
    <g stroke-linecap="butt" transform="matrix(1,0,0,1,-1084,-678)" fill="gray" text-rendering="geometricPrecision" shape-rendering="geometricPrecision" stroke="gray" stroke-miterlimit="1.45">
      <rect fill="none" x="1300.2096" width="105.1195" height="25" y="725.1826" clip-path="url(#clipPath2)"/>
    </g>
    <g stroke-linecap="butt" font-size="10px" transform="matrix(1,0,0,1,-1084,-678)" fill="rgb(148,0,39)" text-rendering="geometricPrecision" font-family="'Calibri'" shape-rendering="geometricPrecision" stroke="rgb(148,0,39)" font-weight="bold" stroke-miterlimit="1.45">
      <text x="1313.4114" xml:space="preserve" y="741.1006" clip-path="url(#clipPath2)" stroke="none">Attributattestering</text>
    </g>
    <g stroke-linecap="butt" transform="matrix(1,0,0,1,-1084,-678)" fill="gray" text-rendering="geometricPrecision" shape-rendering="geometricPrecision" stroke-dasharray="6,2" stroke="gray" stroke-miterlimit="1.45">
      <rect x="1448.4996" y="694.6369" clip-path="url(#clipPath2)" fill="none" width="157.235" rx="4" ry="4" height="77.481"/>
    </g>
    <g stroke-linecap="butt" font-size="10px" transform="matrix(1,0,0,1,-1084,-678)" fill="rgb(148,0,39)" text-rendering="geometricPrecision" font-family="'Calibri'" shape-rendering="geometricPrecision" stroke="rgb(148,0,39)" stroke-miterlimit="1.45">
      <text x="1454.4996" xml:space="preserve" y="710.1584" clip-path="url(#clipPath2)" stroke="none">tillidstjeneste </text>
    </g>
    <g fill="white" text-rendering="geometricPrecision" shape-rendering="geometricPrecision" transform="matrix(1,0,0,1,-1084,-678)" stroke="white">
      <rect x="1474.5574" width="105.1195" height="25" y="725.1826" clip-path="url(#clipPath2)" stroke="none"/>
    </g>
    <g stroke-linecap="butt" transform="matrix(1,0,0,1,-1084,-678)" fill="gray" text-rendering="geometricPrecision" shape-rendering="geometricPrecision" stroke="gray" stroke-miterlimit="1.45">
      <rect fill="none" x="1474.5574" width="105.1195" height="25" y="725.1826" clip-path="url(#clipPath2)"/>
    </g>
    <g stroke-linecap="butt" font-size="10px" transform="matrix(1,0,0,1,-1084,-678)" fill="rgb(148,0,39)" text-rendering="geometricPrecision" font-family="'Calibri'" shape-rendering="geometricPrecision" stroke="rgb(148,0,39)" font-weight="bold" stroke-miterlimit="1.45">
      <text x="1487.7593" xml:space="preserve" y="741.1006" clip-path="url(#clipPath2)" stroke="none">Attributattestering</text>
    </g>
    <g text-rendering="geometricPrecision" stroke-miterlimit="1.45" shape-rendering="geometricPrecision" transform="matrix(1,0,0,1,-1084,-678)" stroke-linecap="butt">
      <path fill="none" d="M1334.844 845.548 L1202.9089 753.5448" clip-path="url(#clipPath2)"/>
      <path d="M1196.3469 748.9688 L1203.33 759.9341 L1203.7292 754.1168 L1209.0499 751.7316 Z" clip-path="url(#clipPath2)" stroke="none"/>
      <path fill="none" d="M1352.7693 845.548 L1352.7693 758.1826" clip-path="url(#clipPath2)"/>
      <path d="M1352.7693 750.1826 L1347.7693 762.1826 L1352.7693 759.1826 L1357.7693 762.1826 Z" clip-path="url(#clipPath2)" stroke="none"/>
      <path fill="none" d="M1370.8755 845.548 L1502.4276 754.7277" clip-path="url(#clipPath2)"/>
      <path d="M1509.0111 750.1826 L1496.2952 752.8855 L1501.6046 755.2958 L1501.9766 761.1149 Z" clip-path="url(#clipPath2)" stroke="none"/>
    </g>
  </g>
</svg>
