<?xml version="1.0" encoding="UTF-8"?><svg xmlns="http://www.w3.org/2000/svg" xmlns:xlink="http://www.w3.org/1999/xlink" fill-opacity="1" color-rendering="auto" color-interpolation="auto" text-rendering="auto" stroke="black" stroke-linecap="square" width="537" stroke-miterlimit="10" shape-rendering="auto" stroke-opacity="1" fill="black" stroke-dasharray="none" font-weight="normal" stroke-width="1" height="228" font-family="'Dialog'" font-style="normal" stroke-linejoin="miter" font-size="12px" stroke-dashoffset="0" image-rendering="auto">
  <!--Generated by ySVG 2.5-->
  <defs id="genericDefs"/>
  <g>
    <defs id="defs1">
      <clipPath clipPathUnits="userSpaceOnUse" id="clipPath1">
        <path d="M0 0 L537 0 L537 228 L0 228 L0 0 Z"/>
      </clipPath>
      <clipPath clipPathUnits="userSpaceOnUse" id="clipPath2">
        <path d="M1 -1 L538 -1 L538 227 L1 227 L1 -1 Z"/>
      </clipPath>
    </defs>
    <g fill="white" text-rendering="geometricPrecision" shape-rendering="geometricPrecision" transform="translate(-1,1)" stroke="white">
      <rect x="1" width="537" height="228" y="-1" clip-path="url(#clipPath2)" stroke="none"/>
    </g>
    <g stroke-linecap="butt" transform="matrix(1,0,0,1,-1,1)" fill="gray" text-rendering="geometricPrecision" shape-rendering="geometricPrecision" stroke-dasharray="6,2" stroke="gray" stroke-miterlimit="1.45">
      <rect x="365.1676" y="133.9266" clip-path="url(#clipPath2)" fill="none" width="157.235" rx="4" ry="4" height="77.481"/>
    </g>
    <g stroke-linecap="butt" font-size="10px" transform="matrix(1,0,0,1,-1,1)" fill="rgb(51,102,255)" text-rendering="geometricPrecision" font-family="'Calibri'" shape-rendering="geometricPrecision" stroke="rgb(51,102,255)" stroke-miterlimit="1.45">
      <text x="371.1676" xml:space="preserve" y="202.9076" clip-path="url(#clipPath2)" stroke="none">tjenesteudbyder</text>
    </g>
    <g stroke-linecap="butt" transform="matrix(1,0,0,1,-1,1)" fill="gray" text-rendering="geometricPrecision" shape-rendering="geometricPrecision" stroke="gray" stroke-miterlimit="1.45">
      <rect x="396.9712" y="164.4723" clip-path="url(#clipPath2)" fill="none" width="105.1195" rx="4" ry="4" height="25"/>
    </g>
    <g stroke-linecap="butt" font-size="10px" transform="matrix(1,0,0,1,-1,1)" fill="rgb(51,102,255)" text-rendering="geometricPrecision" font-family="'Calibri'" shape-rendering="geometricPrecision" stroke="rgb(51,102,255)" font-weight="bold" stroke-miterlimit="1.45">
      <text x="409.5236" xml:space="preserve" y="179.4723" clip-path="url(#clipPath2)" stroke="none">forretningstjeneste</text>
    </g>
    <g stroke-linecap="butt" transform="matrix(1,0,0,1,-1,1)" fill="gray" text-rendering="geometricPrecision" shape-rendering="geometricPrecision" stroke-dasharray="6,2" stroke="gray" stroke-miterlimit="1.45">
      <rect x="16.472" y="14.092" clip-path="url(#clipPath2)" fill="none" width="157.235" rx="4" ry="4" height="77.481"/>
    </g>
    <g stroke-linecap="butt" font-size="10px" transform="matrix(1,0,0,1,-1,1)" fill="rgb(148,0,39)" text-rendering="geometricPrecision" font-family="'Calibri'" shape-rendering="geometricPrecision" stroke="rgb(148,0,39)" stroke-miterlimit="1.45">
      <text x="22.472" xml:space="preserve" y="27.592" clip-path="url(#clipPath2)" stroke="none">tillidstjeneste </text>
    </g>
    <g fill="white" text-rendering="geometricPrecision" shape-rendering="geometricPrecision" transform="matrix(1,0,0,1,-1,1)" stroke="white">
      <rect x="42.5297" y="43.4239" clip-path="url(#clipPath2)" width="105.1195" rx="4" ry="4" height="25" stroke="none"/>
    </g>
    <g stroke-linecap="butt" transform="matrix(1,0,0,1,-1,1)" fill="gray" text-rendering="geometricPrecision" shape-rendering="geometricPrecision" stroke="gray" stroke-miterlimit="1.45">
      <rect x="42.5297" y="43.4239" clip-path="url(#clipPath2)" fill="none" width="105.1195" rx="4" ry="4" height="25"/>
    </g>
    <g stroke-linecap="butt" font-size="10px" transform="matrix(1,0,0,1,-1,1)" fill="rgb(148,0,39)" text-rendering="geometricPrecision" font-family="'Calibri'" shape-rendering="geometricPrecision" stroke="rgb(148,0,39)" font-weight="bold" stroke-miterlimit="1.45">
      <text x="64.0324" xml:space="preserve" y="58.4239" clip-path="url(#clipPath2)" stroke="none">autentifikation</text>
    </g>
    <g stroke-linecap="butt" transform="matrix(1,0,0,1,-1,1)" fill="gray" text-rendering="geometricPrecision" shape-rendering="geometricPrecision" stroke-dasharray="6,2" stroke="gray" stroke-miterlimit="1.45">
      <rect x="190.8198" y="14.092" clip-path="url(#clipPath2)" fill="none" width="157.235" rx="4" ry="4" height="77.481"/>
    </g>
    <g stroke-linecap="butt" font-size="10px" transform="matrix(1,0,0,1,-1,1)" fill="rgb(148,0,39)" text-rendering="geometricPrecision" font-family="'Calibri'" shape-rendering="geometricPrecision" stroke="rgb(148,0,39)" stroke-miterlimit="1.45">
      <text x="196.8198" xml:space="preserve" y="27.592" clip-path="url(#clipPath2)" stroke="none">tillidstjeneste </text>
    </g>
    <g fill="white" text-rendering="geometricPrecision" shape-rendering="geometricPrecision" transform="matrix(1,0,0,1,-1,1)" stroke="white">
      <rect x="216.8775" y="44.6377" clip-path="url(#clipPath2)" width="105.1195" rx="4" ry="4" height="25" stroke="none"/>
    </g>
    <g stroke-linecap="butt" transform="matrix(1,0,0,1,-1,1)" fill="gray" text-rendering="geometricPrecision" shape-rendering="geometricPrecision" stroke="gray" stroke-miterlimit="1.45">
      <rect x="216.8775" y="44.6377" clip-path="url(#clipPath2)" fill="none" width="105.1195" rx="4" ry="4" height="25"/>
    </g>
    <g stroke-linecap="butt" font-size="10px" transform="matrix(1,0,0,1,-1,1)" fill="rgb(148,0,39)" text-rendering="geometricPrecision" font-family="'Calibri'" shape-rendering="geometricPrecision" stroke="rgb(148,0,39)" font-weight="bold" stroke-miterlimit="1.45">
      <text x="230.4163" xml:space="preserve" y="59.6377" clip-path="url(#clipPath2)" stroke="none">attributattestation</text>
    </g>
    <g stroke-linecap="butt" transform="matrix(1,0,0,1,-1,1)" fill="gray" text-rendering="geometricPrecision" shape-rendering="geometricPrecision" stroke-dasharray="6,2" stroke="gray" stroke-miterlimit="1.45">
      <rect x="365.1676" y="14.092" clip-path="url(#clipPath2)" fill="none" width="157.235" rx="4" ry="4" height="77.481"/>
    </g>
    <g stroke-linecap="butt" font-size="10px" transform="matrix(1,0,0,1,-1,1)" fill="rgb(148,0,39)" text-rendering="geometricPrecision" font-family="'Calibri'" shape-rendering="geometricPrecision" stroke="rgb(148,0,39)" stroke-miterlimit="1.45">
      <text x="371.1676" xml:space="preserve" y="27.592" clip-path="url(#clipPath2)" stroke="none">tillidstjeneste </text>
    </g>
    <g fill="white" text-rendering="geometricPrecision" shape-rendering="geometricPrecision" transform="matrix(1,0,0,1,-1,1)" stroke="white">
      <rect x="391.2253" y="44.6377" clip-path="url(#clipPath2)" width="105.1195" rx="4" ry="4" height="25" stroke="none"/>
    </g>
    <g stroke-linecap="butt" transform="matrix(1,0,0,1,-1,1)" fill="gray" text-rendering="geometricPrecision" shape-rendering="geometricPrecision" stroke="gray" stroke-miterlimit="1.45">
      <rect x="391.2253" y="44.6377" clip-path="url(#clipPath2)" fill="none" width="105.1195" rx="4" ry="4" height="25"/>
    </g>
    <g stroke-linecap="butt" font-size="10px" transform="matrix(1,0,0,1,-1,1)" fill="rgb(148,0,39)" text-rendering="geometricPrecision" font-family="'Calibri'" shape-rendering="geometricPrecision" stroke="rgb(148,0,39)" font-weight="bold" stroke-miterlimit="1.45">
      <text x="404.7641" xml:space="preserve" y="59.6377" clip-path="url(#clipPath2)" stroke="none">attributattestation</text>
    </g>
    <g stroke-linecap="butt" transform="matrix(1,0,0,1,-1,1)" fill="gray" text-rendering="geometricPrecision" shape-rendering="geometricPrecision" stroke-dasharray="6,2" stroke="gray" stroke-miterlimit="1.45">
      <rect x="190.8198" y="133.9266" clip-path="url(#clipPath2)" fill="none" width="157.235" rx="4" ry="4" height="77.481"/>
    </g>
    <g stroke-linecap="butt" font-size="10px" transform="matrix(1,0,0,1,-1,1)" fill="rgb(148,0,39)" text-rendering="geometricPrecision" font-family="'Calibri'" shape-rendering="geometricPrecision" stroke="rgb(148,0,39)" stroke-miterlimit="1.45">
      <text x="196.8198" xml:space="preserve" y="202.9076" clip-path="url(#clipPath2)" stroke="none">tillidstjeneste </text>
    </g>
    <g fill="white" text-rendering="geometricPrecision" shape-rendering="geometricPrecision" transform="matrix(1,0,0,1,-1,1)" stroke="white">
      <rect x="216.8775" y="164.4723" clip-path="url(#clipPath2)" width="105.1195" rx="4" ry="4" height="25" stroke="none"/>
    </g>
    <g stroke-linecap="butt" transform="matrix(1,0,0,1,-1,1)" fill="gray" text-rendering="geometricPrecision" shape-rendering="geometricPrecision" stroke="gray" stroke-miterlimit="1.45">
      <rect x="216.8775" y="164.4723" clip-path="url(#clipPath2)" fill="none" width="105.1195" rx="4" ry="4" height="25"/>
    </g>
    <g stroke-linecap="butt" font-size="10px" transform="matrix(1,0,0,1,-1,1)" fill="rgb(148,0,39)" text-rendering="geometricPrecision" font-family="'Calibri'" shape-rendering="geometricPrecision" stroke="rgb(148,0,39)" font-weight="bold" stroke-miterlimit="1.45">
      <text x="235.5432" xml:space="preserve" y="179.4723" clip-path="url(#clipPath2)" stroke="none">identitetsbroker</text>
    </g>
    <g text-rendering="geometricPrecision" stroke-miterlimit="1.45" shape-rendering="geometricPrecision" transform="matrix(1,0,0,1,-1,1)" stroke-linecap="butt">
      <path fill="none" d="M251.4534 164.4862 L119.6412 72.97" clip-path="url(#clipPath2)"/>
      <path d="M113.0698 68.4075 L120.0754 79.3584 L120.4627 73.5404 L125.7785 71.1441 Z" clip-path="url(#clipPath2)" stroke="none"/>
      <path fill="none" d="M304.2773 164.4479 L421.1976 74.5121" clip-path="url(#clipPath2)"/>
      <path d="M427.5387 69.6346 L414.9786 72.9878 L420.405 75.1218 L421.0756 80.9141 Z" clip-path="url(#clipPath2)" stroke="none"/>
      <path fill="none" d="M269.4373 164.4798 L269.4373 77.6383" clip-path="url(#clipPath2)"/>
      <path d="M269.4373 69.6383 L264.4373 81.6383 L269.4373 78.6383 L274.4373 81.6383 Z" clip-path="url(#clipPath2)" stroke="none"/>
      <path fill="none" d="M321.9792 176.9723 L388.9968 176.9723" clip-path="url(#clipPath2)"/>
      <path d="M396.9968 176.9723 L384.9968 171.9723 L387.9968 176.9723 L384.9968 181.9723 Z" clip-path="url(#clipPath2)" stroke="none"/>
    </g>
  </g>
</svg>
