<?xml version="1.0" encoding="UTF-8"?><svg xmlns="http://www.w3.org/2000/svg" xmlns:xlink="http://www.w3.org/1999/xlink" fill-opacity="1" color-rendering="auto" color-interpolation="auto" text-rendering="auto" stroke="black" stroke-linecap="square" width="536" stroke-miterlimit="10" shape-rendering="auto" stroke-opacity="1" fill="black" stroke-dasharray="none" font-weight="normal" stroke-width="1" height="230" font-family="'Dialog'" font-style="normal" stroke-linejoin="miter" font-size="12px" stroke-dashoffset="0" image-rendering="auto">
  <!--Generated by ySVG 2.5-->
  <defs id="genericDefs"/>
  <g>
    <defs id="defs1">
      <clipPath clipPathUnits="userSpaceOnUse" id="clipPath1">
        <path d="M0 0 L536 0 L536 230 L0 230 L0 0 Z"/>
      </clipPath>
      <clipPath clipPathUnits="userSpaceOnUse" id="clipPath2">
        <path d="M2 -120 L538 -120 L538 110 L2 110 L2 -120 Z"/>
      </clipPath>
      <clipPath clipPathUnits="userSpaceOnUse" id="clipPath3">
        <path d="M-140.5932 197.6511 L-140.5932 -338.3489 L89.4068 -338.3489 L89.4068 197.6511 L-140.5932 197.6511 Z"/>
      </clipPath>
    </defs>
    <g fill="white" text-rendering="geometricPrecision" shape-rendering="geometricPrecision" transform="translate(-2,120)" stroke="white">
      <rect x="2" width="536" height="230" y="-120" clip-path="url(#clipPath2)" stroke="none"/>
    </g>
    <g stroke-linecap="butt" transform="matrix(1,0,0,1,-2,120)" fill="gray" text-rendering="geometricPrecision" shape-rendering="geometricPrecision" stroke-dasharray="6,2" stroke="gray" stroke-miterlimit="1.45">
      <rect x="181.6511" y="16.5932" clip-path="url(#clipPath2)" fill="none" width="167.0004" rx="4" ry="4" height="77.481"/>
    </g>
    <g stroke-linecap="butt" font-size="10px" transform="matrix(0,1,-1,0,197.6511,140.5932)" fill="gray" text-rendering="geometricPrecision" font-family="'Calibri'" shape-rendering="geometricPrecision" stroke="gray" stroke-miterlimit="1.45">
      <text x="2" xml:space="preserve" y="9.5" clip-path="url(#clipPath3)" stroke="none">tjenesteudbyder</text>
    </g>
    <g stroke-linecap="butt" transform="matrix(1,0,0,1,-2,120)" fill="gray" text-rendering="geometricPrecision" shape-rendering="geometricPrecision" stroke="gray" stroke-miterlimit="1.45">
      <rect x="217.4742" y="47.6698" clip-path="url(#clipPath2)" fill="none" width="105.1195" rx="4" ry="4" height="25"/>
    </g>
    <g stroke-linecap="butt" font-size="10px" transform="matrix(1,0,0,1,-2,120)" fill="rgb(51,102,255)" text-rendering="geometricPrecision" font-family="'Calibri'" shape-rendering="geometricPrecision" stroke="rgb(51,102,255)" font-weight="bold" stroke-miterlimit="1.45">
      <text x="230.0267" xml:space="preserve" y="62.6698" clip-path="url(#clipPath2)" stroke="none">forretningstjeneste</text>
    </g>
    <g stroke-linecap="butt" transform="matrix(1,0,0,1,-2,120)" fill="gray" text-rendering="geometricPrecision" shape-rendering="geometricPrecision" stroke-dasharray="6,2" stroke="gray" stroke-miterlimit="1.45">
      <rect x="17.0687" y="-104.4551" clip-path="url(#clipPath2)" fill="none" width="157.235" rx="4" ry="4" height="77.481"/>
    </g>
    <g stroke-linecap="butt" font-size="10px" transform="matrix(1,0,0,1,-2,120)" fill="rgb(148,0,39)" text-rendering="geometricPrecision" font-family="'Calibri'" shape-rendering="geometricPrecision" stroke="rgb(148,0,39)" stroke-miterlimit="1.45">
      <text x="23.0687" xml:space="preserve" y="-90.9551" clip-path="url(#clipPath2)" stroke="none">tillidstjeneste </text>
    </g>
    <g fill="white" text-rendering="geometricPrecision" shape-rendering="geometricPrecision" transform="matrix(1,0,0,1,-2,120)" stroke="white">
      <rect x="43.1264" y="-73.9094" clip-path="url(#clipPath2)" width="105.1195" rx="4" ry="4" height="25" stroke="none"/>
    </g>
    <g stroke-linecap="butt" transform="matrix(1,0,0,1,-2,120)" fill="gray" text-rendering="geometricPrecision" shape-rendering="geometricPrecision" stroke="gray" stroke-miterlimit="1.45">
      <rect x="43.1264" y="-73.9094" clip-path="url(#clipPath2)" fill="none" width="105.1195" rx="4" ry="4" height="25"/>
    </g>
    <g stroke-linecap="butt" font-size="10px" transform="matrix(1,0,0,1,-2,120)" fill="rgb(148,0,39)" text-rendering="geometricPrecision" font-family="'Calibri'" shape-rendering="geometricPrecision" stroke="rgb(148,0,39)" font-weight="bold" stroke-miterlimit="1.45">
      <text x="64.6291" xml:space="preserve" y="-58.9094" clip-path="url(#clipPath2)" stroke="none">autentifikation</text>
    </g>
    <g stroke-linecap="butt" transform="matrix(1,0,0,1,-2,120)" fill="gray" text-rendering="geometricPrecision" shape-rendering="geometricPrecision" stroke-dasharray="6,2" stroke="gray" stroke-miterlimit="1.45">
      <rect x="191.4165" y="-103.2413" clip-path="url(#clipPath2)" fill="none" width="157.235" rx="4" ry="4" height="77.481"/>
    </g>
    <g stroke-linecap="butt" font-size="10px" transform="matrix(1,0,0,1,-2,120)" fill="rgb(148,0,39)" text-rendering="geometricPrecision" font-family="'Calibri'" shape-rendering="geometricPrecision" stroke="rgb(148,0,39)" stroke-miterlimit="1.45">
      <text x="197.4165" xml:space="preserve" y="-89.7413" clip-path="url(#clipPath2)" stroke="none">tillidstjeneste </text>
    </g>
    <g fill="white" text-rendering="geometricPrecision" shape-rendering="geometricPrecision" transform="matrix(1,0,0,1,-2,120)" stroke="white">
      <rect x="217.4742" y="-72.6956" clip-path="url(#clipPath2)" width="105.1195" rx="4" ry="4" height="25" stroke="none"/>
    </g>
    <g stroke-linecap="butt" transform="matrix(1,0,0,1,-2,120)" fill="gray" text-rendering="geometricPrecision" shape-rendering="geometricPrecision" stroke="gray" stroke-miterlimit="1.45">
      <rect x="217.4742" y="-72.6956" clip-path="url(#clipPath2)" fill="none" width="105.1195" rx="4" ry="4" height="25"/>
    </g>
    <g stroke-linecap="butt" font-size="10px" transform="matrix(1,0,0,1,-2,120)" fill="rgb(148,0,39)" text-rendering="geometricPrecision" font-family="'Calibri'" shape-rendering="geometricPrecision" stroke="rgb(148,0,39)" font-weight="bold" stroke-miterlimit="1.45">
      <text x="231.2376" xml:space="preserve" y="-57.6956" clip-path="url(#clipPath2)" stroke="none">attributattestering</text>
    </g>
    <g stroke-linecap="butt" transform="matrix(1,0,0,1,-2,120)" fill="gray" text-rendering="geometricPrecision" shape-rendering="geometricPrecision" stroke-dasharray="6,2" stroke="gray" stroke-miterlimit="1.45">
      <rect x="365.7643" y="-103.2413" clip-path="url(#clipPath2)" fill="none" width="157.235" rx="4" ry="4" height="77.481"/>
    </g>
    <g stroke-linecap="butt" font-size="10px" transform="matrix(1,0,0,1,-2,120)" fill="rgb(148,0,39)" text-rendering="geometricPrecision" font-family="'Calibri'" shape-rendering="geometricPrecision" stroke="rgb(148,0,39)" stroke-miterlimit="1.45">
      <text x="371.7643" xml:space="preserve" y="-89.7413" clip-path="url(#clipPath2)" stroke="none">tillidstjeneste </text>
    </g>
    <g fill="white" text-rendering="geometricPrecision" shape-rendering="geometricPrecision" transform="matrix(1,0,0,1,-2,120)" stroke="white">
      <rect x="391.822" y="-72.6956" clip-path="url(#clipPath2)" width="105.1195" rx="4" ry="4" height="25" stroke="none"/>
    </g>
    <g stroke-linecap="butt" transform="matrix(1,0,0,1,-2,120)" fill="gray" text-rendering="geometricPrecision" shape-rendering="geometricPrecision" stroke="gray" stroke-miterlimit="1.45">
      <rect x="391.822" y="-72.6956" clip-path="url(#clipPath2)" fill="none" width="105.1195" rx="4" ry="4" height="25"/>
    </g>
    <g stroke-linecap="butt" font-size="10px" transform="matrix(1,0,0,1,-2,120)" fill="rgb(148,0,39)" text-rendering="geometricPrecision" font-family="'Calibri'" shape-rendering="geometricPrecision" stroke="rgb(148,0,39)" font-weight="bold" stroke-miterlimit="1.45">
      <text x="405.5854" xml:space="preserve" y="-57.6956" clip-path="url(#clipPath2)" stroke="none">attributattestering</text>
    </g>
    <g text-rendering="geometricPrecision" stroke-miterlimit="1.45" shape-rendering="geometricPrecision" transform="matrix(1,0,0,1,-2,120)" stroke-linecap="butt">
      <path fill="none" d="M252.0927 47.6587 L120.1571 -44.3449" clip-path="url(#clipPath2)"/>
      <path d="M113.595 -48.9209 L120.5781 -37.9557 L120.9773 -43.7729 L126.2981 -46.1582 Z" clip-path="url(#clipPath2)" stroke="none"/>
      <path fill="none" d="M270.034 47.6807 L270.034 -39.6855" clip-path="url(#clipPath2)"/>
      <path d="M270.034 -47.6855 L265.034 -35.6855 L270.034 -38.6855 L275.034 -35.6855 Z" clip-path="url(#clipPath2)" stroke="none"/>
      <path fill="none" d="M288.1456 47.666 L419.6801 -43.1421" clip-path="url(#clipPath2)"/>
      <path d="M426.2636 -47.6872 L413.5477 -44.9843 L418.8571 -42.574 L419.229 -36.7549 Z" clip-path="url(#clipPath2)" stroke="none"/>
    </g>
  </g>
</svg>
