<?xml version="1.0" encoding="UTF-8"?><svg xmlns="http://www.w3.org/2000/svg" xmlns:xlink="http://www.w3.org/1999/xlink" fill-opacity="1" color-rendering="auto" color-interpolation="auto" text-rendering="auto" stroke="black" stroke-linecap="square" width="537" stroke-miterlimit="10" shape-rendering="auto" stroke-opacity="1" fill="black" stroke-dasharray="none" font-weight="normal" stroke-width="1" height="228" font-family="'Dialog'" font-style="normal" stroke-linejoin="miter" font-size="12px" stroke-dashoffset="0" image-rendering="auto">
  <!--Generated by ySVG 2.5-->
  <defs id="genericDefs"/>
  <g>
    <defs id="defs1">
      <clipPath clipPathUnits="userSpaceOnUse" id="clipPath1">
        <path d="M0 0 L537 0 L537 228 L0 228 L0 0 Z"/>
      </clipPath>
      <clipPath clipPathUnits="userSpaceOnUse" id="clipPath2">
        <path d="M5 4 L542 4 L542 232 L5 232 L5 4 Z"/>
      </clipPath>
      <clipPath clipPathUnits="userSpaceOnUse" id="clipPath3">
        <path d="M-138.9266 197.9844 L-138.9266 -339.0156 L89.0734 -339.0156 L89.0734 197.9844 L-138.9266 197.9844 Z"/>
      </clipPath>
    </defs>
    <g fill="white" text-rendering="geometricPrecision" shape-rendering="geometricPrecision" transform="translate(-5,-4)" stroke="white">
      <rect x="5" width="537" height="228" y="4" clip-path="url(#clipPath2)" stroke="none"/>
    </g>
    <g stroke-linecap="butt" transform="matrix(1,0,0,1,-5,-4)" fill="gray" text-rendering="geometricPrecision" shape-rendering="geometricPrecision" stroke-dasharray="6,2" stroke="gray" stroke-miterlimit="1.45">
      <rect x="184.9844" y="138.9266" clip-path="url(#clipPath2)" fill="none" width="167.0004" rx="4" ry="4" height="77.481"/>
    </g>
    <g stroke-linecap="butt" font-size="10px" transform="matrix(0,1,-1,0,197.9844,138.9266)" fill="gray" text-rendering="geometricPrecision" font-family="'Calibri'" shape-rendering="geometricPrecision" stroke="gray" stroke-miterlimit="1.45">
      <text x="2" xml:space="preserve" y="9.5" clip-path="url(#clipPath3)" stroke="none">tjenesteudbyder</text>
    </g>
    <g stroke-linecap="butt" transform="matrix(1,0,0,1,-5,-4)" fill="gray" text-rendering="geometricPrecision" shape-rendering="geometricPrecision" stroke="gray" stroke-miterlimit="1.45">
      <rect x="220.8076" y="170.0031" clip-path="url(#clipPath2)" fill="none" width="105.1195" rx="4" ry="4" height="25"/>
    </g>
    <g stroke-linecap="butt" font-size="10px" transform="matrix(1,0,0,1,-5,-4)" fill="rgb(51,102,255)" text-rendering="geometricPrecision" font-family="'Calibri'" shape-rendering="geometricPrecision" stroke="rgb(51,102,255)" font-weight="bold" stroke-miterlimit="1.45">
      <text x="233.36" xml:space="preserve" y="185.0031" clip-path="url(#clipPath2)" stroke="none">forretningstjeneste</text>
    </g>
    <g stroke-linecap="butt" transform="matrix(1,0,0,1,-5,-4)" fill="gray" text-rendering="geometricPrecision" shape-rendering="geometricPrecision" stroke-dasharray="6,2" stroke="gray" stroke-miterlimit="1.45">
      <rect x="20.402" y="19.092" clip-path="url(#clipPath2)" fill="none" width="157.235" rx="4" ry="4" height="77.481"/>
    </g>
    <g stroke-linecap="butt" font-size="10px" transform="matrix(1,0,0,1,-5,-4)" fill="rgb(148,0,39)" text-rendering="geometricPrecision" font-family="'Calibri'" shape-rendering="geometricPrecision" stroke="rgb(148,0,39)" stroke-miterlimit="1.45">
      <text x="26.402" xml:space="preserve" y="32.592" clip-path="url(#clipPath2)" stroke="none">tillidstjeneste </text>
    </g>
    <g fill="white" text-rendering="geometricPrecision" shape-rendering="geometricPrecision" transform="matrix(1,0,0,1,-5,-4)" stroke="white">
      <rect x="46.4598" y="48.4239" clip-path="url(#clipPath2)" width="105.1195" rx="4" ry="4" height="25" stroke="none"/>
    </g>
    <g stroke-linecap="butt" transform="matrix(1,0,0,1,-5,-4)" fill="gray" text-rendering="geometricPrecision" shape-rendering="geometricPrecision" stroke="gray" stroke-miterlimit="1.45">
      <rect x="46.4598" y="48.4239" clip-path="url(#clipPath2)" fill="none" width="105.1195" rx="4" ry="4" height="25"/>
    </g>
    <g stroke-linecap="butt" font-size="10px" transform="matrix(1,0,0,1,-5,-4)" fill="rgb(148,0,39)" text-rendering="geometricPrecision" font-family="'Calibri'" shape-rendering="geometricPrecision" stroke="rgb(148,0,39)" font-weight="bold" stroke-miterlimit="1.45">
      <text x="67.9624" xml:space="preserve" y="63.4239" clip-path="url(#clipPath2)" stroke="none">autentifikation</text>
    </g>
    <g stroke-linecap="butt" transform="matrix(1,0,0,1,-5,-4)" fill="gray" text-rendering="geometricPrecision" shape-rendering="geometricPrecision" stroke-dasharray="6,2" stroke="gray" stroke-miterlimit="1.45">
      <rect x="194.7498" y="19.092" clip-path="url(#clipPath2)" fill="none" width="157.235" rx="4" ry="4" height="77.481"/>
    </g>
    <g stroke-linecap="butt" font-size="10px" transform="matrix(1,0,0,1,-5,-4)" fill="rgb(148,0,39)" text-rendering="geometricPrecision" font-family="'Calibri'" shape-rendering="geometricPrecision" stroke="rgb(148,0,39)" stroke-miterlimit="1.45">
      <text x="200.7498" xml:space="preserve" y="32.592" clip-path="url(#clipPath2)" stroke="none">tillidstjeneste </text>
    </g>
    <g fill="white" text-rendering="geometricPrecision" shape-rendering="geometricPrecision" transform="matrix(1,0,0,1,-5,-4)" stroke="white">
      <rect x="220.8076" y="49.6377" clip-path="url(#clipPath2)" width="105.1195" rx="4" ry="4" height="25" stroke="none"/>
    </g>
    <g stroke-linecap="butt" transform="matrix(1,0,0,1,-5,-4)" fill="gray" text-rendering="geometricPrecision" shape-rendering="geometricPrecision" stroke="gray" stroke-miterlimit="1.45">
      <rect x="220.8076" y="49.6377" clip-path="url(#clipPath2)" fill="none" width="105.1195" rx="4" ry="4" height="25"/>
    </g>
    <g stroke-linecap="butt" font-size="10px" transform="matrix(1,0,0,1,-5,-4)" fill="rgb(148,0,39)" text-rendering="geometricPrecision" font-family="'Calibri'" shape-rendering="geometricPrecision" stroke="rgb(148,0,39)" font-weight="bold" stroke-miterlimit="1.45">
      <text x="234.3463" xml:space="preserve" y="64.6377" clip-path="url(#clipPath2)" stroke="none">attributattestation</text>
    </g>
    <g stroke-linecap="butt" transform="matrix(1,0,0,1,-5,-4)" fill="gray" text-rendering="geometricPrecision" shape-rendering="geometricPrecision" stroke-dasharray="6,2" stroke="gray" stroke-miterlimit="1.45">
      <rect x="369.0976" y="19.092" clip-path="url(#clipPath2)" fill="none" width="157.235" rx="4" ry="4" height="77.481"/>
    </g>
    <g stroke-linecap="butt" font-size="10px" transform="matrix(1,0,0,1,-5,-4)" fill="rgb(148,0,39)" text-rendering="geometricPrecision" font-family="'Calibri'" shape-rendering="geometricPrecision" stroke="rgb(148,0,39)" stroke-miterlimit="1.45">
      <text x="375.0976" xml:space="preserve" y="32.592" clip-path="url(#clipPath2)" stroke="none">tillidstjeneste </text>
    </g>
    <g fill="white" text-rendering="geometricPrecision" shape-rendering="geometricPrecision" transform="matrix(1,0,0,1,-5,-4)" stroke="white">
      <rect x="395.1554" y="49.6377" clip-path="url(#clipPath2)" width="105.1195" rx="4" ry="4" height="25" stroke="none"/>
    </g>
    <g stroke-linecap="butt" transform="matrix(1,0,0,1,-5,-4)" fill="gray" text-rendering="geometricPrecision" shape-rendering="geometricPrecision" stroke="gray" stroke-miterlimit="1.45">
      <rect x="395.1554" y="49.6377" clip-path="url(#clipPath2)" fill="none" width="105.1195" rx="4" ry="4" height="25"/>
    </g>
    <g stroke-linecap="butt" font-size="10px" transform="matrix(1,0,0,1,-5,-4)" fill="rgb(148,0,39)" text-rendering="geometricPrecision" font-family="'Calibri'" shape-rendering="geometricPrecision" stroke="rgb(148,0,39)" font-weight="bold" stroke-miterlimit="1.45">
      <text x="408.9187" xml:space="preserve" y="64.6377" clip-path="url(#clipPath2)" stroke="none">attributattestering</text>
    </g>
    <g text-rendering="geometricPrecision" stroke-miterlimit="1.45" shape-rendering="geometricPrecision" transform="matrix(1,0,0,1,-5,-4)" stroke-linecap="butt">
      <path fill="none" d="M255.426 169.992 L123.4904 77.9884" clip-path="url(#clipPath2)"/>
      <path d="M116.9284 73.4124 L123.9115 84.3777 L124.3107 78.5604 L129.6314 76.1751 Z" clip-path="url(#clipPath2)" stroke="none"/>
      <path fill="none" d="M273.3673 170.0141 L273.3673 82.6478" clip-path="url(#clipPath2)"/>
      <path d="M273.3673 74.6478 L268.3673 86.6478 L273.3673 83.6478 L278.3673 86.6478 Z" clip-path="url(#clipPath2)" stroke="none"/>
      <path fill="none" d="M291.4789 169.9994 L423.0134 79.1912" clip-path="url(#clipPath2)"/>
      <path d="M429.5969 74.6461 L416.881 77.3491 L422.1905 79.7593 L422.5623 85.5784 Z" clip-path="url(#clipPath2)" stroke="none"/>
    </g>
  </g>
</svg>
