<?xml version="1.0" encoding="UTF-8"?><svg xmlns="http://www.w3.org/2000/svg" xmlns:xlink="http://www.w3.org/1999/xlink" fill-opacity="1" color-rendering="auto" color-interpolation="auto" text-rendering="auto" stroke="black" stroke-linecap="square" width="542" stroke-miterlimit="10" shape-rendering="auto" stroke-opacity="1" fill="black" stroke-dasharray="none" font-weight="normal" stroke-width="1" height="176" font-family="'Dialog'" font-style="normal" stroke-linejoin="miter" font-size="12px" stroke-dashoffset="0" image-rendering="auto">
  <!--Generated by ySVG 2.5-->
  <defs id="genericDefs"/>
  <g>
    <defs id="defs1">
      <clipPath clipPathUnits="userSpaceOnUse" id="clipPath1">
        <path d="M0 0 L542 0 L542 176 L0 176 L0 0 Z"/>
      </clipPath>
      <clipPath clipPathUnits="userSpaceOnUse" id="clipPath2">
        <path d="M1059 653 L1601 653 L1601 829 L1059 829 L1059 653 Z"/>
      </clipPath>
    </defs>
    <g fill="white" text-rendering="geometricPrecision" shape-rendering="geometricPrecision" transform="translate(-1059,-653)" stroke="white">
      <rect x="1059" width="542" height="176" y="653" clip-path="url(#clipPath2)" stroke="none"/>
    </g>
    <g stroke-linecap="butt" transform="matrix(1,0,0,1,-1059,-653)" fill="gray" text-rendering="geometricPrecision" shape-rendering="geometricPrecision" stroke="gray" stroke-miterlimit="1.45">
      <rect fill="none" x="1213.8527" width="75" height="25" y="728.3769" clip-path="url(#clipPath2)"/>
    </g>
    <g stroke-linecap="butt" transform="matrix(1,0,0,1,-1059,-653)" fill="rgb(148,0,39)" text-rendering="geometricPrecision" font-family="'Arial'" shape-rendering="geometricPrecision" stroke="rgb(148,0,39)" font-weight="bold" stroke-miterlimit="1.45">
      <text x="1233.3527" xml:space="preserve" y="744.2402" clip-path="url(#clipPath2)" stroke="none">entitet</text>
    </g>
    <g stroke-linecap="butt" transform="matrix(1,0,0,1,-1059,-653)" fill="gray" text-rendering="geometricPrecision" shape-rendering="geometricPrecision" stroke="gray" stroke-miterlimit="1.45">
      <rect fill="none" x="1074.6914" width="90.6284" height="35" y="768.3769" clip-path="url(#clipPath2)"/>
    </g>
    <g stroke-linecap="butt" transform="matrix(1,0,0,1,-1059,-653)" fill="rgb(148,0,39)" text-rendering="geometricPrecision" font-family="'Arial'" shape-rendering="geometricPrecision" stroke="rgb(148,0,39)" font-weight="bold" stroke-miterlimit="1.45">
      <text x="1077.3376" xml:space="preserve" y="784.2402" clip-path="url(#clipPath2)" stroke="none">identifikations-</text>
      <text x="1100.6697" xml:space="preserve" y="797.6464" clip-path="url(#clipPath2)" stroke="none">middel</text>
    </g>
    <g stroke-linecap="butt" transform="matrix(1,0,0,1,-1059,-653)" fill="gray" text-rendering="geometricPrecision" shape-rendering="geometricPrecision" stroke="gray" stroke-miterlimit="1.45">
      <rect fill="none" x="1076.2271" width="75" height="25" y="688.3769" clip-path="url(#clipPath2)"/>
    </g>
    <g stroke-linecap="butt" transform="matrix(1,0,0,1,-1059,-653)" fill="rgb(148,0,39)" text-rendering="geometricPrecision" font-family="'Arial'" shape-rendering="geometricPrecision" stroke="rgb(148,0,39)" font-weight="bold" stroke-miterlimit="1.45">
      <text x="1090.395" xml:space="preserve" y="704.2402" clip-path="url(#clipPath2)" stroke="none">identitet</text>
    </g>
    <g stroke-linecap="butt" transform="matrix(1,0,0,1,-1059,-653)" fill="gray" text-rendering="geometricPrecision" shape-rendering="geometricPrecision" stroke="gray" stroke-miterlimit="1.45">
      <rect fill="none" x="1340.8527" width="75" height="25" y="688.3769" clip-path="url(#clipPath2)"/>
    </g>
    <g stroke-linecap="butt" transform="matrix(1,0,0,1,-1059,-653)" fill="rgb(148,0,39)" text-rendering="geometricPrecision" font-family="'Arial'" shape-rendering="geometricPrecision" stroke="rgb(148,0,39)" font-weight="bold" stroke-miterlimit="1.45">
      <text x="1357.3468" xml:space="preserve" y="704.2402" clip-path="url(#clipPath2)" stroke="none">subjekt</text>
    </g>
    <g stroke-linecap="butt" transform="matrix(1,0,0,1,-1059,-653)" fill="gray" text-rendering="geometricPrecision" shape-rendering="geometricPrecision" stroke="gray" stroke-miterlimit="1.45">
      <rect fill="none" x="1340.8527" width="75" height="25" y="768.3769" clip-path="url(#clipPath2)"/>
    </g>
    <g stroke-linecap="butt" transform="matrix(1,0,0,1,-1059,-653)" fill="rgb(148,0,39)" text-rendering="geometricPrecision" font-family="'Arial'" shape-rendering="geometricPrecision" stroke="rgb(148,0,39)" font-weight="bold" stroke-miterlimit="1.45">
      <text x="1360.6837" xml:space="preserve" y="784.2402" clip-path="url(#clipPath2)" stroke="none">objekt</text>
    </g>
    <g stroke-linecap="butt" transform="matrix(1,0,0,1,-1059,-653)" fill="gray" text-rendering="geometricPrecision" shape-rendering="geometricPrecision" stroke="gray" stroke-miterlimit="1.45">
      <rect fill="none" x="1483.8636" width="99.1063" height="25" y="748.3769" clip-path="url(#clipPath2)"/>
    </g>
    <g stroke-linecap="butt" transform="matrix(1,0,0,1,-1059,-653)" fill="rgb(148,0,39)" text-rendering="geometricPrecision" font-family="'Arial'" shape-rendering="geometricPrecision" stroke="rgb(148,0,39)" font-weight="bold" stroke-miterlimit="1.45">
      <text x="1497.0681" xml:space="preserve" y="764.2402" clip-path="url(#clipPath2)" stroke="none">fysisk objekt</text>
    </g>
    <g stroke-linecap="butt" transform="matrix(1,0,0,1,-1059,-653)" fill="gray" text-rendering="geometricPrecision" shape-rendering="geometricPrecision" stroke="gray" stroke-miterlimit="1.45">
      <rect fill="none" x="1483.8636" width="99.1063" height="25" y="788.3769" clip-path="url(#clipPath2)"/>
    </g>
    <g stroke-linecap="butt" transform="matrix(1,0,0,1,-1059,-653)" fill="rgb(148,0,39)" text-rendering="geometricPrecision" font-family="'Arial'" shape-rendering="geometricPrecision" stroke="rgb(148,0,39)" font-weight="bold" stroke-miterlimit="1.45">
      <text x="1494.0769" xml:space="preserve" y="804.2402" clip-path="url(#clipPath2)" stroke="none">virtuelt objekt</text>
    </g>
    <g stroke-linecap="butt" transform="matrix(1,0,0,1,-1059,-653)" fill="gray" text-rendering="geometricPrecision" shape-rendering="geometricPrecision" stroke="gray" stroke-miterlimit="1.45">
      <rect fill="none" x="1486.485" width="99.1063" height="25" y="708.3769" clip-path="url(#clipPath2)"/>
    </g>
    <g stroke-linecap="butt" transform="matrix(1,0,0,1,-1059,-653)" fill="rgb(148,0,39)" text-rendering="geometricPrecision" font-family="'Arial'" shape-rendering="geometricPrecision" stroke="rgb(148,0,39)" font-weight="bold" stroke-miterlimit="1.45">
      <text x="1502.3585" xml:space="preserve" y="724.2402" clip-path="url(#clipPath2)" stroke="none">virksomhed</text>
    </g>
    <g stroke-linecap="butt" transform="matrix(1,0,0,1,-1059,-653)" fill="gray" text-rendering="geometricPrecision" shape-rendering="geometricPrecision" stroke="gray" stroke-miterlimit="1.45">
      <rect fill="none" x="1486.485" width="99.1063" height="25" y="668.3769" clip-path="url(#clipPath2)"/>
    </g>
    <g stroke-linecap="butt" transform="matrix(1,0,0,1,-1059,-653)" fill="rgb(148,0,39)" text-rendering="geometricPrecision" font-family="'Arial'" shape-rendering="geometricPrecision" stroke="rgb(148,0,39)" font-weight="bold" stroke-miterlimit="1.45">
      <text x="1516.0343" xml:space="preserve" y="684.2402" clip-path="url(#clipPath2)" stroke="none">person</text>
    </g>
    <g stroke-linecap="butt" transform="matrix(1,0,0,1,-1059,-653)" fill="gray" text-rendering="geometricPrecision" shape-rendering="geometricPrecision" stroke="gray" stroke-miterlimit="1.45">
      <path fill="none" d="M1165.3165 785.8769 L1241.3527 785.8769 L1245.7277 785.2519 L1248.8527 783.3769 L1250.7277 780.2519 L1251.3527 775.8769 L1251.3527 753.3928" clip-path="url(#clipPath2)"/>
    </g>
    <g stroke-linecap="butt" font-size="10px" transform="matrix(1,0,0,1,-1059,-653)" fill="rgb(148,0,39)" text-rendering="geometricPrecision" font-family="'Arial'" shape-rendering="geometricPrecision" stroke="rgb(148,0,39)" font-weight="bold" stroke-miterlimit="1.45">
      <text x="1200.7206" xml:space="preserve" y="779.3437" clip-path="url(#clipPath2)" stroke="none">anvender</text>
    </g>
    <g stroke-linecap="butt" transform="matrix(1,0,0,1,-1059,-653)" fill="gray" text-rendering="geometricPrecision" shape-rendering="geometricPrecision" stroke="gray" stroke-miterlimit="1.45">
      <path fill="none" d="M1250.5135 728.383 L1249.9255 710.8713 L1249.1537 706.4987 L1247.1738 703.3755 L1243.986 701.5015 L1239.59 700.8769 L1151.2419 700.8769" clip-path="url(#clipPath2)"/>
    </g>
    <g stroke-linecap="butt" font-size="10px" transform="matrix(1,0,0,1,-1059,-653)" fill="rgb(148,0,39)" text-rendering="geometricPrecision" font-family="'Arial'" shape-rendering="geometricPrecision" stroke="rgb(148,0,39)" font-weight="bold" stroke-miterlimit="1.45">
      <text x="1167.4515" xml:space="preserve" y="713.9296" clip-path="url(#clipPath2)" stroke="none">registreres med</text>
    </g>
    <g stroke-linecap="butt" transform="matrix(1,0,0,1,-1059,-653)" fill="gray" text-rendering="geometricPrecision" shape-rendering="geometricPrecision" stroke="gray" stroke-miterlimit="1.45">
      <path fill="none" d="M1113.7271 768.3467 L1113.7271 713.3628" clip-path="url(#clipPath2)"/>
    </g>
    <g stroke-linecap="butt" font-size="10px" transform="matrix(1,0,0,1,-1059,-653)" fill="rgb(148,0,39)" text-rendering="geometricPrecision" font-family="'Arial'" shape-rendering="geometricPrecision" stroke="rgb(148,0,39)" font-weight="bold" stroke-miterlimit="1.45">
      <text x="1076.2026" xml:space="preserve" y="759.2578" clip-path="url(#clipPath2)" stroke="none">associeres med</text>
    </g>
    <g stroke-linecap="butt" transform="matrix(1,0,0,1,-1059,-653)" fill="gray" text-rendering="geometricPrecision" shape-rendering="geometricPrecision" stroke="gray" stroke-miterlimit="1.45">
      <path fill="none" d="M1340.849 700.8769 L1333.3508 700.8769 L1330.0704 701.5019 L1327.7272 703.3769 L1326.3213 706.5019 L1325.8527 710.8769 L1325.8527 730.8769 L1325.2277 735.2519 L1323.3527 738.3769 L1320.2277 740.2519 L1315.8527 740.8769 L1303.8888 740.8769" clip-path="url(#clipPath2)"/>
      <path fill="white" d="M1288.8888 740.8769 L1304.8888 746.8769 L1304.8888 734.8769 Z" clip-path="url(#clipPath2)" stroke="none"/>
      <path fill="none" d="M1288.8888 740.8769 L1304.8888 746.8769 L1304.8888 734.8769 Z" clip-path="url(#clipPath2)"/>
      <path fill="none" d="M1340.849 780.8769 L1333.3508 780.8769 L1330.0704 780.2519 L1327.7272 778.3769 L1326.3213 775.2519 L1325.8527 770.8769 L1325.8527 750.8769 L1325.2277 746.5019 L1323.3527 743.3769 L1320.2277 741.5019 L1315.8527 740.8769 L1303.8888 740.8769" clip-path="url(#clipPath2)"/>
      <path fill="white" d="M1288.8888 740.8769 L1304.8888 746.8769 L1304.8888 734.8769 Z" clip-path="url(#clipPath2)" stroke="none"/>
      <path fill="none" d="M1288.8888 740.8769 L1304.8888 746.8769 L1304.8888 734.8769 Z" clip-path="url(#clipPath2)"/>
      <path fill="none" d="M1483.8981 760.8769 L1462.4796 760.8769 L1458.1046 761.5019 L1454.9796 763.3769 L1453.1046 766.5019 L1452.4796 770.8769 L1452.4796 770.8769 L1451.8546 775.2519 L1449.9796 778.3769 L1446.8546 780.2519 L1442.4796 780.8769 L1430.8867 780.8769" clip-path="url(#clipPath2)"/>
      <path fill="white" d="M1415.8867 780.8769 L1431.8867 786.8769 L1431.8867 774.8769 Z" clip-path="url(#clipPath2)" stroke="none"/>
      <path fill="none" d="M1415.8867 780.8769 L1431.8867 786.8769 L1431.8867 774.8769 Z" clip-path="url(#clipPath2)"/>
      <path fill="none" d="M1483.8981 800.8769 L1462.4796 800.8769 L1458.1046 800.2519 L1454.9796 798.3769 L1453.1046 795.2519 L1452.4796 790.8769 L1452.4796 790.8769 L1451.8546 786.5019 L1449.9796 783.3769 L1446.8546 781.5019 L1442.4796 780.8769 L1430.8867 780.8769" clip-path="url(#clipPath2)"/>
      <path fill="white" d="M1415.8867 780.8769 L1431.8867 786.8769 L1431.8867 774.8769 Z" clip-path="url(#clipPath2)" stroke="none"/>
      <path fill="none" d="M1415.8867 780.8769 L1431.8867 786.8769 L1431.8867 774.8769 Z" clip-path="url(#clipPath2)"/>
      <path fill="none" d="M1486.4661 720.8769 L1462.4796 720.8769 L1458.1046 720.2519 L1454.9796 718.3769 L1453.1046 715.2519 L1452.4796 710.8769 L1452.4796 710.8769 L1451.8546 706.5019 L1449.9796 703.3769 L1446.8546 701.5019 L1442.4796 700.8769 L1430.8867 700.8769" clip-path="url(#clipPath2)"/>
      <path fill="white" d="M1415.8867 700.8769 L1431.8867 706.8769 L1431.8867 694.8769 Z" clip-path="url(#clipPath2)" stroke="none"/>
      <path fill="none" d="M1415.8867 700.8769 L1431.8867 706.8769 L1431.8867 694.8769 Z" clip-path="url(#clipPath2)"/>
      <path fill="none" d="M1486.4661 680.8769 L1462.4796 680.8769 L1458.1046 681.5019 L1454.9796 683.3769 L1453.1046 686.5019 L1452.4796 690.8769 L1452.4796 690.8769 L1451.8546 695.2519 L1449.9796 698.3769 L1446.8546 700.2519 L1442.4796 700.8769 L1430.8867 700.8769" clip-path="url(#clipPath2)"/>
      <path fill="white" d="M1415.8867 700.8769 L1431.8867 706.8769 L1431.8867 694.8769 Z" clip-path="url(#clipPath2)" stroke="none"/>
      <path fill="none" d="M1415.8867 700.8769 L1431.8867 706.8769 L1431.8867 694.8769 Z" clip-path="url(#clipPath2)"/>
    </g>
  </g>
</svg>
