<?xml version="1.0" encoding="UTF-8"?><svg xmlns="http://www.w3.org/2000/svg" xmlns:xlink="http://www.w3.org/1999/xlink" fill-opacity="1" color-rendering="auto" color-interpolation="auto" text-rendering="auto" stroke="black" stroke-linecap="square" width="297" stroke-miterlimit="10" shape-rendering="auto" stroke-opacity="1" fill="black" stroke-dasharray="none" font-weight="normal" stroke-width="1" height="169" font-family="'Dialog'" font-style="normal" stroke-linejoin="miter" font-size="12px" stroke-dashoffset="0" image-rendering="auto">
  <!--Generated by ySVG 2.5-->
  <defs id="genericDefs"/>
  <g>
    <defs id="defs1">
      <clipPath clipPathUnits="userSpaceOnUse" id="clipPath1">
        <path d="M0 0 L297 0 L297 169 L0 169 L0 0 Z"/>
      </clipPath>
      <clipPath clipPathUnits="userSpaceOnUse" id="clipPath2">
        <path d="M1696 986 L1993 986 L1993 1155 L1696 1155 L1696 986 Z"/>
      </clipPath>
    </defs>
    <g fill="white" text-rendering="geometricPrecision" shape-rendering="geometricPrecision" transform="translate(-1696,-986)" stroke="white">
      <rect x="1696" width="297" height="169" y="986" clip-path="url(#clipPath2)" stroke="none"/>
    </g>
    <g stroke-linecap="butt" transform="matrix(1,0,0,1,-1696,-986)" fill="gray" text-rendering="geometricPrecision" shape-rendering="geometricPrecision" stroke="gray" stroke-miterlimit="1.45">
      <rect fill="none" x="1757.4073" width="75" height="25" y="1057.1203" clip-path="url(#clipPath2)"/>
    </g>
    <g stroke-linecap="butt" transform="matrix(1,0,0,1,-1696,-986)" fill="rgb(148,0,39)" text-rendering="geometricPrecision" font-family="'Arial'" shape-rendering="geometricPrecision" stroke="rgb(148,0,39)" font-weight="bold" stroke-miterlimit="1.45">
      <text x="1776.9073" xml:space="preserve" y="1072.9836" clip-path="url(#clipPath2)" stroke="none">entitet</text>
    </g>
    <g stroke-linecap="butt" transform="matrix(1,0,0,1,-1696,-986)" fill="gray" text-rendering="geometricPrecision" shape-rendering="geometricPrecision" stroke="gray" stroke-miterlimit="1.45">
      <rect fill="none" x="1864.8549" width="75" height="25" y="1114.6395" clip-path="url(#clipPath2)"/>
    </g>
    <g stroke-linecap="butt" transform="matrix(1,0,0,1,-1696,-986)" fill="rgb(148,0,39)" text-rendering="geometricPrecision" font-family="'Arial'" shape-rendering="geometricPrecision" stroke="rgb(148,0,39)" font-weight="bold" stroke-miterlimit="1.45">
      <text x="1874.3383" xml:space="preserve" y="1130.5028" clip-path="url(#clipPath2)" stroke="none">akkreditiv</text>
    </g>
    <g stroke-linecap="butt" transform="matrix(1,0,0,1,-1696,-986)" fill="gray" text-rendering="geometricPrecision" shape-rendering="geometricPrecision" stroke="gray" stroke-miterlimit="1.45">
      <rect fill="none" x="1864.8549" width="75" height="25" y="1001.8735" clip-path="url(#clipPath2)"/>
    </g>
    <g stroke-linecap="butt" transform="matrix(1,0,0,1,-1696,-986)" fill="rgb(148,0,39)" text-rendering="geometricPrecision" font-family="'Arial'" shape-rendering="geometricPrecision" stroke="rgb(148,0,39)" font-weight="bold" stroke-miterlimit="1.45">
      <text x="1879.0228" xml:space="preserve" y="1017.7368" clip-path="url(#clipPath2)" stroke="none">identitet</text>
    </g>
    <g stroke-linecap="butt" transform="matrix(1,0,0,1,-1696,-986)" fill="gray" text-rendering="geometricPrecision" shape-rendering="geometricPrecision" stroke="gray" stroke-miterlimit="1.45">
      <path fill="none" d="M1864.8689 1127.1395 L1804.9073 1127.1395 L1800.5323 1126.5145 L1797.4073 1124.6395 L1795.5323 1121.5145 L1794.9073 1117.1395 L1794.9073 1082.1184" clip-path="url(#clipPath2)"/>
    </g>
    <g stroke-linecap="butt" font-size="10px" transform="matrix(1,0,0,1,-1696,-986)" fill="rgb(148,0,39)" text-rendering="geometricPrecision" font-family="'Arial'" shape-rendering="geometricPrecision" stroke="rgb(148,0,39)" font-weight="bold" stroke-miterlimit="1.45">
      <text x="1741.4114" xml:space="preserve" y="1099.1865" clip-path="url(#clipPath2)" stroke="none">anvender</text>
    </g>
    <g stroke-linecap="butt" transform="matrix(1,0,0,1,-1696,-986)" fill="gray" text-rendering="geometricPrecision" shape-rendering="geometricPrecision" stroke="gray" stroke-miterlimit="1.45">
      <path fill="none" d="M1794.9073 1057.1094 L1794.9073 1024.3735 L1795.5323 1019.9985 L1797.4073 1016.8735 L1800.5323 1014.9985 L1804.9073 1014.3735 L1864.8689 1014.3735" clip-path="url(#clipPath2)"/>
    </g>
    <g stroke-linecap="butt" font-size="10px" transform="matrix(1,0,0,1,-1696,-986)" fill="rgb(148,0,39)" text-rendering="geometricPrecision" font-family="'Arial'" shape-rendering="geometricPrecision" stroke="rgb(148,0,39)" font-weight="bold" stroke-miterlimit="1.45">
      <text x="1713.09" xml:space="preserve" y="1031.7043" clip-path="url(#clipPath2)" stroke="none">registreres med </text>
      <text x="1728.3854" xml:space="preserve" y="1042.8762" clip-path="url(#clipPath2)" stroke="none">(tildeles?)</text>
    </g>
    <g stroke-linecap="butt" transform="matrix(1,0,0,1,-1696,-986)" fill="gray" text-rendering="geometricPrecision" shape-rendering="geometricPrecision" stroke="gray" stroke-miterlimit="1.45">
      <path fill="none" d="M1902.3549 1114.613 L1902.3549 1026.8545" clip-path="url(#clipPath2)"/>
    </g>
    <g stroke-linecap="butt" font-size="10px" transform="matrix(1,0,0,1,-1696,-986)" fill="rgb(148,0,39)" text-rendering="geometricPrecision" font-family="'Arial'" shape-rendering="geometricPrecision" stroke="rgb(148,0,39)" font-weight="bold" stroke-miterlimit="1.45">
      <text x="1912.9814" xml:space="preserve" y="1068.6373" clip-path="url(#clipPath2)" stroke="none">associeres </text>
      <text x="1905.2202" xml:space="preserve" y="1079.8092" clip-path="url(#clipPath2)" stroke="none">(er knytter til?)</text>
    </g>
  </g>
</svg>
