<?xml version="1.0" encoding="UTF-8"?><svg xmlns="http://www.w3.org/2000/svg" xmlns:xlink="http://www.w3.org/1999/xlink" fill-opacity="1" color-rendering="auto" color-interpolation="auto" text-rendering="auto" stroke="black" stroke-linecap="square" width="594" stroke-miterlimit="10" shape-rendering="auto" stroke-opacity="1" fill="black" stroke-dasharray="none" font-weight="normal" stroke-width="1" height="310" font-family="'Dialog'" font-style="normal" stroke-linejoin="miter" font-size="12px" stroke-dashoffset="0" image-rendering="auto">
  <!--Generated by ySVG 2.5-->
  <defs id="genericDefs"/>
  <g>
    <defs id="defs1">
      <clipPath clipPathUnits="userSpaceOnUse" id="clipPath1">
        <path d="M0 0 L594 0 L594 310 L0 310 L0 0 Z"/>
      </clipPath>
      <clipPath clipPathUnits="userSpaceOnUse" id="clipPath2">
        <path d="M1703 1042 L2000 1042 L2000 1197 L1703 1197 L1703 1042 Z"/>
      </clipPath>
    </defs>
    <g stroke-linecap="butt" transform="matrix(2,0,0,2,-3406,-2084)" fill="gray" text-rendering="geometricPrecision" shape-rendering="geometricPrecision" stroke="gray" stroke-miterlimit="1.45">
      <rect fill="none" x="1764.9579" width="75" height="25" y="1106.0176" clip-path="url(#clipPath2)"/>
    </g>
    <g stroke-linecap="butt" font-size="13px" transform="matrix(2,0,0,2,-3406,-2084)" fill="rgb(148,0,39)" text-rendering="geometricPrecision" shape-rendering="geometricPrecision" stroke="rgb(148,0,39)" font-weight="bold" stroke-miterlimit="1.45">
      <text x="1780.5553" xml:space="preserve" y="1123.5859" clip-path="url(#clipPath2)" stroke="none">entitet</text>
    </g>
    <g stroke-linecap="butt" transform="matrix(2,0,0,2,-3406,-2084)" fill="gray" text-rendering="geometricPrecision" shape-rendering="geometricPrecision" stroke="gray" stroke-miterlimit="1.45">
      <rect fill="none" x="1872.4055" width="75" height="25" y="1163.5367" clip-path="url(#clipPath2)"/>
    </g>
    <g stroke-linecap="butt" font-size="13px" transform="matrix(2,0,0,2,-3406,-2084)" fill="rgb(148,0,39)" text-rendering="geometricPrecision" shape-rendering="geometricPrecision" stroke="rgb(148,0,39)" font-weight="bold" stroke-miterlimit="1.45">
      <text x="1876.0693" xml:space="preserve" y="1181.1051" clip-path="url(#clipPath2)" stroke="none">akkreditiv</text>
    </g>
    <g stroke-linecap="butt" transform="matrix(2,0,0,2,-3406,-2084)" fill="gray" text-rendering="geometricPrecision" shape-rendering="geometricPrecision" stroke="gray" stroke-miterlimit="1.45">
      <rect fill="none" x="1869.9579" width="75" height="25" y="1050.7707" clip-path="url(#clipPath2)"/>
    </g>
    <g stroke-linecap="butt" font-size="13px" transform="matrix(2,0,0,2,-3406,-2084)" fill="rgb(148,0,39)" text-rendering="geometricPrecision" shape-rendering="geometricPrecision" stroke="rgb(148,0,39)" font-weight="bold" stroke-miterlimit="1.45">
      <text x="1879.1346" xml:space="preserve" y="1068.3391" clip-path="url(#clipPath2)" stroke="none">identitet</text>
    </g>
    <g stroke-linecap="butt" transform="matrix(2,0,0,2,-3406,-2084)" fill="gray" text-rendering="geometricPrecision" shape-rendering="geometricPrecision" stroke="gray" stroke-miterlimit="1.45">
      <path fill="none" d="M1872.4194 1176.0367 L1812.4579 1176.0367 L1808.0829 1175.4117 L1804.9579 1173.5367 L1803.0829 1170.4117 L1802.4579 1166.0367 L1802.4579 1131.0156" clip-path="url(#clipPath2)"/>
    </g>
    <g stroke-linecap="butt" font-size="10px" transform="matrix(2,0,0,2,-3406,-2084)" fill="rgb(148,0,39)" text-rendering="geometricPrecision" shape-rendering="geometricPrecision" stroke="rgb(148,0,39)" font-weight="bold" stroke-miterlimit="1.45">
      <text x="1745.5879" xml:space="preserve" y="1148.6896" clip-path="url(#clipPath2)" stroke="none">anvender</text>
    </g>
    <g stroke-linecap="butt" transform="matrix(2,0,0,2,-3406,-2084)" fill="gray" text-rendering="geometricPrecision" shape-rendering="geometricPrecision" stroke="gray" stroke-miterlimit="1.45">
      <path fill="none" d="M1802.4579 1106.0066 L1802.4579 1073.2708 L1803.0829 1068.8958 L1804.9579 1065.7708 L1808.0829 1063.8958 L1812.4579 1063.2708 L1869.9542 1063.2708" clip-path="url(#clipPath2)"/>
    </g>
    <g stroke-linecap="butt" font-size="10px" transform="matrix(2,0,0,2,-3406,-2084)" fill="rgb(148,0,39)" text-rendering="geometricPrecision" shape-rendering="geometricPrecision" stroke="rgb(148,0,39)" font-weight="bold" stroke-miterlimit="1.45">
      <text x="1713.2577" xml:space="preserve" y="1080.0059" clip-path="url(#clipPath2)" stroke="none">registreres med </text>
      <text x="1730.7626" xml:space="preserve" y="1091.7832" clip-path="url(#clipPath2)" stroke="none">(tildeles?)</text>
    </g>
    <g stroke-linecap="butt" transform="matrix(2,0,0,2,-3406,-2084)" fill="gray" text-rendering="geometricPrecision" shape-rendering="geometricPrecision" stroke="gray" stroke-miterlimit="1.45">
      <path fill="none" d="M1909.6335 1163.5103 L1907.7288 1075.7517" clip-path="url(#clipPath2)"/>
    </g>
    <g stroke-linecap="butt" font-size="10px" transform="matrix(2,0,0,2,-3406,-2084)" fill="rgb(148,0,39)" text-rendering="geometricPrecision" shape-rendering="geometricPrecision" stroke="rgb(148,0,39)" font-weight="bold" stroke-miterlimit="1.45">
      <text x="1921.751" xml:space="preserve" y="1117.5443" clip-path="url(#clipPath2)" stroke="none">associeres </text>
      <text x="1911.8462" xml:space="preserve" y="1129.3217" clip-path="url(#clipPath2)" stroke="none">(er knytter til?)</text>
    </g>
  </g>
</svg>
