<?xml version="1.0" encoding="UTF-8"?><svg xmlns="http://www.w3.org/2000/svg" xmlns:xlink="http://www.w3.org/1999/xlink" fill-opacity="1" color-rendering="auto" color-interpolation="auto" text-rendering="auto" stroke="black" stroke-linecap="square" width="540" stroke-miterlimit="10" shape-rendering="auto" stroke-opacity="1" fill="black" stroke-dasharray="none" font-weight="normal" stroke-width="1" height="176" font-family="'Dialog'" font-style="normal" stroke-linejoin="miter" font-size="12px" stroke-dashoffset="0" image-rendering="auto">
  <!--Generated by ySVG 2.5-->
  <defs id="genericDefs"/>
  <g>
    <defs id="defs1">
      <clipPath clipPathUnits="userSpaceOnUse" id="clipPath1">
        <path d="M0 0 L540 0 L540 176 L0 176 L0 0 Z"/>
      </clipPath>
      <clipPath clipPathUnits="userSpaceOnUse" id="clipPath2">
        <path d="M-153 40 L387 40 L387 216 L-153 216 L-153 40 Z"/>
      </clipPath>
    </defs>
    <g fill="white" text-rendering="geometricPrecision" shape-rendering="geometricPrecision" transform="translate(153,-40)" stroke="white">
      <rect x="-153" width="540" height="176" y="40" clip-path="url(#clipPath2)" stroke="none"/>
    </g>
    <g stroke-linecap="butt" transform="matrix(1,0,0,1,153,-40)" fill="gray" text-rendering="geometricPrecision" shape-rendering="geometricPrecision" stroke="gray" stroke-miterlimit="1.45">
      <rect fill="none" x="0" width="75" height="25" y="115.0859" clip-path="url(#clipPath2)"/>
    </g>
    <g stroke-linecap="butt" transform="matrix(1,0,0,1,153,-40)" fill="rgb(148,0,39)" text-rendering="geometricPrecision" font-family="'Arial'" shape-rendering="geometricPrecision" stroke="rgb(148,0,39)" font-weight="bold" stroke-miterlimit="1.45">
      <text x="19.5" xml:space="preserve" y="130.9492" clip-path="url(#clipPath2)" stroke="none">entitet</text>
    </g>
    <g stroke-linecap="butt" transform="matrix(1,0,0,1,153,-40)" fill="gray" text-rendering="geometricPrecision" shape-rendering="geometricPrecision" stroke="gray" stroke-miterlimit="1.45">
      <rect fill="none" x="-132.4298" width="75" height="25" y="155.0859" clip-path="url(#clipPath2)"/>
    </g>
    <g stroke-linecap="butt" transform="matrix(1,0,0,1,153,-40)" fill="rgb(148,0,39)" text-rendering="geometricPrecision" font-family="'Arial'" shape-rendering="geometricPrecision" stroke="rgb(148,0,39)" font-weight="bold" stroke-miterlimit="1.45">
      <text x="-122.9464" xml:space="preserve" y="170.9492" clip-path="url(#clipPath2)" stroke="none">akkreditiv</text>
    </g>
    <g stroke-linecap="butt" transform="matrix(1,0,0,1,153,-40)" fill="gray" text-rendering="geometricPrecision" shape-rendering="geometricPrecision" stroke="gray" stroke-miterlimit="1.45">
      <rect fill="none" x="-137.6256" width="75" height="25" y="75.0859" clip-path="url(#clipPath2)"/>
    </g>
    <g stroke-linecap="butt" transform="matrix(1,0,0,1,153,-40)" fill="rgb(148,0,39)" text-rendering="geometricPrecision" font-family="'Arial'" shape-rendering="geometricPrecision" stroke="rgb(148,0,39)" font-weight="bold" stroke-miterlimit="1.45">
      <text x="-123.4576" xml:space="preserve" y="90.9492" clip-path="url(#clipPath2)" stroke="none">identitet</text>
    </g>
    <g stroke-linecap="butt" transform="matrix(1,0,0,1,153,-40)" fill="gray" text-rendering="geometricPrecision" shape-rendering="geometricPrecision" stroke="gray" stroke-miterlimit="1.45">
      <rect fill="none" x="127" width="75" height="25" y="75.0859" clip-path="url(#clipPath2)"/>
    </g>
    <g stroke-linecap="butt" transform="matrix(1,0,0,1,153,-40)" fill="rgb(148,0,39)" text-rendering="geometricPrecision" font-family="'Arial'" shape-rendering="geometricPrecision" stroke="rgb(148,0,39)" font-weight="bold" stroke-miterlimit="1.45">
      <text x="143.4941" xml:space="preserve" y="90.9492" clip-path="url(#clipPath2)" stroke="none">subjekt</text>
    </g>
    <g stroke-linecap="butt" transform="matrix(1,0,0,1,153,-40)" fill="gray" text-rendering="geometricPrecision" shape-rendering="geometricPrecision" stroke="gray" stroke-miterlimit="1.45">
      <rect fill="none" x="127" width="75" height="25" y="155.0859" clip-path="url(#clipPath2)"/>
    </g>
    <g stroke-linecap="butt" transform="matrix(1,0,0,1,153,-40)" fill="rgb(148,0,39)" text-rendering="geometricPrecision" font-family="'Arial'" shape-rendering="geometricPrecision" stroke="rgb(148,0,39)" font-weight="bold" stroke-miterlimit="1.45">
      <text x="146.8311" xml:space="preserve" y="170.9492" clip-path="url(#clipPath2)" stroke="none">objekt</text>
    </g>
    <g stroke-linecap="butt" transform="matrix(1,0,0,1,153,-40)" fill="gray" text-rendering="geometricPrecision" shape-rendering="geometricPrecision" stroke="gray" stroke-miterlimit="1.45">
      <rect fill="none" x="270.0109" width="99.1063" height="25" y="135.0859" clip-path="url(#clipPath2)"/>
    </g>
    <g stroke-linecap="butt" transform="matrix(1,0,0,1,153,-40)" fill="rgb(148,0,39)" text-rendering="geometricPrecision" font-family="'Arial'" shape-rendering="geometricPrecision" stroke="rgb(148,0,39)" font-weight="bold" stroke-miterlimit="1.45">
      <text x="279.8785" xml:space="preserve" y="150.9492" clip-path="url(#clipPath2)" stroke="none">fysiske objekt</text>
    </g>
    <g stroke-linecap="butt" transform="matrix(1,0,0,1,153,-40)" fill="gray" text-rendering="geometricPrecision" shape-rendering="geometricPrecision" stroke="gray" stroke-miterlimit="1.45">
      <rect fill="none" x="270.0109" width="99.1063" height="25" y="175.0859" clip-path="url(#clipPath2)"/>
    </g>
    <g stroke-linecap="butt" transform="matrix(1,0,0,1,153,-40)" fill="rgb(148,0,39)" text-rendering="geometricPrecision" font-family="'Arial'" shape-rendering="geometricPrecision" stroke="rgb(148,0,39)" font-weight="bold" stroke-miterlimit="1.45">
      <text x="282.2222" xml:space="preserve" y="190.9492" clip-path="url(#clipPath2)" stroke="none">virtual objekt</text>
    </g>
    <g stroke-linecap="butt" transform="matrix(1,0,0,1,153,-40)" fill="gray" text-rendering="geometricPrecision" shape-rendering="geometricPrecision" stroke="gray" stroke-miterlimit="1.45">
      <rect fill="none" x="272.6323" width="99.1063" height="25" y="95.0859" clip-path="url(#clipPath2)"/>
    </g>
    <g stroke-linecap="butt" transform="matrix(1,0,0,1,153,-40)" fill="rgb(148,0,39)" text-rendering="geometricPrecision" font-family="'Arial'" shape-rendering="geometricPrecision" stroke="rgb(148,0,39)" font-weight="bold" stroke-miterlimit="1.45">
      <text x="282.8339" xml:space="preserve" y="110.9492" clip-path="url(#clipPath2)" stroke="none">virksomheder</text>
    </g>
    <g stroke-linecap="butt" transform="matrix(1,0,0,1,153,-40)" fill="gray" text-rendering="geometricPrecision" shape-rendering="geometricPrecision" stroke="gray" stroke-miterlimit="1.45">
      <rect fill="none" x="272.6323" width="99.1063" height="25" y="55.0859" clip-path="url(#clipPath2)"/>
    </g>
    <g stroke-linecap="butt" transform="matrix(1,0,0,1,153,-40)" fill="rgb(148,0,39)" text-rendering="geometricPrecision" font-family="'Arial'" shape-rendering="geometricPrecision" stroke="rgb(148,0,39)" font-weight="bold" stroke-miterlimit="1.45">
      <text x="296.5097" xml:space="preserve" y="70.9492" clip-path="url(#clipPath2)" stroke="none">personer</text>
    </g>
    <g stroke-linecap="butt" transform="matrix(1,0,0,1,153,-40)" fill="gray" text-rendering="geometricPrecision" shape-rendering="geometricPrecision" stroke="gray" stroke-miterlimit="1.45">
      <path fill="none" d="M-57.4576 167.5859 L27.5 167.5859 L31.875 166.9609 L35 165.0859 L36.875 161.9609 L37.5 157.5859 L37.5 140.0798" clip-path="url(#clipPath2)"/>
    </g>
    <g stroke-linecap="butt" font-size="10px" transform="matrix(1,0,0,1,153,-40)" fill="rgb(148,0,39)" text-rendering="geometricPrecision" font-family="'Arial'" shape-rendering="geometricPrecision" stroke="rgb(148,0,39)" font-weight="bold" stroke-miterlimit="1.45">
      <text x="-17.5806" xml:space="preserve" y="161.0527" clip-path="url(#clipPath2)" stroke="none">anvender</text>
    </g>
    <g stroke-linecap="butt" transform="matrix(1,0,0,1,153,-40)" fill="gray" text-rendering="geometricPrecision" shape-rendering="geometricPrecision" stroke="gray" stroke-miterlimit="1.45">
      <path fill="none" d="M36.6608 115.092 L36.0728 97.5803 L35.301 93.2078 L33.3212 90.0845 L30.1333 88.2106 L25.7373 87.5859 L-62.6107 87.5859" clip-path="url(#clipPath2)"/>
    </g>
    <g stroke-linecap="butt" font-size="10px" transform="matrix(1,0,0,1,153,-40)" fill="rgb(148,0,39)" text-rendering="geometricPrecision" font-family="'Arial'" shape-rendering="geometricPrecision" stroke="rgb(148,0,39)" font-weight="bold" stroke-miterlimit="1.45">
      <text x="-45.0801" xml:space="preserve" y="100.6387" clip-path="url(#clipPath2)" stroke="none">registreres med </text>
      <text x="-29.7847" xml:space="preserve" y="111.8105" clip-path="url(#clipPath2)" stroke="none">(tildeles?)</text>
    </g>
    <g stroke-linecap="butt" transform="matrix(1,0,0,1,153,-40)" fill="gray" text-rendering="geometricPrecision" shape-rendering="geometricPrecision" stroke="gray" stroke-miterlimit="1.45">
      <path fill="none" d="M-100.1256 155.095 L-100.1256 100.0791" clip-path="url(#clipPath2)"/>
    </g>
    <g stroke-linecap="butt" font-size="10px" transform="matrix(1,0,0,1,153,-40)" fill="rgb(148,0,39)" text-rendering="geometricPrecision" font-family="'Arial'" shape-rendering="geometricPrecision" stroke="rgb(148,0,39)" font-weight="bold" stroke-miterlimit="1.45">
      <text x="-127.3693" xml:space="preserve" y="134.7949" clip-path="url(#clipPath2)" stroke="none">associeres </text>
      <text x="-135.1305" xml:space="preserve" y="145.9668" clip-path="url(#clipPath2)" stroke="none">(er knytter til?)</text>
    </g>
    <g stroke-linecap="butt" transform="matrix(1,0,0,1,153,-40)" fill="gray" text-rendering="geometricPrecision" shape-rendering="geometricPrecision" stroke="gray" stroke-miterlimit="1.45">
      <path fill="none" d="M126.9963 87.5859 L119.4982 87.5859 L116.2177 88.2109 L113.8745 90.0859 L112.4686 93.2109 L112 97.5859 L112 117.5859 L111.375 121.9609 L109.5 125.0859 L106.375 126.9609 L102 127.5859 L90.0361 127.5859" clip-path="url(#clipPath2)"/>
      <path fill="white" d="M75.0361 127.5859 L91.0361 133.5859 L91.0361 121.5859 Z" clip-path="url(#clipPath2)" stroke="none"/>
      <path fill="none" d="M75.0361 127.5859 L91.0361 133.5859 L91.0361 121.5859 Z" clip-path="url(#clipPath2)"/>
      <path fill="none" d="M126.9963 167.5859 L119.4982 167.5859 L116.2177 166.9609 L113.8745 165.0859 L112.4686 161.9609 L112 157.5859 L112 137.5859 L111.375 133.2109 L109.5 130.0859 L106.375 128.2109 L102 127.5859 L90.0361 127.5859" clip-path="url(#clipPath2)"/>
      <path fill="white" d="M75.0361 127.5859 L91.0361 133.5859 L91.0361 121.5859 Z" clip-path="url(#clipPath2)" stroke="none"/>
      <path fill="none" d="M75.0361 127.5859 L91.0361 133.5859 L91.0361 121.5859 Z" clip-path="url(#clipPath2)"/>
      <path fill="none" d="M270.0453 147.5859 L248.6269 147.5859 L244.2519 148.2109 L241.1269 150.0859 L239.2519 153.2109 L238.6269 157.5859 L238.6269 157.5859 L238.0019 161.9609 L236.1269 165.0859 L233.0019 166.9609 L228.6269 167.5859 L217.034 167.5859" clip-path="url(#clipPath2)"/>
      <path fill="white" d="M202.034 167.5859 L218.034 173.5859 L218.034 161.5859 Z" clip-path="url(#clipPath2)" stroke="none"/>
      <path fill="none" d="M202.034 167.5859 L218.034 173.5859 L218.034 161.5859 Z" clip-path="url(#clipPath2)"/>
      <path fill="none" d="M270.0453 187.5859 L248.6269 187.5859 L244.2519 186.9609 L241.1269 185.0859 L239.2519 181.9609 L238.6269 177.5859 L238.6269 177.5859 L238.0019 173.2109 L236.1269 170.0859 L233.0019 168.2109 L228.6269 167.5859 L217.034 167.5859" clip-path="url(#clipPath2)"/>
      <path fill="white" d="M202.034 167.5859 L218.034 173.5859 L218.034 161.5859 Z" clip-path="url(#clipPath2)" stroke="none"/>
      <path fill="none" d="M202.034 167.5859 L218.034 173.5859 L218.034 161.5859 Z" clip-path="url(#clipPath2)"/>
      <path fill="none" d="M272.6133 107.5859 L248.6269 107.5859 L244.2519 106.9609 L241.1269 105.0859 L239.2519 101.9609 L238.6269 97.5859 L238.6269 97.5859 L238.0019 93.2109 L236.1269 90.0859 L233.0019 88.2109 L228.6269 87.5859 L217.034 87.5859" clip-path="url(#clipPath2)"/>
      <path fill="white" d="M202.034 87.5859 L218.034 93.5859 L218.034 81.5859 Z" clip-path="url(#clipPath2)" stroke="none"/>
      <path fill="none" d="M202.034 87.5859 L218.034 93.5859 L218.034 81.5859 Z" clip-path="url(#clipPath2)"/>
      <path fill="none" d="M272.6133 67.5859 L248.6269 67.5859 L244.2519 68.2109 L241.1269 70.0859 L239.2519 73.2109 L238.6269 77.5859 L238.6269 77.5859 L238.0019 81.9609 L236.1269 85.0859 L233.0019 86.9609 L228.6269 87.5859 L217.034 87.5859" clip-path="url(#clipPath2)"/>
      <path fill="white" d="M202.034 87.5859 L218.034 93.5859 L218.034 81.5859 Z" clip-path="url(#clipPath2)" stroke="none"/>
      <path fill="none" d="M202.034 87.5859 L218.034 93.5859 L218.034 81.5859 Z" clip-path="url(#clipPath2)"/>
    </g>
  </g>
</svg>
