<?xml version="1.0" encoding="UTF-8"?><svg xmlns="http://www.w3.org/2000/svg" xmlns:xlink="http://www.w3.org/1999/xlink" fill-opacity="1" color-rendering="auto" color-interpolation="auto" text-rendering="auto" stroke="black" stroke-linecap="square" width="518" stroke-miterlimit="10" shape-rendering="auto" stroke-opacity="1" fill="black" stroke-dasharray="none" font-weight="normal" stroke-width="1" height="264" font-family="'Dialog'" font-style="normal" stroke-linejoin="miter" font-size="12px" stroke-dashoffset="0" image-rendering="auto">
  <!--Generated by ySVG 2.5-->
  <defs id="genericDefs"/>
  <g>
    <g fill="white" text-rendering="geometricPrecision" shape-rendering="geometricPrecision" transform="translate(-10,1)" stroke="white">
      <rect x="10" width="518" height="264" y="-1" clip-path="url(#clipPath2)" stroke="none"/>
    </g>
    <g stroke-linecap="butt" transform="matrix(1,0,0,1,-10,1)" fill="gray" text-rendering="geometricPrecision" shape-rendering="geometricPrecision" stroke-dasharray="6,2" stroke="gray" stroke-miterlimit="1.45">
      <rect x="121.4414" y="166.4186" clip-path="url(#clipPath2)" fill="none" width="157.235" rx="4" ry="4" height="80.8889"/>
    </g>
    <g stroke-linecap="butt" font-size="10px" transform="matrix(1,0,0,1,-10,1)" fill="rgb(51,102,255)" text-rendering="geometricPrecision" font-family="'Calibri'" shape-rendering="geometricPrecision" stroke="rgb(51,102,255)" stroke-miterlimit="1.45">
      <text x="197.442" xml:space="preserve" y="238.8074" clip-path="url(#clipPath2)" stroke="none">tjenesteudbyder A</text>
    </g>
    <g stroke-linecap="butt" transform="matrix(1,0,0,1,-10,1)" fill="gray" text-rendering="geometricPrecision" shape-rendering="geometricPrecision" stroke="gray" stroke-miterlimit="1.45">
      <rect x="147.4991" y="194.363" clip-path="url(#clipPath2)" fill="none" width="105.1195" rx="4" ry="4" height="25"/>
    </g>
    <g stroke-linecap="butt" font-size="10px" transform="matrix(1,0,0,1,-10,1)" fill="rgb(51,102,255)" text-rendering="geometricPrecision" font-family="'Calibri'" shape-rendering="geometricPrecision" stroke="rgb(51,102,255)" font-weight="bold" stroke-miterlimit="1.45">
      <text x="160.0515" xml:space="preserve" y="209.363" clip-path="url(#clipPath2)" stroke="none">forretningstjeneste</text>
    </g>
    <g text-rendering="geometricPrecision" shape-rendering="geometricPrecision" transform="matrix(0.4914,0,0,0.5809,14.9582,126.2002)">
      <g clip-path="url(#clipPath3)">
        <svg xmlns:svg="http://www.w3.org/2000/svg" xmlns:sodipodi="http://sodipodi.sourceforge.net/DTD/sodipodi-0.dtd" xmlns:inkscape="http://www.inkscape.org/namespaces/inkscape" xmlns:dc="http://purl.org/dc/elements/1.1/" xmlns:cc="http://web.resource.org/cc/" xmlns:rdf="http://www.w3.org/1999/02/22-rdf-syntax-ns#" opacity="1" writing-mode="lr-tb" stop-color="rgb(0, 0, 0)" shape-rendering="auto" glyph-orientation-horizontal="0deg" color-profile="auto" lighting-color="rgb(255, 255, 255)" color="rgb(0, 0, 0)" font-weight="400" alignment-baseline="auto" font-style="normal" version="1.0" color-interpolation-filters="linearrgb" text-anchor="start" stroke-linecap="butt" color-interpolation="srgb" font-variant="normal" word-spacing="normal" fill-opacity="1" text-rendering="auto" clip-path="none" text-decoration="none" letter-spacing="normal" glyph-orientation-vertical="auto" display="inline" font-size-adjust="none" overflow="hidden" fill="rgb(0, 0, 0)" font-stretch="normal" stroke-dasharray="none" inkscape:version="0.45.1" id="svg1.svg2" stroke-miterlimit="4" stop-opacity="1" color-rendering="auto" font-size="12" sodipodi:docbase="C:\Daten\alberts\projects\yfx" pointer-events="visiblepainted" mask="none" direction="ltr" baseline-shift="baseline" sodipodi:docname="uml_actor.svg" enable-background="accumulate" fill-rule="nonzero" image-rendering="auto" stroke-dashoffset="0" inkscape:output_extension="org.inkscape.output.svg.inkscape" marker-end="none" width="41" clip="auto" cursor="auto" stroke="none" filter="none" visibility="visible" kerning="auto" stroke-width="1" font-family="&quot;Arial&quot;,&quot;Helvetica&quot;,sans-serif" flood-opacity="1" clip-rule="nonzero" src="none" height="68.997391" unicode-bidi="normal" sodipodi:version="0.32" stroke-linejoin="miter" stroke-opacity="1" flood-color="rgb(0, 0, 0)" dominant-baseline="auto" marker-start="none" marker-mid="none">
            
          <defs id="svg1.defs4">
            <clipPath clipPathUnits="userSpaceOnUse" id="clipPath1">
              <path d="M0 0 L518 0 L518 264 L0 264 L0 0 Z"/>
            </clipPath>
            <clipPath clipPathUnits="userSpaceOnUse" id="clipPath2">
              <path d="M10 -1 L528 -1 L528 263 L10 263 L10 -1 Z"/>
            </clipPath>
            <clipPath clipPathUnits="userSpaceOnUse" id="clipPath3">
              <path d="M-30.4378 -217.2406 L1023.616 -217.2406 L1023.616 237.2083 L-30.4378 237.2083 L-30.4378 -217.2406 Z"/>
            </clipPath>
          </defs>
            
  
          <metadata id="svg1.metadata7">
    
  </metadata>
            
          <g inkscape:groupmode="layer" id="svg1.layer1" transform="translate(-29.5,-42.959476)" inkscape:label="Ebene 1">
                
            <a id="svg1.a3142" transform="matrix(1.0873906,0,0,1,-4.4741999,0)">
                    
              <path transform="translate(11.586889,5.2908993)" style="fill:none;fill-rule:evenodd;stroke:#000000;stroke-width:1px;stroke-linecap:butt;stroke-linejoin:miter;stroke-opacity:1" sodipodi:cx="38.509369" sodipodi:cy="47.36993" sodipodi:rx="8.5197716" id="svg1.path2160" d="M 47.02914 47.36993 A 8.5197716 9.2013531 0 1 1  29.989597,47.36993 A 8.5197716 9.2013531 0 1 1  47.02914 47.36993 z" sodipodi:ry="9.2013531" sodipodi:type="arc"/>
                  
            </a>
                
            <path style="fill:none" sodipodi:cx="43.962021" sodipodi:cy="48.392303" d="M 47.71072 48.392303 A 3.7486994 0 0 1 1  40.213321,48.392303 A 3.7486994 0 0 1 1  47.71072 48.392303 z" id="svg1.path3134" sodipodi:rx="3.7486994" sodipodi:ry="0" sodipodi:type="arc"/>
                
            <path style="fill:none;fill-rule:evenodd;stroke:#000000;stroke-width:1.24319649px;stroke-linecap:butt;stroke-linejoin:miter;stroke-opacity:1" d="M 50,61.33709 C 50,91.363211 50,92.247838 50,92.247838" id="svg1.path3136"/>
                
            <path style="fill:none;fill-rule:evenodd;stroke:#000000;stroke-width:1px;stroke-linecap:butt;stroke-linejoin:miter;stroke-opacity:1" d="M 69.760668,72.362183 C 69.760668,72.362183 69.760668,72.362183 50.239332,72.362183 C 30.239332,72.362183 30.239332,72.362183 30.239332,72.362183 L 30.239332,72.362183" id="svg1.path3138"/>
                
            <path style="fill:none;fill-rule:evenodd;stroke:#000000;stroke-width:1px;stroke-linecap:butt;stroke-linejoin:miter;stroke-opacity:1" d="M 30,111.45687 C 30,111.45687 30,111.45687 50,92.013532 C 70,111.45687 70,111.45687 70,111.45687" id="svg1.path3140"/>
              
          </g>
          
        </svg>
      </g>
    </g>
    <g stroke-linecap="butt" transform="matrix(1,0,0,1,-10,1)" fill="gray" text-rendering="geometricPrecision" shape-rendering="geometricPrecision" stroke-dasharray="6,2" stroke="gray" stroke-miterlimit="1.45">
      <rect x="355.0851" y="166.4186" clip-path="url(#clipPath2)" fill="none" width="157.235" rx="4" ry="4" height="80.8889"/>
    </g>
    <g stroke-linecap="butt" font-size="10px" transform="matrix(1,0,0,1,-10,1)" fill="rgb(51,102,255)" text-rendering="geometricPrecision" font-family="'Calibri'" shape-rendering="geometricPrecision" stroke="rgb(51,102,255)" stroke-miterlimit="1.45">
      <text x="431.4324" xml:space="preserve" y="238.8074" clip-path="url(#clipPath2)" stroke="none">tjenesteudbyder B</text>
    </g>
    <g stroke-linecap="butt" transform="matrix(1,0,0,1,-10,1)" fill="gray" text-rendering="geometricPrecision" shape-rendering="geometricPrecision" stroke="gray" stroke-miterlimit="1.45">
      <rect x="381.1428" y="194.363" clip-path="url(#clipPath2)" fill="none" width="105.1195" rx="4" ry="4" height="25"/>
    </g>
    <g stroke-linecap="butt" font-size="10px" transform="matrix(1,0,0,1,-10,1)" fill="rgb(51,102,255)" text-rendering="geometricPrecision" font-family="'Calibri'" shape-rendering="geometricPrecision" stroke="rgb(51,102,255)" font-weight="bold" stroke-miterlimit="1.45">
      <text x="393.6953" xml:space="preserve" y="209.363" clip-path="url(#clipPath2)" stroke="none">forretningstjeneste</text>
    </g>
    <g fill="rgb(148,0,39)" text-rendering="geometricPrecision" shape-rendering="geometricPrecision" transform="matrix(1,0,0,1,-10,1)" stroke="rgb(148,0,39)">
      <path d="M122.9609 231.3442 L125.3332 226.7395 L130.2668 228.318 L128.6883 223.3844 L133.2931 221.0121 L128.6883 218.6397 L130.2668 213.7061 L125.3332 215.2846 L122.9609 210.6799 L120.5885 215.2846 L115.6549 213.7061 L117.2334 218.6397 L112.6287 221.0121 L117.2334 223.3844 L115.6549 228.318 L120.5885 226.7395 Z" fill-rule="evenodd" clip-path="url(#clipPath2)" stroke="none"/>
      <path d="M356.7342 231.3442 L359.1065 226.7395 L364.0401 228.318 L362.4616 223.3844 L367.0664 221.0121 L362.4616 218.6397 L364.0401 213.7061 L359.1065 215.2846 L356.7342 210.6799 L354.3618 215.2846 L349.4282 213.7061 L351.0067 218.6397 L346.402 221.0121 L351.0067 223.3844 L349.4282 228.318 L354.3618 226.7395 Z" clip-path="url(#clipPath2)" fill-rule="evenodd" stroke="none"/>
    </g>
    <g stroke-linecap="butt" transform="matrix(1,0,0,1,-10,1)" fill="gray" text-rendering="geometricPrecision" shape-rendering="geometricPrecision" stroke-dasharray="6,2" stroke="gray" stroke-miterlimit="1.45">
      <rect x="121.4414" y="14.4128" clip-path="url(#clipPath2)" fill="none" width="278.0069" rx="4" ry="4" height="77.481"/>
    </g>
    <g stroke-linecap="butt" font-size="10px" transform="matrix(1,0,0,1,-10,1)" fill="rgb(148,0,39)" text-rendering="geometricPrecision" font-family="'Calibri'" shape-rendering="geometricPrecision" stroke="rgb(148,0,39)" stroke-miterlimit="1.45">
      <text x="127.4414" xml:space="preserve" y="27.9128" clip-path="url(#clipPath2)" stroke="none">tillidstjeneste </text>
    </g>
    <g fill="white" text-rendering="geometricPrecision" shape-rendering="geometricPrecision" transform="matrix(1,0,0,1,-10,1)" stroke="white">
      <rect x="147.4991" y="46.1165" clip-path="url(#clipPath2)" width="105.1195" rx="4" ry="4" height="36.2192" stroke="none"/>
    </g>
    <g stroke-linecap="butt" transform="matrix(1,0,0,1,-10,1)" fill="gray" text-rendering="geometricPrecision" shape-rendering="geometricPrecision" stroke="gray" stroke-miterlimit="1.45">
      <rect x="147.4991" y="46.1165" clip-path="url(#clipPath2)" fill="none" width="105.1195" rx="4" ry="4" height="36.2192"/>
    </g>
    <g stroke-linecap="butt" font-size="10px" transform="matrix(1,0,0,1,-10,1)" fill="rgb(148,0,39)" text-rendering="geometricPrecision" font-family="'Calibri'" shape-rendering="geometricPrecision" stroke="rgb(148,0,39)" font-weight="bold" stroke-miterlimit="1.45">
      <text x="167.3098" xml:space="preserve" y="61.7261" clip-path="url(#clipPath2)" stroke="none">Autentifikation </text>
      <text x="177.2586" xml:space="preserve" y="71.7261" clip-path="url(#clipPath2)" stroke="none">(SAML IdP)</text>
    </g>
    <g fill="white" text-rendering="geometricPrecision" shape-rendering="geometricPrecision" transform="matrix(1,0,0,1,-10,1)" stroke="white">
      <rect x="272.1861" y="46.1165" clip-path="url(#clipPath2)" width="105.1195" rx="4" ry="4" height="36.2192" stroke="none"/>
    </g>
    <g stroke-linecap="butt" transform="matrix(1,0,0,1,-10,1)" fill="gray" text-rendering="geometricPrecision" shape-rendering="geometricPrecision" stroke="gray" stroke-miterlimit="1.45">
      <rect x="272.1861" y="46.1165" clip-path="url(#clipPath2)" fill="none" width="105.1195" rx="4" ry="4" height="36.2192"/>
    </g>
    <g stroke-linecap="butt" font-size="10px" transform="matrix(1,0,0,1,-10,1)" fill="rgb(153,153,153)" text-rendering="geometricPrecision" font-family="'Calibri'" shape-rendering="geometricPrecision" stroke="rgb(153,153,153)" font-weight="bold" stroke-miterlimit="1.45">
      <text x="294.0647" xml:space="preserve" y="61.7261" clip-path="url(#clipPath2)" stroke="none">Tokenveksling </text>
      <text x="294.2087" xml:space="preserve" y="71.7261" clip-path="url(#clipPath2)" stroke="none">(WS-Trust STS)</text>
    </g>
    <g transform="matrix(1,0,0,1,-10,1)" fill-opacity="0.902" fill="rgb(255,255,255)" text-rendering="geometricPrecision" shape-rendering="geometricPrecision" stroke="rgb(255,255,255)" stroke-opacity="0.902">
      <rect x="147.4991" y="118.552" clip-path="url(#clipPath2)" width="66" rx="4" ry="4" height="33" stroke="none"/>
    </g>
    <g stroke-linecap="butt" font-size="10px" transform="matrix(1,0,0,1,-10,1)" fill="gray" text-rendering="geometricPrecision" shape-rendering="geometricPrecision" font-style="italic" stroke="gray" stroke-miterlimit="1.45">
      <text x="168.5558" xml:space="preserve" y="138.9802" clip-path="url(#clipPath2)" stroke="none">(T, b)</text>
    </g>
    <g transform="matrix(1,0,0,1,-10,1)" fill-opacity="0.902" fill="rgb(255,255,255)" text-rendering="geometricPrecision" shape-rendering="geometricPrecision" stroke="rgb(255,255,255)" stroke-opacity="0.902">
      <rect x="227.4448" y="112.6562" clip-path="url(#clipPath2)" width="66" rx="4" ry="4" height="33" stroke="none"/>
    </g>
    <g stroke-linecap="butt" font-size="10px" transform="matrix(1,0,0,1,-10,1)" fill="gray" text-rendering="geometricPrecision" shape-rendering="geometricPrecision" font-style="italic" stroke="gray" stroke-miterlimit="1.45">
      <text x="252.0608" xml:space="preserve" y="128.7099" clip-path="url(#clipPath2)" stroke="none">b</text>
    </g>
    <g transform="matrix(1,0,0,1,-10,1)" fill-opacity="0.902" fill="rgb(255,255,255)" text-rendering="geometricPrecision" shape-rendering="geometricPrecision" stroke="rgb(255,255,255)" stroke-opacity="0.902">
      <rect x="266.9309" y="131.363" clip-path="url(#clipPath2)" width="66" rx="4" ry="4" height="33" stroke="none"/>
    </g>
    <g stroke-linecap="butt" font-size="10px" transform="matrix(1,0,0,1,-10,1)" fill="gray" text-rendering="geometricPrecision" shape-rendering="geometricPrecision" font-style="italic" stroke="gray" stroke-miterlimit="1.45">
      <text x="295.9221" xml:space="preserve" y="135.2912" clip-path="url(#clipPath2)" stroke="none">T'</text>
    </g>
    <g transform="matrix(1,0,0,1,-10,1)" fill-opacity="0.902" fill="rgb(255,255,255)" text-rendering="geometricPrecision" shape-rendering="geometricPrecision" stroke="rgb(255,255,255)" stroke-opacity="0.902">
      <rect x="289.0851" y="181.552" clip-path="url(#clipPath2)" width="66" rx="4" ry="4" height="33" stroke="none"/>
    </g>
    <g stroke-linecap="butt" font-size="10px" transform="matrix(1,0,0,1,-10,1)" fill="gray" text-rendering="geometricPrecision" shape-rendering="geometricPrecision" font-style="italic" stroke="gray" stroke-miterlimit="1.45">
      <text x="312.473" xml:space="preserve" y="197.6057" clip-path="url(#clipPath2)" stroke="none">T'</text>
    </g>
    <g text-rendering="geometricPrecision" stroke-miterlimit="1.45" shape-rendering="geometricPrecision" transform="matrix(1,0,0,1,-10,1)" stroke-linecap="butt">
      <path fill="none" d="M45.0547 150.695 L140.4843 203.017" clip-path="url(#clipPath2)"/>
      <path d="M147.4991 206.863 L139.3807 196.7097 L139.6074 202.5362 L134.5731 205.4782 Z" clip-path="url(#clipPath2)" stroke="none"/>
      <path fill="none" d="M252.623 206.863 L373.1382 206.863" clip-path="url(#clipPath2)"/>
      <path d="M381.1382 206.863 L369.1382 201.863 L372.1382 206.863 L369.1382 211.863 Z" clip-path="url(#clipPath2)" stroke="none"/>
      <path fill="none" d="M45.0547 137.9845 L141.0068 68.9005" clip-path="url(#clipPath2)"/>
      <path d="M147.4991 64.2261 L134.8391 67.18 L140.1953 69.4848 L140.6821 75.2954 Z" clip-path="url(#clipPath2)" stroke="none"/>
      <path fill="none" d="M200.0589 82.3691 L200.0589 186.3711" clip-path="url(#clipPath2)"/>
      <path d="M200.0589 194.3711 L205.0589 182.3711 L200.0589 185.3711 L195.0589 182.3711 Z" clip-path="url(#clipPath2)" stroke="none"/>
      <path fill="none" d="M210.9872 194.3614 L303.6778 88.3271" clip-path="url(#clipPath2)"/>
      <path d="M308.9429 82.304 L297.2807 88.048 L303.0196 89.08 L304.8096 94.6294 Z" clip-path="url(#clipPath2)" stroke="none"/>
      <path fill="none" d="M308.886 82.3691 L216.2439 188.3479" clip-path="url(#clipPath2)"/>
      <path d="M210.9788 194.3711 L222.641 188.6271 L216.9021 187.595 L215.112 182.0457 Z" clip-path="url(#clipPath2)" stroke="none"/>
      <path fill="none" d="M308.886 82.3691 L216.2439 188.3479" clip-path="url(#clipPath2)"/>
      <path d="M210.9788 194.3711 L222.641 188.6271 L216.9021 187.595 L215.112 182.0457 Z" clip-path="url(#clipPath2)" stroke="none"/>
      <path fill="none" d="M308.886 82.3691 L216.2439 188.3479" clip-path="url(#clipPath2)"/>
      <path d="M210.9788 194.3711 L222.641 188.6271 L216.9021 187.595 L215.112 182.0457 Z" clip-path="url(#clipPath2)" stroke="none"/>
    </g>
  </g>
</svg>
