<?xml version="1.0" encoding="UTF-8"?><svg xmlns="http://www.w3.org/2000/svg" xmlns:xlink="http://www.w3.org/1999/xlink" fill-opacity="1" color-rendering="auto" color-interpolation="auto" text-rendering="auto" stroke="black" stroke-linecap="square" width="846" stroke-miterlimit="10" shape-rendering="auto" stroke-opacity="1" fill="black" stroke-dasharray="none" font-weight="normal" stroke-width="1" height="469" font-family="'Dialog'" font-style="normal" stroke-linejoin="miter" font-size="12px" stroke-dashoffset="0" image-rendering="auto">
  <!--Generated by ySVG 2.5-->
  <defs id="genericDefs"/>
  <g>
    <g fill="white" text-rendering="geometricPrecision" shape-rendering="geometricPrecision" transform="scale(1.5625,1.5625) translate(174,230)" stroke="white">
      <rect x="-174" width="542" height="301" y="-230" clip-path="url(#clipPath2)" stroke="none"/>
    </g>
    <g stroke-linecap="butt" transform="matrix(1.5625,0,0,1.5625,271.875,359.375)" fill="gray" text-rendering="geometricPrecision" shape-rendering="geometricPrecision" stroke-dasharray="6,2" stroke="gray" stroke-miterlimit="1.45">
      <rect x="-54.1886" y="-50.8222" clip-path="url(#clipPath2)" fill="none" width="157.235" rx="4" ry="4" height="95.9902"/>
    </g>
    <g stroke-linecap="butt" font-size="10px" transform="matrix(0,1.5625,-1.5625,0,215.3302,286.2153)" fill="rgb(31,73,125)" text-rendering="geometricPrecision" font-family="'Calibri'" shape-rendering="geometricPrecision" stroke="rgb(31,73,125)" stroke-miterlimit="1.45">
      <text x="2" xml:space="preserve" y="9.5" clip-path="url(#clipPath3)" stroke="none">udbyder A</text>
    </g>
    <g stroke-linecap="butt" transform="matrix(1.5625,0,0,1.5625,271.875,359.375)" fill="gray" text-rendering="geometricPrecision" shape-rendering="geometricPrecision" stroke="gray" stroke-miterlimit="1.45">
      <rect fill="none" x="-28.1309" width="105.1195" height="25" y="-1.2364" clip-path="url(#clipPath2)"/>
    </g>
    <g stroke-linecap="butt" font-size="10px" transform="matrix(1.5625,0,0,1.5625,271.875,359.375)" fill="rgb(51,102,255)" text-rendering="geometricPrecision" font-family="'Calibri'" shape-rendering="geometricPrecision" stroke="rgb(51,102,255)" font-weight="bold" stroke-miterlimit="1.45">
      <text x="-15.5785" xml:space="preserve" y="13.7636" clip-path="url(#clipPath2)" stroke="none">forretningstjeneste</text>
    </g>
    <g text-rendering="geometricPrecision" shape-rendering="geometricPrecision" transform="matrix(0.7679,0,0,0.9077,36.4504,209.4221)">
      <g clip-path="url(#clipPath4)">
        <svg xmlns:svg="http://www.w3.org/2000/svg" xmlns:sodipodi="http://sodipodi.sourceforge.net/DTD/sodipodi-0.dtd" xmlns:inkscape="http://www.inkscape.org/namespaces/inkscape" xmlns:dc="http://purl.org/dc/elements/1.1/" xmlns:cc="http://web.resource.org/cc/" xmlns:rdf="http://www.w3.org/1999/02/22-rdf-syntax-ns#" opacity="1" writing-mode="lr-tb" stop-color="rgb(0, 0, 0)" shape-rendering="auto" glyph-orientation-horizontal="0deg" color-profile="auto" lighting-color="rgb(255, 255, 255)" color="rgb(0, 0, 0)" font-weight="400" alignment-baseline="auto" font-style="normal" version="1.0" color-interpolation-filters="linearrgb" text-anchor="start" stroke-linecap="butt" color-interpolation="srgb" font-variant="normal" word-spacing="normal" fill-opacity="1" text-rendering="auto" clip-path="none" text-decoration="none" letter-spacing="normal" glyph-orientation-vertical="auto" display="inline" font-size-adjust="none" overflow="hidden" fill="rgb(0, 0, 0)" font-stretch="normal" stroke-dasharray="none" inkscape:version="0.45.1" id="svg1.svg2" stroke-miterlimit="4" stop-opacity="1" color-rendering="auto" font-size="12" sodipodi:docbase="C:\Daten\alberts\projects\yfx" pointer-events="visiblepainted" mask="none" direction="ltr" baseline-shift="baseline" sodipodi:docname="uml_actor.svg" enable-background="accumulate" fill-rule="nonzero" image-rendering="auto" stroke-dashoffset="0" inkscape:output_extension="org.inkscape.output.svg.inkscape" marker-end="none" width="41" clip="auto" cursor="auto" stroke="none" filter="none" visibility="visible" kerning="auto" stroke-width="1" font-family="&quot;Arial&quot;,&quot;Helvetica&quot;,sans-serif" flood-opacity="1" clip-rule="nonzero" src="none" height="68.997391" unicode-bidi="normal" sodipodi:version="0.32" stroke-linejoin="miter" stroke-opacity="1" flood-color="rgb(0, 0, 0)" dominant-baseline="auto" marker-start="none" marker-mid="none">
            
          <defs id="svg1.defs4">
            <clipPath clipPathUnits="userSpaceOnUse" id="clipPath1">
              <path d="M0 0 L846 0 L846 469 L0 469 L0 0 Z"/>
            </clipPath>
            <clipPath clipPathUnits="userSpaceOnUse" id="clipPath2">
              <path d="M-174 -230 L367.44 -230 L367.44 70.16 L-174 70.16 L-174 -230 Z"/>
            </clipPath>
            <clipPath clipPathUnits="userSpaceOnUse" id="clipPath3">
              <path d="M-183.1778 137.8114 L-183.1778 -403.6286 L116.9822 -403.6286 L116.9822 137.8114 L-183.1778 137.8114 Z"/>
            </clipPath>
            <clipPath clipPathUnits="userSpaceOnUse" id="clipPath4">
              <path d="M-47.4695 -230.7192 L1054.2812 -230.7192 L1054.2812 285.9755 L-47.4695 285.9755 L-47.4695 -230.7192 Z"/>
            </clipPath>
            <clipPath clipPathUnits="userSpaceOnUse" id="clipPath5">
              <path d="M-183.1778 371.455 L-183.1778 -169.9849 L116.9822 -169.9849 L116.9822 371.455 L-183.1778 371.455 Z"/>
            </clipPath>
          </defs>
            
  
          <metadata id="svg1.metadata7">
    
  </metadata>
            
          <g inkscape:groupmode="layer" id="svg1.layer1" transform="translate(-29.5,-42.959476)" inkscape:label="Ebene 1">
                
            <a id="svg1.a3142" transform="matrix(1.0873906,0,0,1,-4.4741999,0)">
                    
              <path transform="translate(11.586889,5.2908993)" style="fill:none;fill-rule:evenodd;stroke:#000000;stroke-width:1px;stroke-linecap:butt;stroke-linejoin:miter;stroke-opacity:1" sodipodi:cx="38.509369" sodipodi:cy="47.36993" sodipodi:rx="8.5197716" id="svg1.path2160" d="M 47.02914 47.36993 A 8.5197716 9.2013531 0 1 1  29.989597,47.36993 A 8.5197716 9.2013531 0 1 1  47.02914 47.36993 z" sodipodi:ry="9.2013531" sodipodi:type="arc"/>
                  
            </a>
                
            <path style="fill:none" sodipodi:cx="43.962021" sodipodi:cy="48.392303" d="M 47.71072 48.392303 A 3.7486994 0 0 1 1  40.213321,48.392303 A 3.7486994 0 0 1 1  47.71072 48.392303 z" id="svg1.path3134" sodipodi:rx="3.7486994" sodipodi:ry="0" sodipodi:type="arc"/>
                
            <path style="fill:none;fill-rule:evenodd;stroke:#000000;stroke-width:1.24319649px;stroke-linecap:butt;stroke-linejoin:miter;stroke-opacity:1" d="M 50,61.33709 C 50,91.363211 50,92.247838 50,92.247838" id="svg1.path3136"/>
                
            <path style="fill:none;fill-rule:evenodd;stroke:#000000;stroke-width:1px;stroke-linecap:butt;stroke-linejoin:miter;stroke-opacity:1" d="M 69.760668,72.362183 C 69.760668,72.362183 69.760668,72.362183 50.239332,72.362183 C 30.239332,72.362183 30.239332,72.362183 30.239332,72.362183 L 30.239332,72.362183" id="svg1.path3138"/>
                
            <path style="fill:none;fill-rule:evenodd;stroke:#000000;stroke-width:1px;stroke-linecap:butt;stroke-linejoin:miter;stroke-opacity:1" d="M 30,111.45687 C 30,111.45687 30,111.45687 50,92.013532 C 70,111.45687 70,111.45687 70,111.45687" id="svg1.path3140"/>
              
          </g>
          
        </svg>
      </g>
    </g>
    <g stroke-linecap="butt" transform="matrix(1.5625,0,0,1.5625,271.875,359.375)" fill="gray" text-rendering="geometricPrecision" shape-rendering="geometricPrecision" stroke-dasharray="6,2" stroke="gray" stroke-miterlimit="1.45">
      <rect x="179.4551" y="-50.8222" clip-path="url(#clipPath2)" fill="none" width="157.235" rx="4" ry="4" height="95.9902"/>
    </g>
    <g stroke-linecap="butt" font-size="10px" transform="matrix(0,1.5625,-1.5625,0,580.3985,286.2153)" fill="rgb(31,73,125)" text-rendering="geometricPrecision" font-family="'Calibri'" shape-rendering="geometricPrecision" stroke="rgb(31,73,125)" stroke-miterlimit="1.45">
      <text x="2" xml:space="preserve" y="9.5" clip-path="url(#clipPath5)" stroke="none">udbyder B</text>
    </g>
    <g stroke-linecap="butt" transform="matrix(1.5625,0,0,1.5625,271.875,359.375)" fill="gray" text-rendering="geometricPrecision" shape-rendering="geometricPrecision" stroke="gray" stroke-miterlimit="1.45">
      <rect fill="none" x="205.5128" width="105.1195" height="25" y="-1.2364" clip-path="url(#clipPath2)"/>
    </g>
    <g stroke-linecap="butt" font-size="10px" transform="matrix(1.5625,0,0,1.5625,271.875,359.375)" fill="rgb(51,102,255)" text-rendering="geometricPrecision" font-family="'Calibri'" shape-rendering="geometricPrecision" stroke="rgb(51,102,255)" font-weight="bold" stroke-miterlimit="1.45">
      <text x="218.0652" xml:space="preserve" y="13.7636" clip-path="url(#clipPath2)" stroke="none">forretningstjeneste</text>
    </g>
    <g fill="rgb(148,0,39)" text-rendering="geometricPrecision" shape-rendering="geometricPrecision" transform="matrix(1.5625,0,0,1.5625,271.875,359.375)" stroke="rgb(148,0,39)">
      <path d="M-52.6691 35.7449 L-50.2967 31.1401 L-45.3631 32.7186 L-46.9417 27.7851 L-42.3369 25.4127 L-46.9417 23.0403 L-45.3631 18.1067 L-50.2967 19.6853 L-52.6691 15.0805 L-55.0415 19.6853 L-59.9751 18.1067 L-58.3965 23.0403 L-63.0013 25.4127 L-58.3965 27.7851 L-59.9751 32.7186 L-55.0415 31.1401 Z" fill-rule="evenodd" clip-path="url(#clipPath2)" stroke="none"/>
      <path d="M181.1041 35.7449 L183.4764 31.1401 L188.41 32.7186 L186.8315 27.7851 L191.4362 25.4127 L186.8315 23.0403 L188.41 18.1067 L183.4764 19.6853 L181.1041 15.0805 L178.7317 19.6853 L173.7982 18.1067 L175.3767 23.0403 L170.772 25.4127 L175.3767 27.7851 L173.7982 32.7186 L178.7317 31.1401 Z" clip-path="url(#clipPath2)" fill-rule="evenodd" stroke="none"/>
    </g>
    <g stroke-linecap="butt" transform="matrix(1.5625,0,0,1.5625,271.875,359.375)" fill="gray" text-rendering="geometricPrecision" shape-rendering="geometricPrecision" stroke-dasharray="6,2" stroke="gray" stroke-miterlimit="1.45">
      <rect x="-54.1886" y="-206.7572" clip-path="url(#clipPath2)" fill="none" width="278.0069" rx="4" ry="4" height="77.481"/>
    </g>
    <g stroke-linecap="butt" font-size="10px" transform="matrix(1.5625,0,0,1.5625,271.875,359.375)" fill="rgb(148,0,39)" text-rendering="geometricPrecision" font-family="'Calibri'" shape-rendering="geometricPrecision" stroke="rgb(148,0,39)" stroke-miterlimit="1.45">
      <text x="-48.1886" xml:space="preserve" y="-193.2572" clip-path="url(#clipPath2)" stroke="none">tillidstjeneste </text>
    </g>
    <g fill="white" text-rendering="geometricPrecision" shape-rendering="geometricPrecision" transform="matrix(1.5625,0,0,1.5625,271.875,359.375)" stroke="white">
      <rect x="-28.1309" width="105.1195" height="36.2192" y="-175.0535" clip-path="url(#clipPath2)" stroke="none"/>
    </g>
    <g stroke-linecap="butt" transform="matrix(1.5625,0,0,1.5625,271.875,359.375)" fill="gray" text-rendering="geometricPrecision" shape-rendering="geometricPrecision" stroke="gray" stroke-miterlimit="1.45">
      <rect fill="none" x="-28.1309" width="105.1195" height="36.2192" y="-175.0535" clip-path="url(#clipPath2)"/>
    </g>
    <g stroke-linecap="butt" font-size="10px" transform="matrix(1.5625,0,0,1.5625,271.875,359.375)" fill="rgb(148,0,39)" text-rendering="geometricPrecision" font-family="'Calibri'" shape-rendering="geometricPrecision" stroke="rgb(148,0,39)" font-weight="bold" stroke-miterlimit="1.45">
      <text x="-8.3202" xml:space="preserve" y="-159.4439" clip-path="url(#clipPath2)" stroke="none">Autentifikation </text>
      <text x="1.6286" xml:space="preserve" y="-149.4439" clip-path="url(#clipPath2)" stroke="none">(SAML IdP)</text>
    </g>
    <g fill="white" text-rendering="geometricPrecision" shape-rendering="geometricPrecision" transform="matrix(1.5625,0,0,1.5625,271.875,359.375)" stroke="white">
      <rect x="96.5561" width="105.1195" height="36.2192" y="-175.0535" clip-path="url(#clipPath2)" stroke="none"/>
    </g>
    <g stroke-linecap="butt" transform="matrix(1.5625,0,0,1.5625,271.875,359.375)" fill="gray" text-rendering="geometricPrecision" shape-rendering="geometricPrecision" stroke="gray" stroke-miterlimit="1.45">
      <rect fill="none" x="96.5561" width="105.1195" height="36.2192" y="-175.0535" clip-path="url(#clipPath2)"/>
    </g>
    <g stroke-linecap="butt" font-size="10px" transform="matrix(1.5625,0,0,1.5625,271.875,359.375)" fill="rgb(148,0,39)" text-rendering="geometricPrecision" font-family="'Calibri'" shape-rendering="geometricPrecision" stroke="rgb(148,0,39)" font-weight="bold" stroke-miterlimit="1.45">
      <text x="118.4347" xml:space="preserve" y="-159.4439" clip-path="url(#clipPath2)" stroke="none">Tokenveksling </text>
      <text x="118.5787" xml:space="preserve" y="-149.4439" clip-path="url(#clipPath2)" stroke="none">(WS-Trust STS)</text>
    </g>
    <g transform="matrix(1.5625,0,0,1.5625,271.875,359.375)" fill-opacity="0.902" fill="rgb(255,255,255)" text-rendering="geometricPrecision" shape-rendering="geometricPrecision" stroke="rgb(255,255,255)" stroke-opacity="0.902">
      <rect x="-28.1309" y="-102.618" clip-path="url(#clipPath2)" width="66" rx="4" ry="4" height="33" stroke="none"/>
    </g>
    <g stroke-linecap="butt" font-size="10px" transform="matrix(1.5625,0,0,1.5625,271.875,359.375)" fill="gray" text-rendering="geometricPrecision" shape-rendering="geometricPrecision" font-style="italic" stroke="gray" stroke-miterlimit="1.45">
      <text x="-7.0742" xml:space="preserve" y="-82.1898" clip-path="url(#clipPath2)" stroke="none">(T, b)</text>
    </g>
    <g transform="matrix(1.5625,0,0,1.5625,271.875,359.375)" fill-opacity="0.902" fill="rgb(255,255,255)" text-rendering="geometricPrecision" shape-rendering="geometricPrecision" stroke="rgb(255,255,255)" stroke-opacity="0.902">
      <rect x="57.0944" y="-102.618" clip-path="url(#clipPath2)" width="66" rx="4" ry="4" height="33" stroke="none"/>
    </g>
    <g stroke-linecap="butt" font-size="10px" transform="matrix(1.5625,0,0,1.5625,271.875,359.375)" fill="gray" text-rendering="geometricPrecision" shape-rendering="geometricPrecision" font-style="italic" stroke="gray" stroke-miterlimit="1.45">
      <text x="81.7104" xml:space="preserve" y="-86.5643" clip-path="url(#clipPath2)" stroke="none">b</text>
    </g>
    <g transform="matrix(1.5625,0,0,1.5625,271.875,359.375)" fill-opacity="0.902" fill="rgb(255,255,255)" text-rendering="geometricPrecision" shape-rendering="geometricPrecision" stroke="rgb(255,255,255)" stroke-opacity="0.902">
      <rect x="83.4551" y="-83.8222" clip-path="url(#clipPath2)" width="66" rx="4" ry="4" height="33" stroke="none"/>
    </g>
    <g stroke-linecap="butt" font-size="10px" transform="matrix(1.5625,0,0,1.5625,271.875,359.375)" fill="gray" text-rendering="geometricPrecision" shape-rendering="geometricPrecision" font-style="italic" stroke="gray" stroke-miterlimit="1.45">
      <text x="112.4463" xml:space="preserve" y="-79.894" clip-path="url(#clipPath2)" stroke="none">T'</text>
    </g>
    <g transform="matrix(1.5625,0,0,1.5625,271.875,359.375)" fill-opacity="0.902" fill="rgb(255,255,255)" text-rendering="geometricPrecision" shape-rendering="geometricPrecision" stroke="rgb(255,255,255)" stroke-opacity="0.902">
      <rect x="113.4551" y="-14.0474" clip-path="url(#clipPath2)" width="66" rx="4" ry="4" height="33" stroke="none"/>
    </g>
    <g stroke-linecap="butt" font-size="10px" transform="matrix(1.5625,0,0,1.5625,271.875,359.375)" fill="gray" text-rendering="geometricPrecision" shape-rendering="geometricPrecision" font-style="italic" stroke="gray" stroke-miterlimit="1.45">
      <text x="136.843" xml:space="preserve" y="2.0063" clip-path="url(#clipPath2)" stroke="none">T'</text>
    </g>
    <g text-rendering="geometricPrecision" stroke-miterlimit="1.45" shape-rendering="geometricPrecision" transform="matrix(1.5625,0,0,1.5625,271.875,359.375)" stroke-linecap="butt">
      <path fill="none" d="M-130.5753 -68.1964 L-34.4522 6.3605" clip-path="url(#clipPath2)"/>
      <path d="M-28.1309 11.2636 L-34.5485 -0.0419 L-35.2424 5.7476 L-40.6774 7.8598 Z" clip-path="url(#clipPath2)" stroke="none"/>
      <path fill="none" d="M76.9886 11.2636 L197.5128 11.2636" clip-path="url(#clipPath2)"/>
      <path d="M205.5128 11.2636 L193.5128 6.2636 L196.5128 11.2636 L193.5128 16.2636 Z" clip-path="url(#clipPath2)" stroke="none"/>
      <path fill="none" d="M-130.5753 -83.1855 L-34.6232 -152.2695" clip-path="url(#clipPath2)"/>
      <path d="M-28.1309 -156.9439 L-40.7909 -153.99 L-35.4348 -151.6852 L-34.9479 -145.8746 Z" clip-path="url(#clipPath2)" stroke="none"/>
      <path fill="none" d="M24.4289 -138.8343 L24.4289 -9.2364" clip-path="url(#clipPath2)"/>
      <path d="M24.4289 -1.2364 L29.4289 -13.2364 L24.4289 -10.2364 L19.4289 -13.2364 Z" clip-path="url(#clipPath2)" stroke="none"/>
      <path fill="none" d="M33.6947 -1.2364 L130.9277 -132.4074" clip-path="url(#clipPath2)"/>
      <path d="M135.6917 -138.8343 L124.5289 -132.1715 L130.3322 -131.6041 L132.5625 -126.2165 Z" clip-path="url(#clipPath2)" stroke="none"/>
      <path fill="none" d="M135.6917 -138.8343 L38.4587 -7.6632" clip-path="url(#clipPath2)"/>
      <path d="M33.6947 -1.2364 L44.8575 -7.8991 L39.0542 -8.4666 L36.824 -13.8542 Z" clip-path="url(#clipPath2)" stroke="none"/>
      <path fill="none" d="M135.6917 -138.8343 L38.4587 -7.6632" clip-path="url(#clipPath2)"/>
      <path d="M33.6947 -1.2364 L44.8575 -7.8991 L39.0542 -8.4666 L36.824 -13.8542 Z" clip-path="url(#clipPath2)" stroke="none"/>
      <path fill="none" d="M135.6917 -138.8343 L38.4587 -7.6632" clip-path="url(#clipPath2)"/>
      <path d="M33.6947 -1.2364 L44.8575 -7.8991 L39.0542 -8.4666 L36.824 -13.8542 Z" clip-path="url(#clipPath2)" stroke="none"/>
    </g>
  </g>
</svg>
