<?xml version="1.0" encoding="UTF-8"?><svg xmlns="http://www.w3.org/2000/svg" xmlns:xlink="http://www.w3.org/1999/xlink" fill-opacity="1" color-rendering="auto" color-interpolation="auto" text-rendering="auto" stroke="black" stroke-linecap="square" width="525" stroke-miterlimit="10" shape-rendering="auto" stroke-opacity="1" fill="black" stroke-dasharray="none" font-weight="normal" stroke-width="1" height="283" font-family="'Dialog'" font-style="normal" stroke-linejoin="miter" font-size="12px" stroke-dashoffset="0" image-rendering="auto">
  <!--Generated by ySVG 2.5-->
  <defs id="genericDefs"/>
  <g>
    <g fill="white" text-rendering="geometricPrecision" shape-rendering="geometricPrecision" transform="translate(-1059,-653)" stroke="white">
      <rect x="1059" width="525" height="283" y="653" clip-path="url(#clipPath2)" stroke="none"/>
    </g>
    <g stroke-linecap="butt" transform="matrix(1,0,0,1,-1059,-653)" fill="gray" text-rendering="geometricPrecision" shape-rendering="geometricPrecision" stroke-dasharray="6,2" stroke="gray" stroke-miterlimit="1.45">
      <rect x="1177.4414" y="824.1811" clip-path="url(#clipPath2)" fill="none" width="157.235" rx="4" ry="4" height="95.9902"/>
    </g>
    <g stroke-linecap="butt" font-size="10px" transform="matrix(0,1,-1,0,138.6484,175.1811)" fill="rgb(31,73,125)" text-rendering="geometricPrecision" font-family="'Calibri'" shape-rendering="geometricPrecision" stroke="rgb(31,73,125)" stroke-miterlimit="1.45">
      <text x="2" xml:space="preserve" y="11.5215" clip-path="url(#clipPath3)" stroke="none">udbyder A</text>
    </g>
    <g stroke-linecap="butt" transform="matrix(1,0,0,1,-1059,-653)" fill="gray" text-rendering="geometricPrecision" shape-rendering="geometricPrecision" stroke="gray" stroke-miterlimit="1.45">
      <rect fill="none" x="1203.4991" width="105.1195" height="25" y="873.7669" clip-path="url(#clipPath2)"/>
    </g>
    <g stroke-linecap="butt" font-size="10px" transform="matrix(1,0,0,1,-1059,-653)" fill="rgb(51,102,255)" text-rendering="geometricPrecision" font-family="'Calibri'" shape-rendering="geometricPrecision" stroke="rgb(51,102,255)" font-weight="bold" stroke-miterlimit="1.45">
      <text x="1216.0515" xml:space="preserve" y="889.6849" clip-path="url(#clipPath2)" stroke="none">forretningstjeneste</text>
    </g>
    <g text-rendering="geometricPrecision" shape-rendering="geometricPrecision" transform="matrix(0.4914,0,0,0.5809,15.5671,213.2669)">
      <g clip-path="url(#clipPath4)">
        <svg xmlns:svg="http://www.w3.org/2000/svg" xmlns:sodipodi="http://sodipodi.sourceforge.net/DTD/sodipodi-0.dtd" xmlns:inkscape="http://www.inkscape.org/namespaces/inkscape" xmlns:dc="http://purl.org/dc/elements/1.1/" xmlns:cc="http://web.resource.org/cc/" xmlns:rdf="http://www.w3.org/1999/02/22-rdf-syntax-ns#" opacity="1" writing-mode="lr-tb" stop-color="rgb(0, 0, 0)" shape-rendering="auto" glyph-orientation-horizontal="0deg" color-profile="auto" lighting-color="rgb(255, 255, 255)" color="rgb(0, 0, 0)" font-weight="400" alignment-baseline="auto" font-style="normal" version="1.0" color-interpolation-filters="linearrgb" text-anchor="start" stroke-linecap="butt" color-interpolation="srgb" font-variant="normal" word-spacing="normal" fill-opacity="1" text-rendering="auto" clip-path="none" text-decoration="none" letter-spacing="normal" glyph-orientation-vertical="auto" display="inline" font-size-adjust="none" overflow="hidden" fill="rgb(0, 0, 0)" font-stretch="normal" stroke-dasharray="none" inkscape:version="0.45.1" id="svg1.svg2" stroke-miterlimit="4" stop-opacity="1" color-rendering="auto" font-size="12" sodipodi:docbase="C:\Daten\alberts\projects\yfx" pointer-events="visiblepainted" mask="none" direction="ltr" baseline-shift="baseline" sodipodi:docname="uml_actor.svg" enable-background="accumulate" fill-rule="nonzero" image-rendering="auto" stroke-dashoffset="0" inkscape:output_extension="org.inkscape.output.svg.inkscape" marker-end="none" width="41" clip="auto" cursor="auto" stroke="none" filter="none" visibility="visible" kerning="auto" stroke-width="1" font-family="&quot;Arial&quot;,&quot;Helvetica&quot;,sans-serif" flood-opacity="1" clip-rule="nonzero" src="none" height="68.997391" unicode-bidi="normal" sodipodi:version="0.32" stroke-linejoin="miter" stroke-opacity="1" flood-color="rgb(0, 0, 0)" dominant-baseline="auto" marker-start="none" marker-mid="none">
            
          <defs id="svg1.defs4">
            <clipPath clipPathUnits="userSpaceOnUse" id="clipPath1">
              <path d="M0 0 L525 0 L525 283 L0 283 L0 0 Z"/>
            </clipPath>
            <clipPath clipPathUnits="userSpaceOnUse" id="clipPath2">
              <path d="M1059 653 L1584 653 L1584 936 L1059 936 L1059 653 Z"/>
            </clipPath>
            <clipPath clipPathUnits="userSpaceOnUse" id="clipPath3">
              <path d="M-175.1811 138.6484 L-175.1811 -386.3516 L107.8189 -386.3516 L107.8189 138.6484 L-175.1811 138.6484 Z"/>
            </clipPath>
            <clipPath clipPathUnits="userSpaceOnUse" id="clipPath4">
              <path d="M-31.6768 -367.1172 L1036.621 -367.1172 L1036.621 120.0383 L-31.6768 120.0383 L-31.6768 -367.1172 Z"/>
            </clipPath>
            <clipPath clipPathUnits="userSpaceOnUse" id="clipPath5">
              <path d="M-175.1811 372.2921 L-175.1811 -152.7079 L107.8189 -152.7079 L107.8189 372.2921 L-175.1811 372.2921 Z"/>
            </clipPath>
          </defs>
            
  
          <metadata id="svg1.metadata7">
    
  </metadata>
            
          <g inkscape:groupmode="layer" id="svg1.layer1" transform="translate(-29.5,-42.959476)" inkscape:label="Ebene 1">
                
            <a id="svg1.a3142" transform="matrix(1.0873906,0,0,1,-4.4741999,0)">
                    
              <path transform="translate(11.586889,5.2908993)" style="fill:none;fill-rule:evenodd;stroke:#000000;stroke-width:1px;stroke-linecap:butt;stroke-linejoin:miter;stroke-opacity:1" sodipodi:cx="38.509369" sodipodi:cy="47.36993" sodipodi:rx="8.5197716" id="svg1.path2160" d="M 47.02914 47.36993 A 8.5197716 9.2013531 0 1 1  29.989597,47.36993 A 8.5197716 9.2013531 0 1 1  47.02914 47.36993 z" sodipodi:ry="9.2013531" sodipodi:type="arc"/>
                  
            </a>
                
            <path style="fill:none" sodipodi:cx="43.962021" sodipodi:cy="48.392303" d="M 47.71072 48.392303 A 3.7486994 0 0 1 1  40.213321,48.392303 A 3.7486994 0 0 1 1  47.71072 48.392303 z" id="svg1.path3134" sodipodi:rx="3.7486994" sodipodi:ry="0" sodipodi:type="arc"/>
                
            <path style="fill:none;fill-rule:evenodd;stroke:#000000;stroke-width:1.24319649px;stroke-linecap:butt;stroke-linejoin:miter;stroke-opacity:1" d="M 50,61.33709 C 50,91.363211 50,92.247838 50,92.247838" id="svg1.path3136"/>
                
            <path style="fill:none;fill-rule:evenodd;stroke:#000000;stroke-width:1px;stroke-linecap:butt;stroke-linejoin:miter;stroke-opacity:1" d="M 69.760668,72.362183 C 69.760668,72.362183 69.760668,72.362183 50.239332,72.362183 C 30.239332,72.362183 30.239332,72.362183 30.239332,72.362183 L 30.239332,72.362183" id="svg1.path3138"/>
                
            <path style="fill:none;fill-rule:evenodd;stroke:#000000;stroke-width:1px;stroke-linecap:butt;stroke-linejoin:miter;stroke-opacity:1" d="M 30,111.45687 C 30,111.45687 30,111.45687 50,92.013532 C 70,111.45687 70,111.45687 70,111.45687" id="svg1.path3140"/>
              
          </g>
          
        </svg>
      </g>
    </g>
    <g stroke-linecap="butt" transform="matrix(1,0,0,1,-1059,-653)" fill="gray" text-rendering="geometricPrecision" shape-rendering="geometricPrecision" stroke-dasharray="6,2" stroke="gray" stroke-miterlimit="1.45">
      <rect x="1411.0851" y="824.1811" clip-path="url(#clipPath2)" fill="none" width="157.235" rx="4" ry="4" height="95.9902"/>
    </g>
    <g stroke-linecap="butt" font-size="10px" transform="matrix(0,1,-1,0,372.2921,175.1811)" fill="rgb(31,73,125)" text-rendering="geometricPrecision" font-family="'Calibri'" shape-rendering="geometricPrecision" stroke="rgb(31,73,125)" stroke-miterlimit="1.45">
      <text x="2" xml:space="preserve" y="11.5215" clip-path="url(#clipPath5)" stroke="none">udbyder B</text>
    </g>
    <g stroke-linecap="butt" transform="matrix(1,0,0,1,-1059,-653)" fill="gray" text-rendering="geometricPrecision" shape-rendering="geometricPrecision" stroke="gray" stroke-miterlimit="1.45">
      <rect fill="none" x="1437.1428" width="105.1195" height="25" y="873.7669" clip-path="url(#clipPath2)"/>
    </g>
    <g stroke-linecap="butt" font-size="10px" transform="matrix(1,0,0,1,-1059,-653)" fill="rgb(51,102,255)" text-rendering="geometricPrecision" font-family="'Calibri'" shape-rendering="geometricPrecision" stroke="rgb(51,102,255)" font-weight="bold" stroke-miterlimit="1.45">
      <text x="1449.6952" xml:space="preserve" y="889.6849" clip-path="url(#clipPath2)" stroke="none">forretningstjeneste</text>
    </g>
    <g fill="rgb(148,0,39)" text-rendering="geometricPrecision" shape-rendering="geometricPrecision" transform="matrix(1,0,0,1,-1059,-653)" stroke="rgb(148,0,39)">
      <path d="M1178.9608 910.7482 L1181.3333 906.1434 L1186.2668 907.7219 L1184.6882 902.7883 L1189.2931 900.416 L1184.6882 898.0436 L1186.2668 893.11 L1181.3333 894.6885 L1178.9608 890.0837 L1176.5885 894.6885 L1171.6549 893.11 L1173.2334 898.0436 L1168.6287 900.416 L1173.2334 902.7883 L1171.6549 907.7219 L1176.5885 906.1434 Z" fill-rule="evenodd" clip-path="url(#clipPath2)" stroke="none"/>
      <path d="M1412.7341 910.7482 L1415.1066 906.1434 L1420.0402 907.7219 L1418.4615 902.7883 L1423.0664 900.416 L1418.4615 898.0436 L1420.0402 893.11 L1415.1066 894.6885 L1412.7341 890.0837 L1410.3618 894.6885 L1405.4282 893.11 L1407.0067 898.0436 L1402.402 900.416 L1407.0067 902.7883 L1405.4282 907.7219 L1410.3618 906.1434 Z" clip-path="url(#clipPath2)" fill-rule="evenodd" stroke="none"/>
    </g>
    <g stroke-linecap="butt" transform="matrix(1,0,0,1,-1059,-653)" fill="gray" text-rendering="geometricPrecision" shape-rendering="geometricPrecision" stroke-dasharray="6,2" stroke="gray" stroke-miterlimit="1.45">
      <rect x="1177.4414" y="668.2461" clip-path="url(#clipPath2)" fill="none" width="278.0069" rx="4" ry="4" height="77.481"/>
    </g>
    <g stroke-linecap="butt" font-size="10px" transform="matrix(1,0,0,1,-1059,-653)" fill="rgb(148,0,39)" text-rendering="geometricPrecision" font-family="'Calibri'" shape-rendering="geometricPrecision" stroke="rgb(148,0,39)" stroke-miterlimit="1.45">
      <text x="1183.4414" xml:space="preserve" y="683.7676" clip-path="url(#clipPath2)" stroke="none">tillidstjeneste </text>
    </g>
    <g fill="white" text-rendering="geometricPrecision" shape-rendering="geometricPrecision" transform="matrix(1,0,0,1,-1059,-653)" stroke="white">
      <rect x="1203.4991" width="105.1195" height="36.2192" y="699.9498" clip-path="url(#clipPath2)" stroke="none"/>
    </g>
    <g stroke-linecap="butt" transform="matrix(1,0,0,1,-1059,-653)" fill="gray" text-rendering="geometricPrecision" shape-rendering="geometricPrecision" stroke="gray" stroke-miterlimit="1.45">
      <rect fill="none" x="1203.4991" width="105.1195" height="36.2192" y="699.9498" clip-path="url(#clipPath2)"/>
    </g>
    <g stroke-linecap="butt" font-size="10px" transform="matrix(1,0,0,1,-1059,-653)" fill="rgb(148,0,39)" text-rendering="geometricPrecision" font-family="'Calibri'" shape-rendering="geometricPrecision" stroke="rgb(148,0,39)" font-weight="bold" stroke-miterlimit="1.45">
      <text x="1223.3098" xml:space="preserve" y="715.3739" clip-path="url(#clipPath2)" stroke="none">Autentifikation </text>
      <text x="1233.2585" xml:space="preserve" y="727.5809" clip-path="url(#clipPath2)" stroke="none">(SAML IdP)</text>
    </g>
    <g fill="white" text-rendering="geometricPrecision" shape-rendering="geometricPrecision" transform="matrix(1,0,0,1,-1059,-653)" stroke="white">
      <rect x="1328.1861" width="105.1195" height="36.2192" y="699.9498" clip-path="url(#clipPath2)" stroke="none"/>
    </g>
    <g stroke-linecap="butt" transform="matrix(1,0,0,1,-1059,-653)" fill="gray" text-rendering="geometricPrecision" shape-rendering="geometricPrecision" stroke="gray" stroke-miterlimit="1.45">
      <rect fill="none" x="1328.1861" width="105.1195" height="36.2192" y="699.9498" clip-path="url(#clipPath2)"/>
    </g>
    <g stroke-linecap="butt" font-size="10px" transform="matrix(1,0,0,1,-1059,-653)" fill="rgb(148,0,39)" text-rendering="geometricPrecision" font-family="'Calibri'" shape-rendering="geometricPrecision" stroke="rgb(148,0,39)" font-weight="bold" stroke-miterlimit="1.45">
      <text x="1350.0647" xml:space="preserve" y="715.3739" clip-path="url(#clipPath2)" stroke="none">Tokenveksling </text>
      <text x="1350.2087" xml:space="preserve" y="727.5809" clip-path="url(#clipPath2)" stroke="none">(WS-Trust STS)</text>
    </g>
    <g transform="matrix(1,0,0,1,-1059,-653)" fill-opacity="0.902" fill="rgb(255,255,255)" text-rendering="geometricPrecision" shape-rendering="geometricPrecision" stroke="rgb(255,255,255)" stroke-opacity="0.902">
      <rect x="1203.4991" y="772.3853" clip-path="url(#clipPath2)" width="66" rx="4" ry="4" height="33" stroke="none"/>
    </g>
    <g stroke-linecap="butt" font-size="10px" transform="matrix(1,0,0,1,-1059,-653)" fill="gray" text-rendering="geometricPrecision" font-family="'Helvetica Neue'" shape-rendering="geometricPrecision" font-style="italic" stroke="gray" stroke-miterlimit="1.45">
      <text x="1225.2941" xml:space="preserve" y="792.6053" clip-path="url(#clipPath2)" stroke="none">(T, b)</text>
    </g>
    <g transform="matrix(1,0,0,1,-1059,-653)" fill-opacity="0.902" fill="rgb(255,255,255)" text-rendering="geometricPrecision" shape-rendering="geometricPrecision" stroke="rgb(255,255,255)" stroke-opacity="0.902">
      <rect x="1288.7244" y="772.3853" clip-path="url(#clipPath2)" width="66" rx="4" ry="4" height="33" stroke="none"/>
    </g>
    <g stroke-linecap="butt" font-size="10px" transform="matrix(1,0,0,1,-1059,-653)" fill="gray" text-rendering="geometricPrecision" font-family="'Helvetica Neue'" shape-rendering="geometricPrecision" font-style="italic" stroke="gray" stroke-miterlimit="1.45">
      <text x="1313.1561" xml:space="preserve" y="787.9553" clip-path="url(#clipPath2)" stroke="none">b</text>
    </g>
    <g transform="matrix(1,0,0,1,-1059,-653)" fill-opacity="0.902" fill="rgb(255,255,255)" text-rendering="geometricPrecision" shape-rendering="geometricPrecision" stroke="rgb(255,255,255)" stroke-opacity="0.902">
      <rect x="1315.0851" y="791.1811" clip-path="url(#clipPath2)" width="66" rx="4" ry="4" height="33" stroke="none"/>
    </g>
    <g stroke-linecap="butt" font-size="10px" transform="matrix(1,0,0,1,-1059,-653)" fill="gray" text-rendering="geometricPrecision" font-family="'Helvetica Neue'" shape-rendering="geometricPrecision" font-style="italic" stroke="gray" stroke-miterlimit="1.45">
      <text x="1343.8251" xml:space="preserve" y="794.9011" clip-path="url(#clipPath2)" stroke="none">T'</text>
    </g>
    <g transform="matrix(1,0,0,1,-1059,-653)" fill-opacity="0.902" fill="rgb(255,255,255)" text-rendering="geometricPrecision" shape-rendering="geometricPrecision" stroke="rgb(255,255,255)" stroke-opacity="0.902">
      <rect x="1345.0851" y="860.9559" clip-path="url(#clipPath2)" width="66" rx="4" ry="4" height="33" stroke="none"/>
    </g>
    <g stroke-linecap="butt" font-size="10px" transform="matrix(1,0,0,1,-1059,-653)" fill="gray" text-rendering="geometricPrecision" font-family="'Helvetica Neue'" shape-rendering="geometricPrecision" font-style="italic" stroke="gray" stroke-miterlimit="1.45">
      <text x="1368.2218" xml:space="preserve" y="876.5259" clip-path="url(#clipPath2)" stroke="none">T'</text>
    </g>
    <g text-rendering="geometricPrecision" stroke-miterlimit="1.45" shape-rendering="geometricPrecision" transform="matrix(1,0,0,1,-1059,-653)" stroke-linecap="butt">
      <path fill="none" d="M1094.6437 886.2669 L1195.4991 886.2669" clip-path="url(#clipPath2)"/>
      <path d="M1203.4991 886.2669 L1191.4991 881.2669 L1194.4991 886.2669 L1191.4991 891.2669 Z" clip-path="url(#clipPath2)" stroke="none"/>
      <path fill="none" d="M1308.6187 886.2669 L1429.1428 886.2669" clip-path="url(#clipPath2)"/>
      <path d="M1437.1428 886.2669 L1425.1428 881.2669 L1428.1428 886.2669 L1425.1428 891.2669 Z" clip-path="url(#clipPath2)" stroke="none"/>
      <path fill="none" d="M1256.0588 736.1691 L1256.0588 865.7669" clip-path="url(#clipPath2)"/>
      <path d="M1256.0588 873.7669 L1261.0588 861.7669 L1256.0588 864.7669 L1251.0588 861.7669 Z" clip-path="url(#clipPath2)" stroke="none"/>
      <path fill="none" d="M1265.3247 873.7669 L1362.5577 742.5959" clip-path="url(#clipPath2)"/>
      <path d="M1367.3217 736.169 L1356.1589 742.8318 L1361.9622 743.3992 L1364.1925 748.7868 Z" clip-path="url(#clipPath2)" stroke="none"/>
      <path fill="none" d="M1367.3217 736.1691 L1270.0887 867.3401" clip-path="url(#clipPath2)"/>
      <path d="M1265.3247 873.7669 L1276.4875 867.1042 L1270.6842 866.5367 L1268.454 861.1492 Z" clip-path="url(#clipPath2)" stroke="none"/>
      <path fill="none" d="M1367.3217 736.1691 L1270.0887 867.3401" clip-path="url(#clipPath2)"/>
      <path d="M1265.3247 873.7669 L1276.4875 867.1042 L1270.6842 866.5367 L1268.454 861.1492 Z" clip-path="url(#clipPath2)" stroke="none"/>
      <path fill="none" d="M1367.3217 736.1691 L1270.0887 867.3401" clip-path="url(#clipPath2)"/>
      <path d="M1265.3247 873.7669 L1276.4875 867.1042 L1270.6842 866.5367 L1268.454 861.1492 Z" clip-path="url(#clipPath2)" stroke="none"/>
    </g>
  </g>
</svg>
