<?xml version="1.0" encoding="UTF-8"?><svg xmlns="http://www.w3.org/2000/svg" xmlns:xlink="http://www.w3.org/1999/xlink" fill-opacity="1" color-rendering="auto" color-interpolation="auto" text-rendering="auto" stroke="black" stroke-linecap="square" width="518" stroke-miterlimit="10" shape-rendering="auto" stroke-opacity="1" fill="black" stroke-dasharray="none" font-weight="normal" stroke-width="1" height="263" font-family="'Dialog'" font-style="normal" stroke-linejoin="miter" font-size="12px" stroke-dashoffset="0" image-rendering="auto">
  <!--Generated by ySVG 2.5-->
  <defs id="genericDefs"/>
  <g>
    <g fill="white" text-rendering="geometricPrecision" shape-rendering="geometricPrecision" transform="translate(19,162)" stroke="white">
      <rect x="-19" width="518" height="263" y="-162" clip-path="url(#clipPath2)" stroke="none"/>
    </g>
    <g stroke-linecap="butt" transform="matrix(1,0,0,1,19,162)" fill="gray" text-rendering="geometricPrecision" shape-rendering="geometricPrecision" stroke-dasharray="6,2" stroke="gray" stroke-miterlimit="1.45">
      <rect x="93.108" y="5.0853" clip-path="url(#clipPath2)" fill="none" width="157.235" rx="4" ry="4" height="80.8889"/>
    </g>
    <g stroke-linecap="butt" font-size="10px" transform="matrix(1,0,0,1,19,162)" fill="rgb(31,73,125)" text-rendering="geometricPrecision" font-family="'Calibri'" shape-rendering="geometricPrecision" stroke="rgb(31,73,125)" stroke-miterlimit="1.45">
      <text x="169.1087" xml:space="preserve" y="77.4741" clip-path="url(#clipPath2)" stroke="none">tjenesteudbyder A</text>
    </g>
    <g stroke-linecap="butt" transform="matrix(1,0,0,1,19,162)" fill="gray" text-rendering="geometricPrecision" shape-rendering="geometricPrecision" stroke="gray" stroke-miterlimit="1.45">
      <rect x="119.1658" y="33.0297" clip-path="url(#clipPath2)" fill="none" width="105.1195" rx="4" ry="4" height="25"/>
    </g>
    <g stroke-linecap="butt" font-size="10px" transform="matrix(1,0,0,1,19,162)" fill="rgb(51,102,255)" text-rendering="geometricPrecision" font-family="'Calibri'" shape-rendering="geometricPrecision" stroke="rgb(51,102,255)" font-weight="bold" stroke-miterlimit="1.45">
      <text x="131.7182" xml:space="preserve" y="48.0297" clip-path="url(#clipPath2)" stroke="none">forretningstjeneste</text>
    </g>
    <g text-rendering="geometricPrecision" shape-rendering="geometricPrecision" transform="matrix(0.4914,0,0,0.5809,15.6249,125.8668)">
      <g clip-path="url(#clipPath3)">
        <svg xmlns:svg="http://www.w3.org/2000/svg" xmlns:sodipodi="http://sodipodi.sourceforge.net/DTD/sodipodi-0.dtd" xmlns:inkscape="http://www.inkscape.org/namespaces/inkscape" xmlns:dc="http://purl.org/dc/elements/1.1/" xmlns:cc="http://web.resource.org/cc/" xmlns:rdf="http://www.w3.org/1999/02/22-rdf-syntax-ns#" opacity="1" writing-mode="lr-tb" stop-color="rgb(0, 0, 0)" shape-rendering="auto" glyph-orientation-horizontal="0deg" color-profile="auto" lighting-color="rgb(255, 255, 255)" color="rgb(0, 0, 0)" font-weight="400" alignment-baseline="auto" font-style="normal" version="1.0" color-interpolation-filters="linearrgb" text-anchor="start" stroke-linecap="butt" color-interpolation="srgb" font-variant="normal" word-spacing="normal" fill-opacity="1" text-rendering="auto" clip-path="none" text-decoration="none" letter-spacing="normal" glyph-orientation-vertical="auto" display="inline" font-size-adjust="none" overflow="hidden" fill="rgb(0, 0, 0)" font-stretch="normal" stroke-dasharray="none" inkscape:version="0.45.1" id="svg1.svg2" stroke-miterlimit="4" stop-opacity="1" color-rendering="auto" font-size="12" sodipodi:docbase="C:\Daten\alberts\projects\yfx" pointer-events="visiblepainted" mask="none" direction="ltr" baseline-shift="baseline" sodipodi:docname="uml_actor.svg" enable-background="accumulate" fill-rule="nonzero" image-rendering="auto" stroke-dashoffset="0" inkscape:output_extension="org.inkscape.output.svg.inkscape" marker-end="none" width="41" clip="auto" cursor="auto" stroke="none" filter="none" visibility="visible" kerning="auto" stroke-width="1" font-family="&quot;Arial&quot;,&quot;Helvetica&quot;,sans-serif" flood-opacity="1" clip-rule="nonzero" src="none" height="68.997391" unicode-bidi="normal" sodipodi:version="0.32" stroke-linejoin="miter" stroke-opacity="1" flood-color="rgb(0, 0, 0)" dominant-baseline="auto" marker-start="none" marker-mid="none">
            
          <defs id="svg1.defs4">
            <clipPath clipPathUnits="userSpaceOnUse" id="clipPath1">
              <path d="M0 0 L518 0 L518 263 L0 263 L0 0 Z"/>
            </clipPath>
            <clipPath clipPathUnits="userSpaceOnUse" id="clipPath2">
              <path d="M-19 -162 L499 -162 L499 101 L-19 101 L-19 -162 Z"/>
            </clipPath>
            <clipPath clipPathUnits="userSpaceOnUse" id="clipPath3">
              <path d="M-31.7944 -216.6668 L1022.2595 -216.6668 L1022.2595 236.0607 L-31.7944 236.0607 L-31.7944 -216.6668 Z"/>
            </clipPath>
          </defs>
            
  
          <metadata id="svg1.metadata7">
    
  </metadata>
            
          <g inkscape:groupmode="layer" id="svg1.layer1" transform="translate(-29.5,-42.959476)" inkscape:label="Ebene 1">
                
            <a id="svg1.a3142" transform="matrix(1.0873906,0,0,1,-4.4741999,0)">
                    
              <path transform="translate(11.586889,5.2908993)" style="fill:none;fill-rule:evenodd;stroke:#000000;stroke-width:1px;stroke-linecap:butt;stroke-linejoin:miter;stroke-opacity:1" sodipodi:cx="38.509369" sodipodi:cy="47.36993" sodipodi:rx="8.5197716" id="svg1.path2160" d="M 47.02914 47.36993 A 8.5197716 9.2013531 0 1 1  29.989597,47.36993 A 8.5197716 9.2013531 0 1 1  47.02914 47.36993 z" sodipodi:ry="9.2013531" sodipodi:type="arc"/>
                  
            </a>
                
            <path style="fill:none" sodipodi:cx="43.962021" sodipodi:cy="48.392303" d="M 47.71072 48.392303 A 3.7486994 0 0 1 1  40.213321,48.392303 A 3.7486994 0 0 1 1  47.71072 48.392303 z" id="svg1.path3134" sodipodi:rx="3.7486994" sodipodi:ry="0" sodipodi:type="arc"/>
                
            <path style="fill:none;fill-rule:evenodd;stroke:#000000;stroke-width:1.24319649px;stroke-linecap:butt;stroke-linejoin:miter;stroke-opacity:1" d="M 50,61.33709 C 50,91.363211 50,92.247838 50,92.247838" id="svg1.path3136"/>
                
            <path style="fill:none;fill-rule:evenodd;stroke:#000000;stroke-width:1px;stroke-linecap:butt;stroke-linejoin:miter;stroke-opacity:1" d="M 69.760668,72.362183 C 69.760668,72.362183 69.760668,72.362183 50.239332,72.362183 C 30.239332,72.362183 30.239332,72.362183 30.239332,72.362183 L 30.239332,72.362183" id="svg1.path3138"/>
                
            <path style="fill:none;fill-rule:evenodd;stroke:#000000;stroke-width:1px;stroke-linecap:butt;stroke-linejoin:miter;stroke-opacity:1" d="M 30,111.45687 C 30,111.45687 30,111.45687 50,92.013532 C 70,111.45687 70,111.45687 70,111.45687" id="svg1.path3140"/>
              
          </g>
          
        </svg>
      </g>
    </g>
    <g stroke-linecap="butt" transform="matrix(1,0,0,1,19,162)" fill="gray" text-rendering="geometricPrecision" shape-rendering="geometricPrecision" stroke-dasharray="6,2" stroke="gray" stroke-miterlimit="1.45">
      <rect x="326.7517" y="5.0853" clip-path="url(#clipPath2)" fill="none" width="157.235" rx="4" ry="4" height="80.8889"/>
    </g>
    <g stroke-linecap="butt" font-size="10px" transform="matrix(1,0,0,1,19,162)" fill="rgb(31,73,125)" text-rendering="geometricPrecision" font-family="'Calibri'" shape-rendering="geometricPrecision" stroke="rgb(31,73,125)" stroke-miterlimit="1.45">
      <text x="403.0991" xml:space="preserve" y="77.4741" clip-path="url(#clipPath2)" stroke="none">tjenesteudbyder B</text>
    </g>
    <g stroke-linecap="butt" transform="matrix(1,0,0,1,19,162)" fill="gray" text-rendering="geometricPrecision" shape-rendering="geometricPrecision" stroke="gray" stroke-miterlimit="1.45">
      <rect x="352.8095" y="33.0297" clip-path="url(#clipPath2)" fill="none" width="105.1195" rx="4" ry="4" height="25"/>
    </g>
    <g stroke-linecap="butt" font-size="10px" transform="matrix(1,0,0,1,19,162)" fill="rgb(51,102,255)" text-rendering="geometricPrecision" font-family="'Calibri'" shape-rendering="geometricPrecision" stroke="rgb(51,102,255)" font-weight="bold" stroke-miterlimit="1.45">
      <text x="365.3619" xml:space="preserve" y="48.0297" clip-path="url(#clipPath2)" stroke="none">forretningstjeneste</text>
    </g>
    <g fill="rgb(148,0,39)" text-rendering="geometricPrecision" shape-rendering="geometricPrecision" transform="matrix(1,0,0,1,19,162)" stroke="rgb(148,0,39)">
      <path d="M94.6275 70.0109 L96.9999 65.4061 L101.9335 66.9847 L100.3549 62.0511 L104.9597 59.6787 L100.3549 57.3063 L101.9335 52.3728 L96.9999 53.9513 L94.6275 49.3465 L92.2552 53.9513 L87.3216 52.3728 L88.9001 57.3063 L84.2953 59.6787 L88.9001 62.0511 L87.3216 66.9847 L92.2552 65.4061 Z" fill-rule="evenodd" clip-path="url(#clipPath2)" stroke="none"/>
      <path d="M328.4008 70.0109 L330.7732 65.4061 L335.7068 66.9847 L334.1283 62.0511 L338.733 59.6787 L334.1283 57.3063 L335.7068 52.3728 L330.7732 53.9513 L328.4008 49.3465 L326.0285 53.9513 L321.0949 52.3728 L322.6734 57.3063 L318.0686 59.6787 L322.6734 62.0511 L321.0949 66.9847 L326.0285 65.4061 Z" clip-path="url(#clipPath2)" fill-rule="evenodd" stroke="none"/>
    </g>
    <g stroke-linecap="butt" transform="matrix(1,0,0,1,19,162)" fill="gray" text-rendering="geometricPrecision" shape-rendering="geometricPrecision" stroke-dasharray="6,2" stroke="gray" stroke-miterlimit="1.45">
      <rect x="93.108" y="-146.9206" clip-path="url(#clipPath2)" fill="none" width="278.0069" rx="4" ry="4" height="77.481"/>
    </g>
    <g stroke-linecap="butt" font-size="10px" transform="matrix(1,0,0,1,19,162)" fill="rgb(148,0,39)" text-rendering="geometricPrecision" font-family="'Calibri'" shape-rendering="geometricPrecision" stroke="rgb(148,0,39)" stroke-miterlimit="1.45">
      <text x="99.108" xml:space="preserve" y="-133.4205" clip-path="url(#clipPath2)" stroke="none">tillidstjeneste </text>
    </g>
    <g fill="white" text-rendering="geometricPrecision" shape-rendering="geometricPrecision" transform="matrix(1,0,0,1,19,162)" stroke="white">
      <rect x="119.1658" y="-115.2168" clip-path="url(#clipPath2)" width="105.1195" rx="4" ry="4" height="36.2192" stroke="none"/>
    </g>
    <g stroke-linecap="butt" transform="matrix(1,0,0,1,19,162)" fill="gray" text-rendering="geometricPrecision" shape-rendering="geometricPrecision" stroke="gray" stroke-miterlimit="1.45">
      <rect x="119.1658" y="-115.2168" clip-path="url(#clipPath2)" fill="none" width="105.1195" rx="4" ry="4" height="36.2192"/>
    </g>
    <g stroke-linecap="butt" font-size="10px" transform="matrix(1,0,0,1,19,162)" fill="rgb(148,0,39)" text-rendering="geometricPrecision" font-family="'Calibri'" shape-rendering="geometricPrecision" stroke="rgb(148,0,39)" font-weight="bold" stroke-miterlimit="1.45">
      <text x="138.9765" xml:space="preserve" y="-99.6072" clip-path="url(#clipPath2)" stroke="none">Autentifikation </text>
      <text x="148.9252" xml:space="preserve" y="-89.6072" clip-path="url(#clipPath2)" stroke="none">(SAML IdP)</text>
    </g>
    <g fill="white" text-rendering="geometricPrecision" shape-rendering="geometricPrecision" transform="matrix(1,0,0,1,19,162)" stroke="white">
      <rect x="243.8527" y="-115.2168" clip-path="url(#clipPath2)" width="105.1195" rx="4" ry="4" height="36.2192" stroke="none"/>
    </g>
    <g stroke-linecap="butt" transform="matrix(1,0,0,1,19,162)" fill="gray" text-rendering="geometricPrecision" shape-rendering="geometricPrecision" stroke="gray" stroke-miterlimit="1.45">
      <rect x="243.8527" y="-115.2168" clip-path="url(#clipPath2)" fill="none" width="105.1195" rx="4" ry="4" height="36.2192"/>
    </g>
    <g stroke-linecap="butt" font-size="10px" transform="matrix(1,0,0,1,19,162)" fill="rgb(148,0,39)" text-rendering="geometricPrecision" font-family="'Calibri'" shape-rendering="geometricPrecision" stroke="rgb(148,0,39)" font-weight="bold" stroke-miterlimit="1.45">
      <text x="265.7313" xml:space="preserve" y="-99.6072" clip-path="url(#clipPath2)" stroke="none">Tokenveksling </text>
      <text x="265.8754" xml:space="preserve" y="-89.6072" clip-path="url(#clipPath2)" stroke="none">(WS-Trust STS)</text>
    </g>
    <g transform="matrix(1,0,0,1,19,162)" fill-opacity="0.902" fill="rgb(255,255,255)" text-rendering="geometricPrecision" shape-rendering="geometricPrecision" stroke="rgb(255,255,255)" stroke-opacity="0.902">
      <rect x="119.1658" y="-42.7813" clip-path="url(#clipPath2)" width="66" rx="4" ry="4" height="33" stroke="none"/>
    </g>
    <g stroke-linecap="butt" font-size="10px" transform="matrix(1,0,0,1,19,162)" fill="gray" text-rendering="geometricPrecision" shape-rendering="geometricPrecision" font-style="italic" stroke="gray" stroke-miterlimit="1.45">
      <text x="140.2224" xml:space="preserve" y="-22.3531" clip-path="url(#clipPath2)" stroke="none">(T, b)</text>
    </g>
    <g transform="matrix(1,0,0,1,19,162)" fill-opacity="0.902" fill="rgb(255,255,255)" text-rendering="geometricPrecision" shape-rendering="geometricPrecision" stroke="rgb(255,255,255)" stroke-opacity="0.902">
      <rect x="199.1115" y="-48.6771" clip-path="url(#clipPath2)" width="66" rx="4" ry="4" height="33" stroke="none"/>
    </g>
    <g stroke-linecap="butt" font-size="10px" transform="matrix(1,0,0,1,19,162)" fill="gray" text-rendering="geometricPrecision" shape-rendering="geometricPrecision" font-style="italic" stroke="gray" stroke-miterlimit="1.45">
      <text x="223.7274" xml:space="preserve" y="-32.6234" clip-path="url(#clipPath2)" stroke="none">b</text>
    </g>
    <g transform="matrix(1,0,0,1,19,162)" fill-opacity="0.902" fill="rgb(255,255,255)" text-rendering="geometricPrecision" shape-rendering="geometricPrecision" stroke="rgb(255,255,255)" stroke-opacity="0.902">
      <rect x="238.5976" y="-29.9703" clip-path="url(#clipPath2)" width="66" rx="4" ry="4" height="33" stroke="none"/>
    </g>
    <g stroke-linecap="butt" font-size="10px" transform="matrix(1,0,0,1,19,162)" fill="gray" text-rendering="geometricPrecision" shape-rendering="geometricPrecision" font-style="italic" stroke="gray" stroke-miterlimit="1.45">
      <text x="267.5888" xml:space="preserve" y="-26.0421" clip-path="url(#clipPath2)" stroke="none">T'</text>
    </g>
    <g transform="matrix(1,0,0,1,19,162)" fill-opacity="0.902" fill="rgb(255,255,255)" text-rendering="geometricPrecision" shape-rendering="geometricPrecision" stroke="rgb(255,255,255)" stroke-opacity="0.902">
      <rect x="260.7517" y="20.2187" clip-path="url(#clipPath2)" width="66" rx="4" ry="4" height="33" stroke="none"/>
    </g>
    <g stroke-linecap="butt" font-size="10px" transform="matrix(1,0,0,1,19,162)" fill="gray" text-rendering="geometricPrecision" shape-rendering="geometricPrecision" font-style="italic" stroke="gray" stroke-miterlimit="1.45">
      <text x="284.1397" xml:space="preserve" y="36.2724" clip-path="url(#clipPath2)" stroke="none">T'</text>
    </g>
    <g text-rendering="geometricPrecision" stroke-miterlimit="1.45" shape-rendering="geometricPrecision" transform="matrix(1,0,0,1,19,162)" stroke-linecap="butt">
      <path fill="none" d="M16.7214 -10.6383 L112.151 41.6836" clip-path="url(#clipPath2)"/>
      <path d="M119.1658 45.5297 L111.0473 35.3763 L111.2741 41.2029 L106.2398 44.1448 Z" clip-path="url(#clipPath2)" stroke="none"/>
      <path fill="none" d="M224.2897 45.5297 L344.8049 45.5297" clip-path="url(#clipPath2)"/>
      <path d="M352.8049 45.5297 L340.8049 40.5297 L343.8049 45.5297 L340.8049 50.5297 Z" clip-path="url(#clipPath2)" stroke="none"/>
      <path fill="none" d="M16.7214 -23.3489 L112.6735 -92.4328" clip-path="url(#clipPath2)"/>
      <path d="M119.1658 -97.1072 L106.5058 -94.1534 L111.8619 -91.8485 L112.3488 -86.038 Z" clip-path="url(#clipPath2)" stroke="none"/>
      <path fill="none" d="M171.7255 -78.9642 L171.7255 25.0377" clip-path="url(#clipPath2)"/>
      <path d="M171.7255 33.0377 L176.7255 21.0377 L171.7255 24.0377 L166.7255 21.0377 Z" clip-path="url(#clipPath2)" stroke="none"/>
      <path fill="none" d="M182.6539 33.0281 L275.3444 -73.0062" clip-path="url(#clipPath2)"/>
      <path d="M280.6096 -79.0293 L268.9474 -73.2854 L274.6863 -72.2533 L276.4763 -66.7039 Z" clip-path="url(#clipPath2)" stroke="none"/>
      <path fill="none" d="M280.5526 -78.9642 L187.9106 27.0146" clip-path="url(#clipPath2)"/>
      <path d="M182.6454 33.0378 L194.3076 27.2938 L188.5687 26.2617 L186.7787 20.7123 Z" clip-path="url(#clipPath2)" stroke="none"/>
      <path fill="none" d="M280.5526 -78.9642 L187.9106 27.0146" clip-path="url(#clipPath2)"/>
      <path d="M182.6454 33.0378 L194.3076 27.2938 L188.5687 26.2617 L186.7787 20.7123 Z" clip-path="url(#clipPath2)" stroke="none"/>
      <path fill="none" d="M280.5526 -78.9642 L187.9106 27.0146" clip-path="url(#clipPath2)"/>
      <path d="M182.6454 33.0378 L194.3076 27.2938 L188.5687 26.2617 L186.7787 20.7123 Z" clip-path="url(#clipPath2)" stroke="none"/>
    </g>
  </g>
</svg>
