<?xml version="1.0" encoding="UTF-8"?><svg xmlns="http://www.w3.org/2000/svg" xmlns:xlink="http://www.w3.org/1999/xlink" fill-opacity="1" color-rendering="auto" color-interpolation="auto" text-rendering="auto" stroke="black" stroke-linecap="square" width="402" stroke-miterlimit="10" shape-rendering="auto" stroke-opacity="1" fill="black" stroke-dasharray="none" font-weight="normal" stroke-width="1" height="230" font-family="'Dialog'" font-style="normal" stroke-linejoin="miter" font-size="12px" stroke-dashoffset="0" image-rendering="auto">
  <!--Generated by ySVG 2.5-->
  <defs id="genericDefs"/>
  <g>
    <defs id="defs1">
      <clipPath clipPathUnits="userSpaceOnUse" id="clipPath1">
        <path d="M0 0 L402 0 L402 230 L0 230 L0 0 Z"/>
      </clipPath>
      <clipPath clipPathUnits="userSpaceOnUse" id="clipPath2">
        <path d="M1059 652 L1461 652 L1461 882 L1059 882 L1059 652 Z"/>
      </clipPath>
      <clipPath clipPathUnits="userSpaceOnUse" id="clipPath3">
        <path d="M-140.8148 35.4678 L-140.8148 -366.5322 L89.1852 -366.5322 L89.1852 35.4678 L-140.8148 35.4678 Z"/>
      </clipPath>
      <clipPath clipPathUnits="userSpaceOnUse" id="clipPath4">
        <path d="M-19.6823 150.8794 L-19.6823 -251.1206 L210.3177 -251.1206 L210.3177 150.8794 L-19.6823 150.8794 Z"/>
      </clipPath>
      <clipPath clipPathUnits="userSpaceOnUse" id="clipPath5">
        <path d="M-140.8148 250.4746 L-140.8148 -151.5254 L89.1852 -151.5254 L89.1852 250.4746 L-140.8148 250.4746 Z"/>
      </clipPath>
    </defs>
    <g fill="white" text-rendering="geometricPrecision" shape-rendering="geometricPrecision" transform="translate(-1059,-652)" stroke="white">
      <rect x="1059" width="402" height="230" y="652" clip-path="url(#clipPath2)" stroke="none"/>
    </g>
    <g stroke-linecap="butt" transform="matrix(1,0,0,1,-1059,-652)" fill="gray" text-rendering="geometricPrecision" shape-rendering="geometricPrecision" stroke-dasharray="6,2" stroke="gray" stroke-miterlimit="1.45">
      <rect x="1074.2608" y="788.8148" clip-path="url(#clipPath2)" fill="none" width="167.0004" rx="4" ry="4" height="78.102"/>
    </g>
    <g stroke-linecap="butt" font-size="10px" transform="matrix(0,1,-1,0,35.4678,140.8148)" fill="gray" text-rendering="geometricPrecision" font-family="'Calibri'" shape-rendering="geometricPrecision" stroke="gray" stroke-miterlimit="1.45">
      <text x="2" xml:space="preserve" y="11.5215" clip-path="url(#clipPath3)" stroke="none">tjenesteudbyder</text>
    </g>
    <g stroke-linecap="butt" transform="matrix(1,0,0,1,-1059,-652)" fill="gray" text-rendering="geometricPrecision" shape-rendering="geometricPrecision" stroke="gray" stroke-miterlimit="1.45">
      <rect x="1112.7771" y="819.1984" clip-path="url(#clipPath2)" fill="none" width="105.1195" rx="4" ry="4" height="25"/>
    </g>
    <g stroke-linecap="butt" font-size="10px" transform="matrix(1,0,0,1,-1059,-652)" fill="rgb(51,102,255)" text-rendering="geometricPrecision" font-family="'Calibri'" shape-rendering="geometricPrecision" stroke="rgb(51,102,255)" font-weight="bold" stroke-miterlimit="1.45">
      <text x="1125.3296" xml:space="preserve" y="835.1164" clip-path="url(#clipPath2)" stroke="none">forretningstjeneste</text>
    </g>
    <g stroke-linecap="butt" transform="matrix(1,0,0,1,-1059,-652)" fill="gray" text-rendering="geometricPrecision" shape-rendering="geometricPrecision" stroke-dasharray="6,2" stroke="gray" stroke-miterlimit="1.45">
      <rect x="1189.6723" y="667.6823" clip-path="url(#clipPath2)" fill="none" width="157.235" rx="4" ry="4" height="71.0337"/>
    </g>
    <g stroke-linecap="butt" font-size="10px" transform="matrix(0,1,-1,0,150.8794,19.6823)" fill="gray" text-rendering="geometricPrecision" font-family="'Calibri'" shape-rendering="geometricPrecision" stroke="gray" stroke-miterlimit="1.45">
      <text x="2" xml:space="preserve" y="11.5215" clip-path="url(#clipPath4)" stroke="none">tillidstjeneste</text>
    </g>
    <g fill="white" text-rendering="geometricPrecision" shape-rendering="geometricPrecision" transform="matrix(1,0,0,1,-1059,-652)" stroke="white">
      <rect x="1223.1535" y="690.6992" clip-path="url(#clipPath2)" width="105.1195" rx="4" ry="4" height="25" stroke="none"/>
    </g>
    <g stroke-linecap="butt" transform="matrix(1,0,0,1,-1059,-652)" fill="gray" text-rendering="geometricPrecision" shape-rendering="geometricPrecision" stroke="gray" stroke-miterlimit="1.45">
      <rect x="1223.1535" y="690.6992" clip-path="url(#clipPath2)" fill="none" width="105.1195" rx="4" ry="4" height="25"/>
    </g>
    <g stroke-linecap="butt" font-size="10px" transform="matrix(1,0,0,1,-1059,-652)" fill="rgb(148,0,39)" text-rendering="geometricPrecision" font-family="'Calibri'" shape-rendering="geometricPrecision" stroke="rgb(148,0,39)" font-weight="bold" stroke-miterlimit="1.45">
      <text x="1244.6561" xml:space="preserve" y="706.6171" clip-path="url(#clipPath2)" stroke="none">autentifikation</text>
    </g>
    <g stroke-linecap="butt" transform="matrix(1,0,0,1,-1059,-652)" fill="gray" text-rendering="geometricPrecision" shape-rendering="geometricPrecision" stroke-dasharray="6,2" stroke="gray" stroke-miterlimit="1.45">
      <rect x="1289.2676" y="788.8148" clip-path="url(#clipPath2)" fill="none" width="156.3414" rx="4" ry="4" height="78.102"/>
    </g>
    <g stroke-linecap="butt" font-size="10px" transform="matrix(0,1,-1,0,250.4746,140.8148)" fill="gray" text-rendering="geometricPrecision" font-family="'Calibri'" shape-rendering="geometricPrecision" stroke="gray" stroke-miterlimit="1.45">
      <text x="2" xml:space="preserve" y="11.5215" clip-path="url(#clipPath5)" stroke="none">tillidstjeneste</text>
    </g>
    <g fill="white" text-rendering="geometricPrecision" shape-rendering="geometricPrecision" transform="matrix(1,0,0,1,-1059,-652)" stroke="white">
      <rect x="1321.8243" y="819.8681" clip-path="url(#clipPath2)" width="105.1195" rx="4" ry="4" height="25" stroke="none"/>
    </g>
    <g stroke-linecap="butt" transform="matrix(1,0,0,1,-1059,-652)" fill="gray" text-rendering="geometricPrecision" shape-rendering="geometricPrecision" stroke="gray" stroke-miterlimit="1.45">
      <rect x="1321.8243" y="819.8681" clip-path="url(#clipPath2)" fill="none" width="105.1195" rx="4" ry="4" height="25"/>
    </g>
    <g stroke-linecap="butt" font-size="10px" transform="matrix(1,0,0,1,-1059,-652)" fill="rgb(148,0,39)" text-rendering="geometricPrecision" font-family="'Calibri'" shape-rendering="geometricPrecision" stroke="rgb(148,0,39)" font-weight="bold" stroke-miterlimit="1.45">
      <text x="1343.3269" xml:space="preserve" y="835.7861" clip-path="url(#clipPath2)" stroke="none">autentifikation</text>
    </g>
    <g transform="matrix(1,0,0,1,-1059,-652)" fill-opacity="0.902" fill="rgb(255,255,255)" text-rendering="geometricPrecision" shape-rendering="geometricPrecision" stroke="rgb(255,255,255)" stroke-opacity="0.902">
      <rect x="1101.2179" y="747.2654" clip-path="url(#clipPath2)" width="66" rx="4" ry="4" height="33" stroke="none"/>
    </g>
    <g stroke-linecap="butt" font-size="10px" transform="matrix(1,0,0,1,-1059,-652)" fill="gray" text-rendering="geometricPrecision" font-family="'Helvetica Neue'" shape-rendering="geometricPrecision" font-style="italic" stroke="gray" stroke-miterlimit="1.45">
      <text x="1100.5079" xml:space="preserve" y="767.4854" clip-path="url(#clipPath2)" stroke="none">Trust boundary</text>
    </g>
    <g text-rendering="geometricPrecision" stroke-miterlimit="1.45" shape-rendering="geometricPrecision" transform="matrix(1,0,0,1,-1059,-652)" stroke-linecap="butt">
      <path fill="none" d="M1176.0889 819.181 L1259.7744 721.7551" clip-path="url(#clipPath2)"/>
      <path d="M1264.9871 715.6865 L1253.3751 721.5315 L1259.1228 722.5137 L1260.9609 728.0473 Z" clip-path="url(#clipPath2)" stroke="none"/>
      <path fill="none" d="M1285.2769 715.7187 L1359.9774 813.5085" clip-path="url(#clipPath2)"/>
      <path d="M1364.8337 819.8659 L1361.5226 807.2947 L1359.3704 812.7139 L1353.5759 813.3651 Z" clip-path="url(#clipPath2)" stroke="none"/>
    </g>
  </g>
</svg>
