<?xml version="1.0" encoding="UTF-8"?><svg xmlns="http://www.w3.org/2000/svg" xmlns:xlink="http://www.w3.org/1999/xlink" fill-opacity="1" color-rendering="auto" color-interpolation="auto" text-rendering="auto" stroke="black" stroke-linecap="square" width="470" stroke-miterlimit="10" shape-rendering="auto" stroke-opacity="1" fill="black" stroke-dasharray="none" font-weight="normal" stroke-width="1" height="192" font-family="'Dialog'" font-style="normal" stroke-linejoin="miter" font-size="12px" stroke-dashoffset="0" image-rendering="auto">
  <!--Generated by ySVG 2.5-->
  <defs id="genericDefs"/>
  <g>
    <defs id="defs1">
      <linearGradient x1="370.2272" gradientUnits="userSpaceOnUse" x2="474.4548" y1="45.2654" y2="45.2654" id="linearGradient1" spreadMethod="reflect">
        <stop stop-opacity="1" stop-color="white" offset="0%"/>
        <stop stop-opacity="1" stop-color="white" offset="100%"/>
      </linearGradient>
      <clipPath clipPathUnits="userSpaceOnUse" id="clipPath1">
        <path d="M0 0 L470 0 L470 192 L0 192 L0 0 Z"/>
      </clipPath>
      <clipPath clipPathUnits="userSpaceOnUse" id="clipPath2">
        <path d="M20 -71 L490 -71 L490 121 L20 121 L20 -71 Z"/>
      </clipPath>
      <clipPath clipPathUnits="userSpaceOnUse" id="clipPath3">
        <path d="M-120.2654 121.7656 L-120.2654 -348.2344 L71.7346 -348.2344 L71.7346 121.7656 L-120.2654 121.7656 Z"/>
      </clipPath>
      <clipPath clipPathUnits="userSpaceOnUse" id="clipPath4">
        <path d="M-120.2654 316.1134 L-120.2654 -153.8866 L71.7346 -153.8866 L71.7346 316.1134 L-120.2654 316.1134 Z"/>
      </clipPath>
    </defs>
    <g fill="white" text-rendering="geometricPrecision" shape-rendering="geometricPrecision" transform="translate(-20,71)" stroke="white">
      <rect x="20" width="470" height="192" y="-71" clip-path="url(#clipPath2)" stroke="none"/>
    </g>
    <g stroke-linecap="butt" transform="matrix(1,0,0,1,-20,71)" fill="gray" text-rendering="geometricPrecision" shape-rendering="geometricPrecision" stroke-dasharray="6,2" stroke="gray" stroke-miterlimit="1.45">
      <rect x="113.7656" y="45.2654" clip-path="url(#clipPath2)" fill="none" width="156.3414" rx="4" ry="4" height="60.1478"/>
    </g>
    <g stroke-linecap="butt" font-size="10px" transform="matrix(0,1,-1,0,121.7656,120.2654)" fill="gray" text-rendering="geometricPrecision" font-family="'Calibri'" shape-rendering="geometricPrecision" stroke="gray" stroke-miterlimit="1.45">
      <text x="2" xml:space="preserve" y="9.5" clip-path="url(#clipPath3)" stroke="none">tjeneste-</text>
      <text x="3.1206" xml:space="preserve" y="19.5" clip-path="url(#clipPath3)" stroke="none">udbyder</text>
    </g>
    <g stroke-linecap="butt" transform="matrix(1,0,0,1,-20,71)" fill="gray" text-rendering="geometricPrecision" shape-rendering="geometricPrecision" stroke="gray" stroke-miterlimit="1.45">
      <rect x="148.3623" y="62.8393" clip-path="url(#clipPath2)" fill="none" width="105.1195" rx="4" ry="4" height="25"/>
    </g>
    <g stroke-linecap="butt" font-size="10px" transform="matrix(1,0,0,1,-20,71)" fill="rgb(51,102,255)" text-rendering="geometricPrecision" font-family="'Calibri'" shape-rendering="geometricPrecision" stroke="rgb(51,102,255)" font-weight="bold" stroke-miterlimit="1.45">
      <text x="160.9147" xml:space="preserve" y="77.8393" clip-path="url(#clipPath2)" stroke="none">forretningstjeneste</text>
    </g>
    <g stroke-linecap="butt" transform="matrix(1,0,0,1,-20,71)" fill="gray" text-rendering="geometricPrecision" shape-rendering="geometricPrecision" stroke-dasharray="6,2" stroke="gray" stroke-miterlimit="1.45">
      <rect x="112.872" y="-55.7683" clip-path="url(#clipPath2)" fill="none" width="157.235" rx="4" ry="4" height="71.0337"/>
    </g>
    <g stroke-linecap="butt" font-size="10px" transform="matrix(1,0,0,1,-20,71)" fill="rgb(148,0,39)" text-rendering="geometricPrecision" font-family="'Calibri'" shape-rendering="geometricPrecision" stroke="rgb(148,0,39)" stroke-miterlimit="1.45">
      <text x="118.872" xml:space="preserve" y="-42.2683" clip-path="url(#clipPath2)" stroke="none">tillidstjeneste (broker) - domæne A</text>
    </g>
    <g fill="white" text-rendering="geometricPrecision" shape-rendering="geometricPrecision" transform="matrix(1,0,0,1,-20,71)" stroke="white">
      <rect x="148.3623" y="-22.3497" clip-path="url(#clipPath2)" width="105.1195" rx="4" ry="4" height="25" stroke="none"/>
    </g>
    <g stroke-linecap="butt" transform="matrix(1,0,0,1,-20,71)" fill="gray" text-rendering="geometricPrecision" shape-rendering="geometricPrecision" stroke="gray" stroke-miterlimit="1.45">
      <rect x="148.3623" y="-22.3497" clip-path="url(#clipPath2)" fill="none" width="105.1195" rx="4" ry="4" height="25"/>
    </g>
    <g stroke-linecap="butt" font-size="10px" transform="matrix(1,0,0,1,-20,71)" fill="rgb(148,0,39)" text-rendering="geometricPrecision" font-family="'Calibri'" shape-rendering="geometricPrecision" stroke="rgb(148,0,39)" font-weight="bold" stroke-miterlimit="1.45">
      <text x="169.8649" xml:space="preserve" y="-7.3497" clip-path="url(#clipPath2)" stroke="none">autentifikation</text>
    </g>
    <g stroke-linecap="butt" transform="matrix(1,0,0,1,-20,71)" fill="gray" text-rendering="geometricPrecision" shape-rendering="geometricPrecision" stroke-dasharray="6,2" stroke="gray" stroke-miterlimit="1.45">
      <rect x="317.6666" y="-55.7683" clip-path="url(#clipPath2)" fill="none" width="157.235" rx="4" ry="4" height="71.0337"/>
    </g>
    <g stroke-linecap="butt" font-size="10px" transform="matrix(1,0,0,1,-20,71)" fill="rgb(148,0,39)" text-rendering="geometricPrecision" font-family="'Calibri'" shape-rendering="geometricPrecision" stroke="rgb(148,0,39)" stroke-miterlimit="1.45">
      <text x="323.6666" xml:space="preserve" y="-42.2683" clip-path="url(#clipPath2)" stroke="none">tillidstjeneste (broker) - domæne B </text>
    </g>
    <g fill="white" text-rendering="geometricPrecision" shape-rendering="geometricPrecision" transform="matrix(1,0,0,1,-20,71)" stroke="white">
      <rect x="353.1569" y="-22.3497" clip-path="url(#clipPath2)" width="105.1195" rx="4" ry="4" height="25" stroke="none"/>
    </g>
    <g stroke-linecap="butt" transform="matrix(1,0,0,1,-20,71)" fill="gray" text-rendering="geometricPrecision" shape-rendering="geometricPrecision" stroke="gray" stroke-miterlimit="1.45">
      <rect x="353.1569" y="-22.3497" clip-path="url(#clipPath2)" fill="none" width="105.1195" rx="4" ry="4" height="25"/>
    </g>
    <g stroke-linecap="butt" font-size="10px" transform="matrix(1,0,0,1,-20,71)" fill="rgb(148,0,39)" text-rendering="geometricPrecision" font-family="'Calibri'" shape-rendering="geometricPrecision" stroke="rgb(148,0,39)" font-weight="bold" stroke-miterlimit="1.45">
      <text x="374.6595" xml:space="preserve" y="-7.3497" clip-path="url(#clipPath2)" stroke="none">autentifikation</text>
    </g>
    <g fill="url(#linearGradient1)" text-rendering="geometricPrecision" shape-rendering="geometricPrecision" transform="matrix(1,0,0,1,-20,71)" stroke="url(#linearGradient1)">
      <rect x="318.1134" y="45.2654" clip-path="url(#clipPath2)" width="156.3414" rx="4" ry="4" height="60.1478" stroke="none"/>
    </g>
    <g stroke-linecap="butt" transform="matrix(1,0,0,1,-20,71)" fill="gray" text-rendering="geometricPrecision" shape-rendering="geometricPrecision" stroke-dasharray="6,2" stroke="gray" stroke-miterlimit="1.45">
      <rect x="318.1134" y="45.2654" clip-path="url(#clipPath2)" fill="none" width="156.3414" rx="4" ry="4" height="60.1478"/>
    </g>
    <g stroke-linecap="butt" font-size="10px" transform="matrix(0,1,-1,0,316.1134,120.2654)" fill="gray" text-rendering="geometricPrecision" font-family="'Calibri'" shape-rendering="geometricPrecision" stroke="gray" stroke-miterlimit="1.45">
      <text x="2" xml:space="preserve" y="9.5" clip-path="url(#clipPath4)" stroke="none">organisation</text>
    </g>
    <g fill="white" text-rendering="geometricPrecision" shape-rendering="geometricPrecision" transform="matrix(1,0,0,1,-20,71)" stroke="white">
      <rect x="353.1569" y="62.8393" clip-path="url(#clipPath2)" width="105.1195" rx="4" ry="4" height="25" stroke="none"/>
    </g>
    <g stroke-linecap="butt" transform="matrix(1,0,0,1,-20,71)" fill="gray" text-rendering="geometricPrecision" shape-rendering="geometricPrecision" stroke="gray" stroke-miterlimit="1.45">
      <rect x="353.1569" y="62.8393" clip-path="url(#clipPath2)" fill="none" width="105.1195" rx="4" ry="4" height="25"/>
    </g>
    <g stroke-linecap="butt" font-size="10px" transform="matrix(1,0,0,1,-20,71)" fill="rgb(148,0,39)" text-rendering="geometricPrecision" font-family="'Calibri'" shape-rendering="geometricPrecision" stroke="rgb(148,0,39)" font-weight="bold" stroke-miterlimit="1.45">
      <text x="374.6595" xml:space="preserve" y="77.8393" clip-path="url(#clipPath2)" stroke="none">autentifikation</text>
    </g>
    <g transform="matrix(1,0,0,1,-20,71)" fill-opacity="0.902" fill="rgb(255,255,255)" text-rendering="geometricPrecision" shape-rendering="geometricPrecision" stroke="rgb(255,255,255)" stroke-opacity="0.902">
      <rect x="38.0731" y="13.7654" clip-path="url(#clipPath2)" width="66" rx="4" ry="4" height="33" stroke="none"/>
    </g>
    <g stroke-linecap="butt" font-size="10px" transform="matrix(1,0,0,1,-20,71)" fill="gray" text-rendering="geometricPrecision" shape-rendering="geometricPrecision" font-style="italic" stroke="gray" stroke-miterlimit="1.45">
      <text x="37.4452" xml:space="preserve" y="34.1936" clip-path="url(#clipPath2)" stroke="none">Trust boundary</text>
    </g>
    <g text-rendering="geometricPrecision" stroke-miterlimit="1.45" shape-rendering="geometricPrecision" transform="matrix(1,0,0,1,-20,71)" stroke-linecap="butt">
      <path fill="none" d="M200.922 62.8188 L200.922 10.6757" clip-path="url(#clipPath2)"/>
      <path d="M200.922 2.6757 L195.922 14.6757 L200.922 11.6757 L205.922 14.6757 Z" clip-path="url(#clipPath2)" stroke="none"/>
      <path fill="none" d="M253.4706 -9.8497 L345.1219 -9.8497" clip-path="url(#clipPath2)"/>
      <path d="M353.1219 -9.8497 L341.1219 -14.8497 L344.1219 -9.8497 L341.1219 -4.8497 Z" clip-path="url(#clipPath2)" stroke="none"/>
      <path fill="none" d="M405.7166 2.6708 L405.7166 54.8139" clip-path="url(#clipPath2)"/>
      <path d="M405.7166 62.8139 L410.7166 50.8139 L405.7166 53.8139 L400.7166 50.8139 Z" clip-path="url(#clipPath2)" stroke="none"/>
    </g>
  </g>
</svg>
