<?xml version="1.0" encoding="UTF-8"?><svg xmlns="http://www.w3.org/2000/svg" xmlns:xlink="http://www.w3.org/1999/xlink" fill-opacity="1" color-rendering="auto" color-interpolation="auto" text-rendering="auto" stroke="black" stroke-linecap="square" width="526" stroke-miterlimit="10" shape-rendering="auto" stroke-opacity="1" fill="black" stroke-dasharray="none" font-weight="normal" stroke-width="1" height="212" font-family="'Dialog'" font-style="normal" stroke-linejoin="miter" font-size="12px" stroke-dashoffset="0" image-rendering="auto">
  <!--Generated by ySVG 2.5-->
  <defs id="genericDefs"/>
  <g>
    <g fill="white" text-rendering="geometricPrecision" shape-rendering="geometricPrecision" transform="translate(-1059,-653)" stroke="white">
      <rect x="1059" width="526" height="212" y="653" clip-path="url(#clipPath2)" stroke="none"/>
    </g>
    <g stroke-linecap="butt" transform="matrix(1,0,0,1,-1059,-653)" fill="gray" text-rendering="geometricPrecision" shape-rendering="geometricPrecision" stroke-dasharray="6,2" stroke="gray" stroke-miterlimit="1.45">
      <rect x="1074.8479" y="789.4329" clip-path="url(#clipPath2)" fill="none" width="156.3414" rx="4" ry="4" height="60.1478"/>
    </g>
    <g stroke-linecap="butt" font-size="10px" transform="matrix(0,1,-1,0,36.0549,140.4329)" fill="rgb(31,73,125)" text-rendering="geometricPrecision" font-family="'Calibri'" shape-rendering="geometricPrecision" stroke="rgb(31,73,125)" stroke-miterlimit="1.45">
      <text x="2" xml:space="preserve" y="11.5215" clip-path="url(#clipPath3)" stroke="none">udbyder</text>
    </g>
    <g stroke-linecap="butt" transform="matrix(1,0,0,1,-1059,-653)" fill="gray" text-rendering="geometricPrecision" shape-rendering="geometricPrecision" stroke="gray" stroke-miterlimit="1.45">
      <rect fill="none" x="1110.7417" width="105.1195" height="25" y="807.0068" clip-path="url(#clipPath2)"/>
    </g>
    <g stroke-linecap="butt" font-size="10px" transform="matrix(1,0,0,1,-1059,-653)" fill="rgb(51,102,255)" text-rendering="geometricPrecision" font-family="'Calibri'" shape-rendering="geometricPrecision" stroke="rgb(51,102,255)" font-weight="bold" stroke-miterlimit="1.45">
      <text x="1123.2941" xml:space="preserve" y="822.9247" clip-path="url(#clipPath2)" stroke="none">forretningstjeneste</text>
    </g>
    <g stroke-linecap="butt" transform="matrix(1,0,0,1,-1059,-653)" fill="gray" text-rendering="geometricPrecision" shape-rendering="geometricPrecision" stroke-dasharray="6,2" stroke="gray" stroke-miterlimit="1.45">
      <rect x="1179.6004" y="668.3004" clip-path="url(#clipPath2)" fill="none" width="157.235" rx="4" ry="4" height="71.0337"/>
    </g>
    <g stroke-linecap="butt" font-size="10px" transform="matrix(1,0,0,1,-1059,-653)" fill="rgb(148,0,39)" text-rendering="geometricPrecision" font-family="'Calibri'" shape-rendering="geometricPrecision" stroke="rgb(148,0,39)" stroke-miterlimit="1.45">
      <text x="1185.6005" xml:space="preserve" y="683.8218" clip-path="url(#clipPath2)" stroke="none">tillidstjeneste (broker)</text>
    </g>
    <g fill="white" text-rendering="geometricPrecision" shape-rendering="geometricPrecision" transform="matrix(1,0,0,1,-1059,-653)" stroke="white">
      <rect x="1205.6582" width="105.1195" height="25" y="695.9959" clip-path="url(#clipPath2)" stroke="none"/>
    </g>
    <g stroke-linecap="butt" transform="matrix(1,0,0,1,-1059,-653)" fill="gray" text-rendering="geometricPrecision" shape-rendering="geometricPrecision" stroke="gray" stroke-miterlimit="1.45">
      <rect fill="none" x="1205.6582" width="105.1195" height="25" y="695.9959" clip-path="url(#clipPath2)"/>
    </g>
    <g stroke-linecap="butt" font-size="10px" transform="matrix(1,0,0,1,-1059,-653)" fill="rgb(148,0,39)" text-rendering="geometricPrecision" font-family="'Calibri'" shape-rendering="geometricPrecision" stroke="rgb(148,0,39)" font-weight="bold" stroke-miterlimit="1.45">
      <text x="1227.1608" xml:space="preserve" y="711.9138" clip-path="url(#clipPath2)" stroke="none">autentifikation</text>
    </g>
    <g transform="matrix(1,0,0,1,-1059,-653)" fill-opacity="0.902" fill="rgb(255,255,255)" text-rendering="geometricPrecision" shape-rendering="geometricPrecision" stroke="rgb(255,255,255)" stroke-opacity="0.902">
      <rect x="1083.6004" y="747.8835" clip-path="url(#clipPath2)" width="66" rx="4" ry="4" height="33" stroke="none"/>
    </g>
    <g stroke-linecap="butt" font-size="10px" transform="matrix(1,0,0,1,-1059,-653)" fill="gray" text-rendering="geometricPrecision" font-family="'Helvetica Neue'" shape-rendering="geometricPrecision" font-style="italic" stroke="gray" stroke-miterlimit="1.45">
      <text x="1082.8904" xml:space="preserve" y="768.1035" clip-path="url(#clipPath2)" stroke="none">Trust boundary</text>
    </g>
    <g text-rendering="geometricPrecision" shape-rendering="geometricPrecision" transform="matrix(0.4914,0,0,0.5809,313.6948,146.5068)">
      <g clip-path="url(#clipPath4)">
        <svg xmlns:svg="http://www.w3.org/2000/svg" xmlns:sodipodi="http://sodipodi.sourceforge.net/DTD/sodipodi-0.dtd" xmlns:inkscape="http://www.inkscape.org/namespaces/inkscape" xmlns:dc="http://purl.org/dc/elements/1.1/" xmlns:cc="http://web.resource.org/cc/" xmlns:rdf="http://www.w3.org/1999/02/22-rdf-syntax-ns#" opacity="1" writing-mode="lr-tb" stop-color="rgb(0, 0, 0)" shape-rendering="auto" glyph-orientation-horizontal="0deg" color-profile="auto" lighting-color="rgb(255, 255, 255)" color="rgb(0, 0, 0)" font-weight="400" alignment-baseline="auto" font-style="normal" version="1.0" color-interpolation-filters="linearrgb" text-anchor="start" stroke-linecap="butt" color-interpolation="srgb" font-variant="normal" word-spacing="normal" fill-opacity="1" text-rendering="auto" clip-path="none" text-decoration="none" letter-spacing="normal" glyph-orientation-vertical="auto" display="inline" font-size-adjust="none" overflow="hidden" fill="rgb(0, 0, 0)" font-stretch="normal" stroke-dasharray="none" inkscape:version="0.45.1" id="svg1.svg2" stroke-miterlimit="4" stop-opacity="1" color-rendering="auto" font-size="12" sodipodi:docbase="C:\Daten\alberts\projects\yfx" pointer-events="visiblepainted" mask="none" direction="ltr" baseline-shift="baseline" sodipodi:docname="uml_actor.svg" enable-background="accumulate" fill-rule="nonzero" image-rendering="auto" stroke-dashoffset="0" inkscape:output_extension="org.inkscape.output.svg.inkscape" marker-end="none" width="41" clip="auto" cursor="auto" stroke="none" filter="none" visibility="visible" kerning="auto" stroke-width="1" font-family="&quot;Arial&quot;,&quot;Helvetica&quot;,sans-serif" flood-opacity="1" clip-rule="nonzero" src="none" height="68.997391" unicode-bidi="normal" sodipodi:version="0.32" stroke-linejoin="miter" stroke-opacity="1" flood-color="rgb(0, 0, 0)" dominant-baseline="auto" marker-start="none" marker-mid="none">
            
          <defs id="svg1.defs4">
            <clipPath clipPathUnits="userSpaceOnUse" id="clipPath1">
              <path d="M0 0 L526 0 L526 212 L0 212 L0 0 Z"/>
            </clipPath>
            <clipPath clipPathUnits="userSpaceOnUse" id="clipPath2">
              <path d="M1059 653 L1585 653 L1585 865 L1059 865 L1059 653 Z"/>
            </clipPath>
            <clipPath clipPathUnits="userSpaceOnUse" id="clipPath3">
              <path d="M-140.4329 36.0549 L-140.4329 -489.9451 L71.5671 -489.9451 L71.5671 36.0549 L-140.4329 36.0549 Z"/>
            </clipPath>
            <clipPath clipPathUnits="userSpaceOnUse" id="clipPath4">
              <path d="M-638.3229 -252.1964 L432.0098 -252.1964 L432.0098 112.7399 L-638.3229 112.7399 L-638.3229 -252.1964 Z"/>
            </clipPath>
          </defs>
            
  
          <metadata id="svg1.metadata7">
    
  </metadata>
            
          <g inkscape:groupmode="layer" id="svg1.layer1" transform="translate(-29.5,-42.959476)" inkscape:label="Ebene 1">
                
            <a id="svg1.a3142" transform="matrix(1.0873906,0,0,1,-4.4741999,0)">
                    
              <path transform="translate(11.586889,5.2908993)" style="fill:none;fill-rule:evenodd;stroke:#000000;stroke-width:1px;stroke-linecap:butt;stroke-linejoin:miter;stroke-opacity:1" sodipodi:cx="38.509369" sodipodi:cy="47.36993" sodipodi:rx="8.5197716" id="svg1.path2160" d="M 47.02914 47.36993 A 8.5197716 9.2013531 0 1 1  29.989597,47.36993 A 8.5197716 9.2013531 0 1 1  47.02914 47.36993 z" sodipodi:ry="9.2013531" sodipodi:type="arc"/>
                  
            </a>
                
            <path style="fill:none" sodipodi:cx="43.962021" sodipodi:cy="48.392303" d="M 47.71072 48.392303 A 3.7486994 0 0 1 1  40.213321,48.392303 A 3.7486994 0 0 1 1  47.71072 48.392303 z" id="svg1.path3134" sodipodi:rx="3.7486994" sodipodi:ry="0" sodipodi:type="arc"/>
                
            <path style="fill:none;fill-rule:evenodd;stroke:#000000;stroke-width:1.24319649px;stroke-linecap:butt;stroke-linejoin:miter;stroke-opacity:1" d="M 50,61.33709 C 50,91.363211 50,92.247838 50,92.247838" id="svg1.path3136"/>
                
            <path style="fill:none;fill-rule:evenodd;stroke:#000000;stroke-width:1px;stroke-linecap:butt;stroke-linejoin:miter;stroke-opacity:1" d="M 69.760668,72.362183 C 69.760668,72.362183 69.760668,72.362183 50.239332,72.362183 C 30.239332,72.362183 30.239332,72.362183 30.239332,72.362183 L 30.239332,72.362183" id="svg1.path3138"/>
                
            <path style="fill:none;fill-rule:evenodd;stroke:#000000;stroke-width:1px;stroke-linecap:butt;stroke-linejoin:miter;stroke-opacity:1" d="M 30,111.45687 C 30,111.45687 30,111.45687 50,92.013532 C 70,111.45687 70,111.45687 70,111.45687" id="svg1.path3140"/>
              
          </g>
          
        </svg>
      </g>
    </g>
    <g stroke-linecap="butt" transform="matrix(1,0,0,1,-1059,-653)" fill="gray" text-rendering="geometricPrecision" shape-rendering="geometricPrecision" stroke-dasharray="6,2" stroke="gray" stroke-miterlimit="1.45">
      <rect x="1411.886" y="668.3004" clip-path="url(#clipPath2)" fill="none" width="157.235" rx="4" ry="4" height="71.0337"/>
    </g>
    <g stroke-linecap="butt" font-size="10px" transform="matrix(1,0,0,1,-1059,-653)" fill="rgb(148,0,39)" text-rendering="geometricPrecision" font-family="'Calibri'" shape-rendering="geometricPrecision" stroke="rgb(148,0,39)" stroke-miterlimit="1.45">
      <text x="1417.886" xml:space="preserve" y="683.8218" clip-path="url(#clipPath2)" stroke="none">tillidstjeneste</text>
    </g>
    <g fill="white" text-rendering="geometricPrecision" shape-rendering="geometricPrecision" transform="matrix(1,0,0,1,-1059,-653)" stroke="white">
      <rect x="1437.9438" width="105.1195" height="25" y="695.9959" clip-path="url(#clipPath2)" stroke="none"/>
    </g>
    <g stroke-linecap="butt" transform="matrix(1,0,0,1,-1059,-653)" fill="gray" text-rendering="geometricPrecision" shape-rendering="geometricPrecision" stroke="gray" stroke-miterlimit="1.45">
      <rect fill="none" x="1437.9438" width="105.1195" height="25" y="695.9959" clip-path="url(#clipPath2)"/>
    </g>
    <g stroke-linecap="butt" font-size="10px" transform="matrix(1,0,0,1,-1059,-653)" fill="rgb(148,0,39)" text-rendering="geometricPrecision" font-family="'Calibri'" shape-rendering="geometricPrecision" stroke="rgb(148,0,39)" font-weight="bold" stroke-miterlimit="1.45">
      <text x="1457.4908" xml:space="preserve" y="711.9138" clip-path="url(#clipPath2)" stroke="none">attributtjeneste</text>
    </g>
    <g text-rendering="geometricPrecision" stroke-miterlimit="1.45" shape-rendering="geometricPrecision" transform="matrix(1,0,0,1,-1059,-653)" stroke-linecap="butt">
      <path fill="none" d="M1173.9891 807.0068 L1242.3313 727.0763" clip-path="url(#clipPath2)"/>
      <path d="M1247.5302 720.9958 L1235.9316 726.8672 L1241.6814 727.8364 L1243.5321 733.3658 Z" clip-path="url(#clipPath2)" stroke="none"/>
      <path fill="none" d="M1372.765 810.5901 L1278.2147 726.3188" clip-path="url(#clipPath2)"/>
      <path d="M1272.2427 720.9958 L1277.8739 732.7128 L1278.9613 726.9841 L1284.5277 725.2477 Z" clip-path="url(#clipPath2)" stroke="none"/>
      <path fill="none" d="M1372.7858 819.5068 L1223.8612 819.5068" clip-path="url(#clipPath2)"/>
      <path d="M1215.8612 819.5068 L1227.8612 824.5068 L1224.8612 819.5068 L1227.8612 814.5068 Z" clip-path="url(#clipPath2)" stroke="none"/>
      <path fill="none" d="M1310.7777 708.4958 L1429.9437 708.4958" clip-path="url(#clipPath2)"/>
      <path d="M1437.9437 708.4958 L1425.9437 703.4958 L1428.9437 708.4958 L1425.9437 713.4958 Z" clip-path="url(#clipPath2)" stroke="none"/>
    </g>
  </g>
</svg>
