<?xml version="1.0" encoding="UTF-8"?><svg xmlns="http://www.w3.org/2000/svg" xmlns:xlink="http://www.w3.org/1999/xlink" fill-opacity="1" color-rendering="auto" color-interpolation="auto" text-rendering="auto" stroke="black" stroke-linecap="square" width="391" stroke-miterlimit="10" shape-rendering="auto" stroke-opacity="1" fill="black" stroke-dasharray="none" font-weight="normal" stroke-width="1" height="212" font-family="'Dialog'" font-style="normal" stroke-linejoin="miter" font-size="12px" stroke-dashoffset="0" image-rendering="auto">
  <!--Generated by ySVG 2.5-->
  <defs id="genericDefs"/>
  <g>
    <defs id="defs1">
      <clipPath clipPathUnits="userSpaceOnUse" id="clipPath1">
        <path d="M0 0 L391 0 L391 212 L0 212 L0 0 Z"/>
      </clipPath>
      <clipPath clipPathUnits="userSpaceOnUse" id="clipPath2">
        <path d="M619 457 L1010 457 L1010 669 L619 669 L619 457 Z"/>
      </clipPath>
      <clipPath clipPathUnits="userSpaceOnUse" id="clipPath3">
        <path d="M-140.7884 35.484 L-140.7884 -355.516 L71.2116 -355.516 L71.2116 35.484 L-140.7884 35.484 Z"/>
      </clipPath>
      <clipPath clipPathUnits="userSpaceOnUse" id="clipPath4">
        <path d="M-140.7884 239.8318 L-140.7884 -151.1682 L71.2116 -151.1682 L71.2116 239.8318 L-140.7884 239.8318 Z"/>
      </clipPath>
    </defs>
    <g fill="white" text-rendering="geometricPrecision" shape-rendering="geometricPrecision" transform="translate(-619,-457)" stroke="white">
      <rect x="619" width="391" height="212" y="457" clip-path="url(#clipPath2)" stroke="none"/>
    </g>
    <g stroke-linecap="butt" transform="matrix(1,0,0,1,-619,-457)" fill="gray" text-rendering="geometricPrecision" shape-rendering="geometricPrecision" stroke-dasharray="6,2" stroke="gray" stroke-miterlimit="1.45">
      <rect x="634.277" y="593.7884" clip-path="url(#clipPath2)" fill="none" width="156.3414" rx="4" ry="4" height="60.1478"/>
    </g>
    <g stroke-linecap="butt" font-size="10px" transform="matrix(0,1,-1,0,35.484,140.7884)" fill="rgb(31,73,125)" text-rendering="geometricPrecision" font-family="'Calibri'" shape-rendering="geometricPrecision" stroke="rgb(31,73,125)" stroke-miterlimit="1.45">
      <text x="2" xml:space="preserve" y="11.5215" clip-path="url(#clipPath3)" stroke="none">udbyder</text>
    </g>
    <g stroke-linecap="butt" transform="matrix(1,0,0,1,-619,-457)" fill="gray" text-rendering="geometricPrecision" shape-rendering="geometricPrecision" stroke="gray" stroke-miterlimit="1.45">
      <rect fill="none" x="670.1708" width="105.1195" height="25" y="611.3623" clip-path="url(#clipPath2)"/>
    </g>
    <g stroke-linecap="butt" font-size="10px" transform="matrix(1,0,0,1,-619,-457)" fill="rgb(51,102,255)" text-rendering="geometricPrecision" font-family="'Calibri'" shape-rendering="geometricPrecision" stroke="rgb(51,102,255)" font-weight="bold" stroke-miterlimit="1.45">
      <text x="682.7233" xml:space="preserve" y="627.2803" clip-path="url(#clipPath2)" stroke="none">forretningstjeneste</text>
    </g>
    <g stroke-linecap="butt" transform="matrix(1,0,0,1,-619,-457)" fill="gray" text-rendering="geometricPrecision" shape-rendering="geometricPrecision" stroke-dasharray="6,2" stroke="gray" stroke-miterlimit="1.45">
      <rect x="739.0296" y="472.6559" clip-path="url(#clipPath2)" fill="none" width="157.235" rx="4" ry="4" height="71.0337"/>
    </g>
    <g stroke-linecap="butt" font-size="10px" transform="matrix(1,0,0,1,-619,-457)" fill="rgb(148,0,39)" text-rendering="geometricPrecision" font-family="'Calibri'" shape-rendering="geometricPrecision" stroke="rgb(148,0,39)" stroke-miterlimit="1.45">
      <text x="745.0296" xml:space="preserve" y="488.1774" clip-path="url(#clipPath2)" stroke="none">tillidstjeneste (broker)</text>
    </g>
    <g fill="white" text-rendering="geometricPrecision" shape-rendering="geometricPrecision" transform="matrix(1,0,0,1,-619,-457)" stroke="white">
      <rect x="774.5198" width="105.1195" height="25" y="506.0746" clip-path="url(#clipPath2)" stroke="none"/>
    </g>
    <g stroke-linecap="butt" transform="matrix(1,0,0,1,-619,-457)" fill="gray" text-rendering="geometricPrecision" shape-rendering="geometricPrecision" stroke="gray" stroke-miterlimit="1.45">
      <rect fill="none" x="774.5198" width="105.1195" height="25" y="506.0746" clip-path="url(#clipPath2)"/>
    </g>
    <g stroke-linecap="butt" font-size="10px" transform="matrix(1,0,0,1,-619,-457)" fill="rgb(148,0,39)" text-rendering="geometricPrecision" font-family="'Calibri'" shape-rendering="geometricPrecision" stroke="rgb(148,0,39)" font-weight="bold" stroke-miterlimit="1.45">
      <text x="796.0225" xml:space="preserve" y="521.9926" clip-path="url(#clipPath2)" stroke="none">autentifikation</text>
    </g>
    <g stroke-linecap="butt" transform="matrix(1,0,0,1,-619,-457)" fill="gray" text-rendering="geometricPrecision" shape-rendering="geometricPrecision" stroke-dasharray="6,2" stroke="gray" stroke-miterlimit="1.45">
      <rect x="838.6248" y="593.7884" clip-path="url(#clipPath2)" fill="none" width="156.3414" rx="4" ry="4" height="60.1478"/>
    </g>
    <g stroke-linecap="butt" font-size="10px" transform="matrix(0,1,-1,0,239.8318,140.7884)" fill="rgb(31,73,125)" text-rendering="geometricPrecision" font-family="'Calibri'" shape-rendering="geometricPrecision" stroke="rgb(31,73,125)" stroke-miterlimit="1.45">
      <text x="2" xml:space="preserve" y="11.5215" clip-path="url(#clipPath4)" stroke="none">brugerorg</text>
    </g>
    <g fill="white" text-rendering="geometricPrecision" shape-rendering="geometricPrecision" transform="matrix(1,0,0,1,-619,-457)" stroke="white">
      <rect x="875.8695" width="105.1195" height="25" y="611.3623" clip-path="url(#clipPath2)" stroke="none"/>
    </g>
    <g stroke-linecap="butt" transform="matrix(1,0,0,1,-619,-457)" fill="gray" text-rendering="geometricPrecision" shape-rendering="geometricPrecision" stroke="gray" stroke-miterlimit="1.45">
      <rect fill="none" x="875.8695" width="105.1195" height="25" y="611.3623" clip-path="url(#clipPath2)"/>
    </g>
    <g stroke-linecap="butt" font-size="10px" transform="matrix(1,0,0,1,-619,-457)" fill="rgb(148,0,39)" text-rendering="geometricPrecision" font-family="'Calibri'" shape-rendering="geometricPrecision" stroke="rgb(148,0,39)" font-weight="bold" stroke-miterlimit="1.45">
      <text x="897.3721" xml:space="preserve" y="627.2803" clip-path="url(#clipPath2)" stroke="none">autentifikation</text>
    </g>
    <g transform="matrix(1,0,0,1,-619,-457)" fill-opacity="0.902" fill="rgb(255,255,255)" text-rendering="geometricPrecision" shape-rendering="geometricPrecision" stroke="rgb(255,255,255)" stroke-opacity="0.902">
      <rect x="650.5752" y="552.239" clip-path="url(#clipPath2)" width="66" rx="4" ry="4" height="33" stroke="none"/>
    </g>
    <g stroke-linecap="butt" font-size="10px" transform="matrix(1,0,0,1,-619,-457)" fill="gray" text-rendering="geometricPrecision" font-family="'Helvetica Neue'" shape-rendering="geometricPrecision" font-style="italic" stroke="gray" stroke-miterlimit="1.45">
      <text x="649.8652" xml:space="preserve" y="572.459" clip-path="url(#clipPath2)" stroke="none">Trust boundary</text>
    </g>
    <g text-rendering="geometricPrecision" stroke-miterlimit="1.45" shape-rendering="geometricPrecision" transform="matrix(1,0,0,1,-619,-457)" stroke-linecap="butt">
      <path fill="none" d="M735.1191 611.3623 L809.0596 536.7567" clip-path="url(#clipPath2)"/>
      <path d="M814.691 531.0746 L802.6925 536.0781 L808.3557 537.467 L809.7952 543.1174 Z" clip-path="url(#clipPath2)" stroke="none"/>
      <path fill="none" d="M839.1121 531.0746 L910.8488 605.5987" clip-path="url(#clipPath2)"/>
      <path d="M916.3968 611.3623 L911.677 599.2493 L910.1553 604.8782 L904.4725 606.1844 Z" clip-path="url(#clipPath2)" stroke="none"/>
    </g>
  </g>
</svg>
