<?xml version="1.0" encoding="UTF-8"?><svg xmlns="http://www.w3.org/2000/svg" xmlns:xlink="http://www.w3.org/1999/xlink" fill-opacity="1" color-rendering="auto" color-interpolation="auto" text-rendering="auto" stroke="black" stroke-linecap="square" width="402" stroke-miterlimit="10" shape-rendering="auto" stroke-opacity="1" fill="black" stroke-dasharray="none" font-weight="normal" stroke-width="1" height="231" font-family="'Dialog'" font-style="normal" stroke-linejoin="miter" font-size="12px" stroke-dashoffset="0" image-rendering="auto">
  <!--Generated by ySVG 2.5-->
  <defs id="genericDefs"/>
  <g>
    <defs id="defs1">
      <clipPath clipPathUnits="userSpaceOnUse" id="clipPath1">
        <path d="M0 0 L402 0 L402 231 L0 231 L0 0 Z"/>
      </clipPath>
      <clipPath clipPathUnits="userSpaceOnUse" id="clipPath2">
        <path d="M6 -1 L408 -1 L408 230 L6 230 L6 -1 Z"/>
      </clipPath>
      <clipPath clipPathUnits="userSpaceOnUse" id="clipPath3">
        <path d="M-140.9815 33.2608 L-140.9815 -368.7392 L90.0185 -368.7392 L90.0185 33.2608 L-140.9815 33.2608 Z"/>
      </clipPath>
      <clipPath clipPathUnits="userSpaceOnUse" id="clipPath4">
        <path d="M-19.849 148.6723 L-19.849 -253.3277 L211.151 -253.3277 L211.151 148.6723 L-19.849 148.6723 Z"/>
      </clipPath>
      <clipPath clipPathUnits="userSpaceOnUse" id="clipPath5">
        <path d="M-140.9815 248.2675 L-140.9815 -153.7325 L90.0185 -153.7325 L90.0185 248.2675 L-140.9815 248.2675 Z"/>
      </clipPath>
    </defs>
    <g fill="white" text-rendering="geometricPrecision" shape-rendering="geometricPrecision" transform="translate(-6,1)" stroke="white">
      <rect x="6" width="402" height="231" y="-1" clip-path="url(#clipPath2)" stroke="none"/>
    </g>
    <g stroke-linecap="butt" transform="matrix(1,0,0,1,-6,1)" fill="gray" text-rendering="geometricPrecision" shape-rendering="geometricPrecision" stroke-dasharray="6,2" stroke="gray" stroke-miterlimit="1.45">
      <rect x="21.2608" y="135.9815" clip-path="url(#clipPath2)" fill="none" width="167.0004" rx="4" ry="4" height="78.102"/>
    </g>
    <g stroke-linecap="butt" font-size="10px" transform="matrix(0,1,-1,0,33.2608,140.9815)" fill="rgb(51,102,255)" text-rendering="geometricPrecision" font-family="'Calibri'" shape-rendering="geometricPrecision" stroke="rgb(51,102,255)" stroke-miterlimit="1.45">
      <text x="2" xml:space="preserve" y="9.5" clip-path="url(#clipPath3)" stroke="none">tjenesteudbyder</text>
    </g>
    <g stroke-linecap="butt" transform="matrix(1,0,0,1,-6,1)" fill="gray" text-rendering="geometricPrecision" shape-rendering="geometricPrecision" stroke="gray" stroke-miterlimit="1.45">
      <rect x="59.7771" y="166.3651" clip-path="url(#clipPath2)" fill="none" width="105.1195" rx="4" ry="4" height="25"/>
    </g>
    <g stroke-linecap="butt" font-size="10px" transform="matrix(1,0,0,1,-6,1)" fill="rgb(51,102,255)" text-rendering="geometricPrecision" font-family="'Calibri'" shape-rendering="geometricPrecision" stroke="rgb(51,102,255)" font-weight="bold" stroke-miterlimit="1.45">
      <text x="72.3296" xml:space="preserve" y="181.3651" clip-path="url(#clipPath2)" stroke="none">forretningstjeneste</text>
    </g>
    <g stroke-linecap="butt" transform="matrix(1,0,0,1,-6,1)" fill="gray" text-rendering="geometricPrecision" shape-rendering="geometricPrecision" stroke-dasharray="6,2" stroke="gray" stroke-miterlimit="1.45">
      <rect x="136.6723" y="14.849" clip-path="url(#clipPath2)" fill="none" width="157.235" rx="4" ry="4" height="71.0337"/>
    </g>
    <g stroke-linecap="butt" font-size="10px" transform="matrix(0,1,-1,0,148.6723,19.849)" fill="rgb(148,0,39)" text-rendering="geometricPrecision" font-family="'Calibri'" shape-rendering="geometricPrecision" stroke="rgb(148,0,39)" stroke-miterlimit="1.45">
      <text x="2" xml:space="preserve" y="9.5" clip-path="url(#clipPath4)" stroke="none">tillidstjeneste</text>
    </g>
    <g fill="white" text-rendering="geometricPrecision" shape-rendering="geometricPrecision" transform="matrix(1,0,0,1,-6,1)" stroke="white">
      <rect x="170.1535" y="37.8658" clip-path="url(#clipPath2)" width="105.1195" rx="4" ry="4" height="25" stroke="none"/>
    </g>
    <g stroke-linecap="butt" transform="matrix(1,0,0,1,-6,1)" fill="gray" text-rendering="geometricPrecision" shape-rendering="geometricPrecision" stroke="gray" stroke-miterlimit="1.45">
      <rect x="170.1535" y="37.8658" clip-path="url(#clipPath2)" fill="none" width="105.1195" rx="4" ry="4" height="25"/>
    </g>
    <g stroke-linecap="butt" font-size="10px" transform="matrix(1,0,0,1,-6,1)" fill="rgb(148,0,39)" text-rendering="geometricPrecision" font-family="'Calibri'" shape-rendering="geometricPrecision" stroke="rgb(148,0,39)" font-weight="bold" stroke-miterlimit="1.45">
      <text x="191.6561" xml:space="preserve" y="52.8658" clip-path="url(#clipPath2)" stroke="none">autentifikation</text>
    </g>
    <g stroke-linecap="butt" transform="matrix(1,0,0,1,-6,1)" fill="gray" text-rendering="geometricPrecision" shape-rendering="geometricPrecision" stroke-dasharray="6,2" stroke="gray" stroke-miterlimit="1.45">
      <rect x="236.2676" y="135.9815" clip-path="url(#clipPath2)" fill="none" width="156.3414" rx="4" ry="4" height="78.102"/>
    </g>
    <g stroke-linecap="butt" font-size="10px" transform="matrix(0,1,-1,0,248.2676,140.9815)" fill="rgb(148,0,39)" text-rendering="geometricPrecision" font-family="'Calibri'" shape-rendering="geometricPrecision" stroke="rgb(148,0,39)" stroke-miterlimit="1.45">
      <text x="2" xml:space="preserve" y="9.5" clip-path="url(#clipPath5)" stroke="none">tillidstjeneste</text>
    </g>
    <g fill="white" text-rendering="geometricPrecision" shape-rendering="geometricPrecision" transform="matrix(1,0,0,1,-6,1)" stroke="white">
      <rect x="268.8243" y="167.0348" clip-path="url(#clipPath2)" width="105.1195" rx="4" ry="4" height="25" stroke="none"/>
    </g>
    <g stroke-linecap="butt" transform="matrix(1,0,0,1,-6,1)" fill="gray" text-rendering="geometricPrecision" shape-rendering="geometricPrecision" stroke="gray" stroke-miterlimit="1.45">
      <rect x="268.8243" y="167.0348" clip-path="url(#clipPath2)" fill="none" width="105.1195" rx="4" ry="4" height="25"/>
    </g>
    <g stroke-linecap="butt" font-size="10px" transform="matrix(1,0,0,1,-6,1)" fill="rgb(148,0,39)" text-rendering="geometricPrecision" font-family="'Calibri'" shape-rendering="geometricPrecision" stroke="rgb(148,0,39)" font-weight="bold" stroke-miterlimit="1.45">
      <text x="290.3269" xml:space="preserve" y="182.0348" clip-path="url(#clipPath2)" stroke="none">autentifikation</text>
    </g>
    <g transform="matrix(1,0,0,1,-6,1)" fill-opacity="0.902" fill="rgb(255,255,255)" text-rendering="geometricPrecision" shape-rendering="geometricPrecision" stroke="rgb(255,255,255)" stroke-opacity="0.902">
      <rect x="48.2179" y="94.4321" clip-path="url(#clipPath2)" width="66" rx="4" ry="4" height="33" stroke="none"/>
    </g>
    <g stroke-linecap="butt" font-size="10px" transform="matrix(1,0,0,1,-6,1)" fill="gray" text-rendering="geometricPrecision" shape-rendering="geometricPrecision" font-style="italic" stroke="gray" stroke-miterlimit="1.45">
      <text x="47.59" xml:space="preserve" y="114.8603" clip-path="url(#clipPath2)" stroke="none">Trust boundary</text>
    </g>
    <g text-rendering="geometricPrecision" stroke-miterlimit="1.45" shape-rendering="geometricPrecision" transform="matrix(1,0,0,1,-6,1)" stroke-linecap="butt">
      <path fill="none" d="M123.0889 166.3477 L206.7744 68.9217" clip-path="url(#clipPath2)"/>
      <path d="M211.9871 62.8531 L200.3752 68.6981 L206.1228 69.6803 L207.9609 75.214 Z" clip-path="url(#clipPath2)" stroke="none"/>
      <path fill="none" d="M232.2768 62.8854 L306.9774 160.6752" clip-path="url(#clipPath2)"/>
      <path d="M311.8337 167.0326 L308.5226 154.4613 L306.3704 159.8806 L300.5759 160.5317 Z" clip-path="url(#clipPath2)" stroke="none"/>
    </g>
  </g>
</svg>
