<?xml version="1.0" encoding="UTF-8"?><svg xmlns="http://www.w3.org/2000/svg" xmlns:xlink="http://www.w3.org/1999/xlink" fill-opacity="1" color-rendering="auto" color-interpolation="auto" text-rendering="auto" stroke="black" stroke-linecap="square" width="386" stroke-miterlimit="10" shape-rendering="auto" stroke-opacity="1" fill="black" stroke-dasharray="none" font-weight="normal" stroke-width="1" height="173" font-family="'Dialog'" font-style="normal" stroke-linejoin="miter" font-size="12px" stroke-dashoffset="0" image-rendering="auto">
  <!--Generated by ySVG 2.5-->
  <defs id="genericDefs"/>
  <g>
    <defs id="defs1">
      <clipPath clipPathUnits="userSpaceOnUse" id="clipPath1">
        <path d="M0 0 L386 0 L386 173 L0 173 L0 0 Z"/>
      </clipPath>
      <clipPath clipPathUnits="userSpaceOnUse" id="clipPath2">
        <path d="M619 458 L1005 458 L1005 631 L619 631 L619 458 Z"/>
      </clipPath>
      <clipPath clipPathUnits="userSpaceOnUse" id="clipPath3">
        <path d="M-19.0746 35.3838 L-19.0746 -350.6162 L153.9254 -350.6162 L153.9254 35.3838 L-19.0746 35.3838 Z"/>
      </clipPath>
    </defs>
    <g fill="white" text-rendering="geometricPrecision" shape-rendering="geometricPrecision" transform="translate(-619,-458)" stroke="white">
      <rect x="619" width="386" height="173" y="458" clip-path="url(#clipPath2)" stroke="none"/>
    </g>
    <g stroke-linecap="butt" transform="matrix(1,0,0,1,-619,-458)" fill="gray" text-rendering="geometricPrecision" shape-rendering="geometricPrecision" stroke-dasharray="6,2" stroke="gray" stroke-miterlimit="1.45">
      <rect x="634.1767" y="473.0746" clip-path="url(#clipPath2)" fill="none" width="355.7834" rx="4" ry="4" height="142.6252"/>
    </g>
    <g stroke-linecap="butt" font-size="10px" transform="matrix(0,1,-1,0,35.3838,19.0746)" fill="rgb(31,73,125)" text-rendering="geometricPrecision" font-family="'Calibri'" shape-rendering="geometricPrecision" stroke="rgb(31,73,125)" stroke-miterlimit="1.45">
      <text x="2" xml:space="preserve" y="11.5215" clip-path="url(#clipPath3)" stroke="none">udbyder af forretningstjeneste</text>
    </g>
    <g stroke-linecap="butt" transform="matrix(1,0,0,1,-619,-458)" fill="gray" text-rendering="geometricPrecision" shape-rendering="geometricPrecision" stroke="gray" stroke-miterlimit="1.45">
      <rect fill="none" x="664.6744" width="105.1195" height="25" y="573.1259" clip-path="url(#clipPath2)"/>
    </g>
    <g stroke-linecap="butt" font-size="10px" transform="matrix(1,0,0,1,-619,-458)" fill="rgb(51,102,255)" text-rendering="geometricPrecision" font-family="'Calibri'" shape-rendering="geometricPrecision" stroke="rgb(51,102,255)" font-weight="bold" stroke-miterlimit="1.45">
      <text x="677.2269" xml:space="preserve" y="589.0438" clip-path="url(#clipPath2)" stroke="none">forretningstjeneste</text>
    </g>
    <g fill="white" text-rendering="geometricPrecision" shape-rendering="geometricPrecision" transform="matrix(1,0,0,1,-619,-458)" stroke="white">
      <rect x="840.4913" width="105.1195" height="25" y="541.4316" clip-path="url(#clipPath2)" stroke="none"/>
    </g>
    <g stroke-linecap="butt" transform="matrix(1,0,0,1,-619,-458)" fill="gray" text-rendering="geometricPrecision" shape-rendering="geometricPrecision" stroke="gray" stroke-miterlimit="1.45">
      <rect fill="none" x="840.4913" width="105.1195" height="25" y="541.4316" clip-path="url(#clipPath2)"/>
    </g>
    <g stroke-linecap="butt" font-size="10px" transform="matrix(1,0,0,1,-619,-458)" fill="rgb(148,0,39)" text-rendering="geometricPrecision" font-family="'Calibri'" shape-rendering="geometricPrecision" stroke="rgb(148,0,39)" font-weight="bold" stroke-miterlimit="1.45">
      <text x="861.9939" xml:space="preserve" y="557.3495" clip-path="url(#clipPath2)" stroke="none">autentifikation</text>
    </g>
    <g stroke-linecap="butt" transform="matrix(1,0,0,1,-619,-458)" fill="gray" text-rendering="geometricPrecision" shape-rendering="geometricPrecision" stroke="gray" stroke-miterlimit="1.45">
      <rect fill="none" x="664.6744" width="105.1195" height="25" y="536.1362" clip-path="url(#clipPath2)"/>
    </g>
    <g stroke-linecap="butt" font-size="10px" transform="matrix(1,0,0,1,-619,-458)" fill="rgb(51,102,255)" text-rendering="geometricPrecision" font-family="'Calibri'" shape-rendering="geometricPrecision" stroke="rgb(51,102,255)" font-weight="bold" stroke-miterlimit="1.45">
      <text x="677.2269" xml:space="preserve" y="552.0542" clip-path="url(#clipPath2)" stroke="none">forretningstjeneste</text>
    </g>
    <g stroke-linecap="butt" transform="matrix(1,0,0,1,-619,-458)" fill="gray" text-rendering="geometricPrecision" shape-rendering="geometricPrecision" stroke="gray" stroke-miterlimit="1.45">
      <rect fill="none" x="664.6744" width="105.1195" height="25" y="499.1466" clip-path="url(#clipPath2)"/>
    </g>
    <g stroke-linecap="butt" font-size="10px" transform="matrix(1,0,0,1,-619,-458)" fill="rgb(51,102,255)" text-rendering="geometricPrecision" font-family="'Calibri'" shape-rendering="geometricPrecision" stroke="rgb(51,102,255)" font-weight="bold" stroke-miterlimit="1.45">
      <text x="677.2269" xml:space="preserve" y="515.0646" clip-path="url(#clipPath2)" stroke="none">forretningstjeneste</text>
    </g>
    <g text-rendering="geometricPrecision" stroke-miterlimit="1.45" shape-rendering="geometricPrecision" transform="matrix(1,0,0,1,-619,-458)" stroke-linecap="butt">
      <path fill="none" d="M769.7939 576.151 L832.6182 564.8257" clip-path="url(#clipPath2)"/>
      <path d="M840.4913 563.4065 L827.7946 560.6147 L831.634 565.0032 L829.5687 570.4561 Z" clip-path="url(#clipPath2)" stroke="none"/>
      <path fill="none" d="M769.7939 550.2192 L832.4949 552.1077" clip-path="url(#clipPath2)"/>
      <path d="M840.4913 552.3486 L828.6472 546.9896 L831.4954 552.0776 L828.3462 556.985 Z" clip-path="url(#clipPath2)" stroke="none"/>
      <path fill="none" d="M769.2079 524.1466 L833.2991 539.5609" clip-path="url(#clipPath2)"/>
      <path d="M841.0773 541.4316 L830.5791 533.7642 L832.3268 539.3271 L828.2408 543.4869 Z" clip-path="url(#clipPath2)" stroke="none"/>
    </g>
  </g>
</svg>
