<?xml version="1.0" encoding="UTF-8"?><svg xmlns="http://www.w3.org/2000/svg" xmlns:xlink="http://www.w3.org/1999/xlink" fill-opacity="1" color-rendering="auto" color-interpolation="auto" text-rendering="auto" stroke="black" stroke-linecap="square" width="774" stroke-miterlimit="10" shape-rendering="auto" stroke-opacity="1" fill="black" stroke-dasharray="none" font-weight="normal" stroke-width="1" height="409" font-family="'Dialog'" font-style="normal" stroke-linejoin="miter" font-size="12px" stroke-dashoffset="0" image-rendering="auto">
  <!--Generated by ySVG 2.5-->
  <defs id="genericDefs"/>
  <g>
    <defs id="defs1">
      <clipPath clipPathUnits="userSpaceOnUse" id="clipPath1">
        <path d="M0 0 L774 0 L774 409 L0 409 L0 0 Z"/>
      </clipPath>
      <clipPath clipPathUnits="userSpaceOnUse" id="clipPath2">
        <path d="M135 84 L909 84 L909 493 L135 493 L135 84 Z"/>
      </clipPath>
      <clipPath clipPathUnits="userSpaceOnUse" id="clipPath3">
        <path d="M0 0 L0 18 L111 18 L111 0 Z"/>
      </clipPath>
      <script type="text/ecmascript">
        <![CDATA[      var SVGDocument = null;
      var SVGRoot = null;
      var TrueCoords = null;
      var lastElement = null;
      var initialized = null;
      var tipGroup;
      function Init(evt)
      {
         SVGDocument = evt.target.ownerDocument;
         SVGRoot = SVGDocument.documentElement;
         TrueCoords = SVGRoot.createSVGPoint();
         initialized = evt;
      };
      function GetTrueCoords(evt)
      {
         var newScale = SVGRoot.currentScale;
         var translation = SVGRoot.currentTranslate;
         TrueCoords.x = (evt.clientX - translation.x)/newScale;
         TrueCoords.y = (evt.clientY - translation.y)/newScale;
      };
      function HideTooltip( evt )
      {
         if(initialized == null) {
           Init(evt);
         }
         if(tipGroup != null) {
           tipGroup.setAttributeNS(null, 'visibility', 'hidden');
         }
      };
      function ShowTooltip( evt )
      {
         if(initialized == null) {
           Init(evt);
         }
         GetTrueCoords( evt );
         var tipScale = 1/SVGRoot.currentScale;
         var targetElement = evt.currentTarget;
         if ( lastElement != targetElement )
         {
            var targetId = targetElement.getAttributeNS(null, 'id');
            var tipId = 'tooltip.' + targetId;
            tipGroup = SVGDocument.getElementById(tipId);
            var xPos = TrueCoords.x + (10 * tipScale);
            var yPos = TrueCoords.y + (10 * tipScale);
            tipGroup.setAttributeNS(null, 'transform', 'translate(' + xPos + ',' + yPos + ') scale(' + tipScale + ')');
            tipGroup.setAttributeNS(null, 'visibility', 'visible');
         }
      };
]]>
      </script>
    </defs>
    <g fill="white" text-rendering="geometricPrecision" shape-rendering="geometricPrecision" transform="translate(-135,-84)" stroke="white">
      <rect x="135" width="774" height="409" y="84" clip-path="url(#clipPath2)" stroke="none"/>
    </g>
    <g onmouseout="HideTooltip(evt)" id="y.node.0" onmousemove="ShowTooltip(evt)">
      <a target="_blank" xlink:type="simple" xlink:href="http://data.gov.dk" xlink:show="new">
        <g stroke-linecap="butt" transform="matrix(1,0,0,1,-135,-84)" fill="gray" text-rendering="geometricPrecision" shape-rendering="geometricPrecision" stroke="gray" stroke-miterlimit="1.45">
          <rect x="351.9344" y="283.7938" fill="none" width="148.4757" rx="4" ry="4" height="193.6042"/>
        </g>
        <g>
          <g stroke-linecap="butt" font-size="14px" transform="matrix(1,0,0,1,-135,-84)" fill="rgb(148,0,39)" text-rendering="geometricPrecision" font-family="'Arial'" shape-rendering="geometricPrecision" stroke="rgb(148,0,39)" font-weight="bold" stroke-miterlimit="1.45">
            <text x="368.2172" xml:space="preserve" y="302.4677" stroke="none">sikring af adgang</text>
          </g>
        </g>
      </a>
    </g>
    <g onmouseout="HideTooltip(evt)" id="y.node.1" onmousemove="ShowTooltip(evt)">
      <a target="_blank" xlink:type="simple" xlink:href="http://data.gov.dk" xlink:show="new">
        <g stroke-linecap="butt" transform="matrix(1,0,0,1,-135,-84)" fill="gray" text-rendering="geometricPrecision" shape-rendering="geometricPrecision" stroke="gray" stroke-miterlimit="1.45">
          <rect x="150.8845" y="99.5939" fill="none" width="742.1549" rx="4" ry="4" height="82.2795"/>
        </g>
        <g>
          <g stroke-linecap="butt" font-size="14px" transform="matrix(1,0,0,1,-135,-84)" fill="gray" text-rendering="geometricPrecision" font-family="'Arial'" shape-rendering="geometricPrecision" font-style="italic" stroke="gray" stroke-miterlimit="1.45">
            <text x="421.9659" xml:space="preserve" y="118.2678" stroke="none">ledelse af informationssikkerhed</text>
          </g>
        </g>
      </a>
    </g>
    <g onmouseout="HideTooltip(evt)" id="y.node.2" onmousemove="ShowTooltip(evt)">
      <a target="_blank" xlink:type="simple" xlink:href="http://data.gov.dk" xlink:show="new">
        <g stroke-linecap="butt" transform="matrix(1,0,0,1,-135,-84)" fill="gray" text-rendering="geometricPrecision" shape-rendering="geometricPrecision" stroke="gray" stroke-miterlimit="1.45">
          <rect x="150.8845" y="283.7938" fill="none" width="189.7659" rx="4" ry="4" height="193.6042"/>
        </g>
        <g>
          <g stroke-linecap="butt" font-size="14px" transform="matrix(1,0,0,1,-135,-84)" fill="rgb(148,0,39)" text-rendering="geometricPrecision" font-family="'Arial'" shape-rendering="geometricPrecision" stroke="rgb(148,0,39)" font-weight="bold" stroke-miterlimit="1.45">
            <text x="161.3641" xml:space="preserve" y="302.4677" stroke="none">administration af brugere</text>
          </g>
        </g>
      </a>
    </g>
    <g onmouseout="HideTooltip(evt)" id="y.node.3" onmousemove="ShowTooltip(evt)">
      <a target="_blank" xlink:type="simple" xlink:href="http://data.gov.dk" xlink:show="new">
        <g stroke-linecap="butt" transform="matrix(1,0,0,1,-135,-84)" fill="gray" text-rendering="geometricPrecision" shape-rendering="geometricPrecision" stroke="gray" stroke-miterlimit="1.45">
          <rect x="163.7679" y="323.7212" fill="none" width="163.9991" rx="4" ry="4" height="44.937"/>
        </g>
        <g>
          <g stroke-linecap="butt" font-size="14px" transform="matrix(1,0,0,1,-135,-84)" fill="rgb(148,0,39)" text-rendering="geometricPrecision" font-family="'Arial'" shape-rendering="geometricPrecision" stroke="rgb(148,0,39)" font-weight="bold" stroke-miterlimit="1.45">
            <text x="201.0296" xml:space="preserve" y="343.2229" stroke="none">udstedelse af</text>
          </g>
          <g stroke-linecap="butt" font-size="14px" transform="matrix(1,0,0,1,-135,-84)" fill="rgb(148,0,39)" text-rendering="geometricPrecision" font-family="'Arial'" shape-rendering="geometricPrecision" stroke="rgb(148,0,39)" font-weight="bold" stroke-miterlimit="1.45">
            <text x="177.3124" xml:space="preserve" y="358.8636" stroke="none">identifikationsmidler</text>
          </g>
        </g>
      </a>
    </g>
    <g onmouseout="HideTooltip(evt)" id="y.node.4" onmousemove="ShowTooltip(evt)">
      <a target="_blank" xlink:type="simple" xlink:href="http://data.gov.dk" xlink:show="new">
        <g stroke-linecap="butt" transform="matrix(1,0,0,1,-135,-84)" fill="gray" text-rendering="geometricPrecision" shape-rendering="geometricPrecision" stroke="gray" stroke-miterlimit="1.45">
          <rect x="163.7679" y="391.0645" fill="none" width="163.9991" rx="4" ry="4" height="44.937"/>
        </g>
        <g>
          <g stroke-linecap="butt" font-size="14px" transform="matrix(1,0,0,1,-135,-84)" fill="rgb(148,0,39)" text-rendering="geometricPrecision" font-family="'Arial'" shape-rendering="geometricPrecision" stroke="rgb(148,0,39)" font-weight="bold" stroke-miterlimit="1.45">
            <text x="196.7538" xml:space="preserve" y="410.5662" stroke="none">registrering af </text>
            <text x="212.7123" xml:space="preserve" y="426.2068" stroke="none">attributter</text>
          </g>
        </g>
      </a>
    </g>
    <g onmouseout="HideTooltip(evt)" id="y.node.5" onmousemove="ShowTooltip(evt)">
      <a target="_blank" xlink:type="simple" xlink:href="http://data.gov.dk" xlink:show="new">
        <g stroke-linecap="butt" transform="matrix(1,0,0,1,-135,-84)" fill="gray" text-rendering="geometricPrecision" shape-rendering="geometricPrecision" stroke="gray" stroke-miterlimit="1.45">
          <rect x="510.0442" y="283.7938" fill="none" width="163.9991" rx="4" ry="4" height="193.6042"/>
        </g>
        <g>
          <g stroke-linecap="butt" font-size="14px" transform="matrix(1,0,0,1,-135,-84)" fill="rgb(31,73,125)" text-rendering="geometricPrecision" font-family="'Arial'" shape-rendering="geometricPrecision" stroke="rgb(31,73,125)" stroke-miterlimit="1.45">
            <text x="532.1234" xml:space="preserve" y="302.4677" stroke="none">forretningstjenester</text>
          </g>
        </g>
      </a>
    </g>
    <g onmouseout="HideTooltip(evt)" id="y.node.6" onmousemove="ShowTooltip(evt)">
      <a target="_blank" xlink:type="simple" xlink:href="http://data.gov.dk" xlink:show="new">
        <g stroke-linecap="butt" transform="matrix(1,0,0,1,-135,-84)" fill="gray" text-rendering="geometricPrecision" shape-rendering="geometricPrecision" stroke="gray" stroke-miterlimit="1.45">
          <rect x="363.4587" y="331.0645" fill="none" width="127.0199" rx="4" ry="4" height="30"/>
        </g>
        <g>
          <g stroke-linecap="butt" font-size="14px" transform="matrix(1,0,0,1,-135,-84)" fill="rgb(148,0,39)" text-rendering="geometricPrecision" font-family="'Arial'" shape-rendering="geometricPrecision" stroke="rgb(148,0,39)" font-weight="bold" stroke-miterlimit="1.45">
            <text x="379.1342" xml:space="preserve" y="350.918" stroke="none">autentification</text>
          </g>
        </g>
      </a>
    </g>
    <g onmouseout="HideTooltip(evt)" id="y.node.7" onmousemove="ShowTooltip(evt)">
      <a target="_blank" xlink:type="simple" xlink:href="http://data.gov.dk" xlink:show="new">
        <g stroke-linecap="butt" transform="matrix(1,0,0,1,-135,-84)" fill="gray" text-rendering="geometricPrecision" shape-rendering="geometricPrecision" stroke="gray" stroke-miterlimit="1.45">
          <rect x="363.4587" y="418.0528" fill="none" width="127.0199" rx="4" ry="4" height="44.937"/>
        </g>
        <g>
          <g stroke-linecap="butt" font-size="14px" transform="matrix(1,0,0,1,-135,-84)" fill="rgb(148,0,39)" text-rendering="geometricPrecision" font-family="'Arial'" shape-rendering="geometricPrecision" stroke="rgb(148,0,39)" font-weight="bold" stroke-miterlimit="1.45">
            <text x="403.248" xml:space="preserve" y="437.5545" stroke="none">udføre </text>
            <text x="374.4653" xml:space="preserve" y="453.1951" stroke="none">adgangskontrol</text>
          </g>
        </g>
      </a>
    </g>
    <g onmouseout="HideTooltip(evt)" id="y.node.8" onmousemove="ShowTooltip(evt)">
      <a target="_blank" xlink:type="simple" xlink:href="http://data.gov.dk" xlink:show="new">
        <g stroke-linecap="butt" transform="matrix(1,0,0,1,-135,-84)" fill="gray" text-rendering="geometricPrecision" shape-rendering="geometricPrecision" stroke="gray" stroke-miterlimit="1.45">
          <rect x="150.8845" y="200.5207" fill="none" width="523.1588" rx="4" ry="4" height="75.6408"/>
        </g>
        <g>
          <g stroke-linecap="butt" font-size="14px" transform="matrix(1,0,0,1,-135,-84)" fill="gray" text-rendering="geometricPrecision" font-family="'Arial'" shape-rendering="geometricPrecision" font-style="italic" stroke="gray" stroke-miterlimit="1.45">
            <text x="332.3126" xml:space="preserve" y="219.1945" stroke="none">administration af tjenester</text>
          </g>
        </g>
      </a>
    </g>
    <g onmouseout="HideTooltip(evt)" id="y.node.9" onmousemove="ShowTooltip(evt)">
      <a target="_blank" xlink:type="simple" xlink:href="http://data.gov.dk" xlink:show="new">
        <g stroke-linecap="butt" transform="matrix(1,0,0,1,-135,-84)" fill="gray" text-rendering="geometricPrecision" shape-rendering="geometricPrecision" stroke="gray" stroke-miterlimit="1.45">
          <rect x="429.2214" y="234.8087" fill="none" width="189.7659" rx="4" ry="4" height="30"/>
        </g>
        <g>
          <g stroke-linecap="butt" font-size="14px" transform="matrix(1,0,0,1,-135,-84)" fill="rgb(148,0,39)" text-rendering="geometricPrecision" font-family="'Arial'" shape-rendering="geometricPrecision" stroke="rgb(148,0,39)" font-weight="bold" stroke-miterlimit="1.45">
            <text x="444.7664" xml:space="preserve" y="254.6622" stroke="none">udforme adgangspolitik</text>
          </g>
        </g>
      </a>
    </g>
    <g onmouseout="HideTooltip(evt)" id="y.node.10" onmousemove="ShowTooltip(evt)">
      <a target="_blank" xlink:type="simple" xlink:href="http://data.gov.dk" xlink:show="new">
        <g stroke-linecap="butt" transform="matrix(1,0,0,1,-135,-84)" fill="gray" text-rendering="geometricPrecision" shape-rendering="geometricPrecision" stroke="gray" stroke-miterlimit="1.45">
          <rect x="182.0831" y="135.6917" fill="none" width="209.281" rx="4" ry="4" height="30"/>
        </g>
        <g>
          <g stroke-linecap="butt" font-size="14px" transform="matrix(1,0,0,1,-135,-84)" fill="rgb(31,73,125)" text-rendering="geometricPrecision" font-family="'Arial'" shape-rendering="geometricPrecision" stroke="rgb(31,73,125)" stroke-miterlimit="1.45">
            <text x="192.9482" xml:space="preserve" y="155.5452" stroke="none">godkende sikkerhedspolitikker</text>
          </g>
        </g>
      </a>
    </g>
    <g onmouseout="HideTooltip(evt)" id="y.node.11" onmousemove="ShowTooltip(evt)">
      <a target="_blank" xlink:type="simple" xlink:href="http://data.gov.dk" xlink:show="new">
        <g stroke-linecap="butt" transform="matrix(1,0,0,1,-135,-84)" fill="gray" text-rendering="geometricPrecision" shape-rendering="geometricPrecision" stroke="gray" stroke-miterlimit="1.45">
          <rect x="622.7726" y="135.6917" fill="none" width="171.4085" rx="4" ry="4" height="30"/>
        </g>
        <g>
          <g stroke-linecap="butt" font-size="14px" transform="matrix(1,0,0,1,-135,-84)" fill="rgb(31,73,125)" text-rendering="geometricPrecision" font-family="'Arial'" shape-rendering="geometricPrecision" stroke="rgb(31,73,125)" stroke-miterlimit="1.45">
            <text x="645.4358" xml:space="preserve" y="155.5452" stroke="none">beskytte persondata</text>
          </g>
        </g>
      </a>
    </g>
    <g onmouseout="HideTooltip(evt)" id="y.node.12" onmousemove="ShowTooltip(evt)">
      <a target="_blank" xlink:type="simple" xlink:href="http://data.gov.dk" xlink:show="new">
        <g stroke-linecap="butt" transform="matrix(1,0,0,1,-135,-84)" fill="gray" text-rendering="geometricPrecision" shape-rendering="geometricPrecision" stroke="gray" stroke-miterlimit="1.45">
          <rect x="421.3641" y="135.6917" fill="none" width="171.4085" rx="4" ry="4" height="30"/>
        </g>
        <g>
          <g stroke-linecap="butt" font-size="14px" transform="matrix(1,0,0,1,-135,-84)" fill="rgb(31,73,125)" text-rendering="geometricPrecision" font-family="'Arial'" shape-rendering="geometricPrecision" stroke="rgb(31,73,125)" stroke-miterlimit="1.45">
            <text x="460.3857" xml:space="preserve" y="155.5452" stroke="none">acceptere risici</text>
          </g>
        </g>
      </a>
    </g>
    <g onmouseout="HideTooltip(evt)" id="y.node.13" onmousemove="ShowTooltip(evt)">
      <a target="_blank" xlink:type="simple" xlink:href="http://data.gov.dk" xlink:show="new">
        <g stroke-linecap="butt" transform="matrix(1,0,0,1,-135,-84)" fill="gray" text-rendering="geometricPrecision" shape-rendering="geometricPrecision" stroke="gray" stroke-miterlimit="1.45">
          <rect x="683.7584" y="200.5207" fill="none" width="209.281" rx="4" ry="4" height="276.8774"/>
        </g>
        <g>
          <g stroke-linecap="butt" font-size="14px" transform="matrix(1,0,0,1,-135,-84)" fill="gray" text-rendering="geometricPrecision" font-family="'Arial'" shape-rendering="geometricPrecision" font-style="italic" stroke="gray" stroke-miterlimit="1.45">
            <text x="713.6855" xml:space="preserve" y="219.1945" stroke="none"> forebyggelse og kontrol</text>
          </g>
        </g>
      </a>
    </g>
    <g onmouseout="HideTooltip(evt)" id="y.node.14" onmousemove="ShowTooltip(evt)">
      <a target="_blank" xlink:type="simple" xlink:href="http://data.gov.dk" xlink:show="new">
        <g stroke-linecap="butt" transform="matrix(1,0,0,1,-135,-84)" fill="gray" text-rendering="geometricPrecision" shape-rendering="geometricPrecision" stroke="gray" stroke-miterlimit="1.45">
          <rect x="702.6947" y="248.5077" fill="none" width="171.4085" rx="4" ry="4" height="44.937"/>
        </g>
        <g>
          <g stroke-linecap="butt" font-size="14px" transform="matrix(1,0,0,1,-135,-84)" fill="gray" text-rendering="geometricPrecision" font-family="'Arial'" shape-rendering="geometricPrecision" font-style="italic" stroke="gray" stroke-miterlimit="1.45">
            <text x="714.8477" xml:space="preserve" y="268.0094" stroke="none"> forebygge og overvåge</text>
            <text x="758.8232" xml:space="preserve" y="283.65" stroke="none">regelbrud</text>
          </g>
        </g>
      </a>
    </g>
    <g onmouseout="HideTooltip(evt)" id="y.node.15" onmousemove="ShowTooltip(evt)">
      <a target="_blank" xlink:type="simple" xlink:href="http://data.gov.dk" xlink:show="new">
        <g stroke-linecap="butt" transform="matrix(1,0,0,1,-135,-84)" fill="gray" text-rendering="geometricPrecision" shape-rendering="geometricPrecision" stroke="gray" stroke-miterlimit="1.45">
          <rect x="702.6947" y="323.4447" fill="none" width="171.4085" rx="4" ry="4" height="44.937"/>
        </g>
        <g>
          <g stroke-linecap="butt" font-size="14px" transform="matrix(1,0,0,1,-135,-84)" fill="gray" text-rendering="geometricPrecision" font-family="'Arial'" shape-rendering="geometricPrecision" font-style="italic" stroke="gray" stroke-miterlimit="1.45">
            <text x="716.7925" xml:space="preserve" y="342.9464" stroke="none">forebygge og overvåge</text>
            <text x="735.4854" xml:space="preserve" y="358.587" stroke="none">identitetsmisbrug</text>
          </g>
        </g>
      </a>
    </g>
    <g onmouseout="HideTooltip(evt)" id="y.node.16" onmousemove="ShowTooltip(evt)">
      <a target="_blank" xlink:type="simple" xlink:href="http://data.gov.dk" xlink:show="new">
        <g stroke-linecap="butt" transform="matrix(1,0,0,1,-135,-84)" fill="gray" text-rendering="geometricPrecision" shape-rendering="geometricPrecision" stroke="gray" stroke-miterlimit="1.45">
          <rect x="702.6947" y="399.4164" fill="none" width="171.4085" rx="4" ry="4" height="44.937"/>
        </g>
        <g>
          <g stroke-linecap="butt" font-size="14px" transform="matrix(1,0,0,1,-135,-84)" fill="gray" text-rendering="geometricPrecision" font-family="'Arial'" shape-rendering="geometricPrecision" font-style="italic" stroke="gray" stroke-miterlimit="1.45">
            <text x="716.7925" xml:space="preserve" y="418.9181" stroke="none">forebygge og overvåge</text>
            <text x="765.0474" xml:space="preserve" y="434.5587" stroke="none">indbrud</text>
          </g>
        </g>
      </a>
    </g>
    <g onmouseout="HideTooltip(evt)" id="y.node.17" onmousemove="ShowTooltip(evt)">
      <a target="_blank" xlink:type="simple" xlink:href="http://data.gov.dk" xlink:show="new">
        <g stroke-linecap="butt" transform="matrix(1,0,0,1,-135,-84)" fill="gray" text-rendering="geometricPrecision" shape-rendering="geometricPrecision" stroke="gray" stroke-miterlimit="1.45">
          <rect x="211.445" y="234.8087" fill="none" width="178.6458" rx="4" ry="4" height="30"/>
        </g>
        <g>
          <g stroke-linecap="butt" font-size="14px" transform="matrix(1,0,0,1,-135,-84)" fill="rgb(148,0,39)" text-rendering="geometricPrecision" font-family="'Arial'" shape-rendering="geometricPrecision" stroke="rgb(148,0,39)" font-weight="bold" stroke-miterlimit="1.45">
            <text x="231.9335" xml:space="preserve" y="254.6622" stroke="none">udforme tillidspolitik</text>
          </g>
        </g>
      </a>
    </g>
    <g onmouseout="HideTooltip(evt)" id="y.node.18" onmousemove="ShowTooltip(evt)">
      <a target="_blank" xlink:type="simple" xlink:href="http://data.gov.dk" xlink:show="new">
        <g stroke-linecap="butt" transform="matrix(1,0,0,1,-135,-84)" fill="gray" text-rendering="geometricPrecision" shape-rendering="geometricPrecision" stroke="gray" stroke-miterlimit="1.45">
          <rect x="363.4587" y="374.5586" fill="none" width="126.6825" rx="4" ry="4" height="30"/>
        </g>
        <g>
          <g stroke-linecap="butt" font-size="14px" transform="matrix(1,0,0,1,-135,-84)" fill="rgb(148,0,39)" text-rendering="geometricPrecision" font-family="'Arial'" shape-rendering="geometricPrecision" stroke="rgb(148,0,39)" font-weight="bold" stroke-miterlimit="1.45">
            <text x="391.4069" xml:space="preserve" y="394.4121" stroke="none">attestation</text>
          </g>
        </g>
      </a>
    </g>
    <g onmouseout="HideTooltip(evt)" id="y.node.19" onmousemove="ShowTooltip(evt)">
      <a target="_blank" xlink:type="simple" xlink:href="http://data.gov.dk" xlink:show="new">
        <g stroke-linecap="butt" transform="matrix(1,0,0,1,-135,-84)" fill="gray" text-rendering="geometricPrecision" shape-rendering="geometricPrecision" stroke="gray" stroke-miterlimit="1.45">
          <rect x="520.1412" y="372.3707" fill="none" width="143.8862" rx="4" ry="4" height="30"/>
        </g>
        <g>
          <g stroke-linecap="butt" font-size="14px" transform="matrix(1,0,0,1,-135,-84)" fill="rgb(31,73,125)" text-rendering="geometricPrecision" font-family="'Arial'" shape-rendering="geometricPrecision" stroke="rgb(31,73,125)" font-weight="bold" stroke-miterlimit="1.45">
            <text x="527.5359" xml:space="preserve" y="392.2242" stroke="none">forretningsfunktion</text>
          </g>
        </g>
      </a>
    </g>
    <g id="y.edge.0"/>
    <g id="y.edge.1"/>
    <g visibility="hidden" id="tooltip.y.node.0" pointer-events="none">
      <g fill="rgb(255,255,225)" text-rendering="geometricPrecision" shape-rendering="geometricPrecision" font-family="'Segoe UI'" stroke="rgb(255,255,225)">
        <rect x="0" width="111" height="18" y="0" clip-path="url(#clipPath3)" stroke="none"/>
        <text fill="black" x="4" xml:space="preserve" y="14" clip-path="url(#clipPath3)" stroke="none">Link til hjemmeside</text>
      </g>
      <g font-family="'Segoe UI'" text-rendering="geometricPrecision" shape-rendering="geometricPrecision">
        <path d="M0 0 L111 0 L111 18 L0 18 L0 0 ZM1 1 L110 1 L110 17 L1 17 L1 1 Z" fill-rule="evenodd" clip-path="url(#clipPath3)" stroke="none"/>
      </g>
    </g>
    <g visibility="hidden" id="tooltip.y.node.1" pointer-events="none">
      <g fill="rgb(255,255,225)" text-rendering="geometricPrecision" shape-rendering="geometricPrecision" font-family="'Segoe UI'" stroke="rgb(255,255,225)">
        <rect x="0" width="111" height="18" y="0" clip-path="url(#clipPath3)" stroke="none"/>
        <text fill="black" x="4" xml:space="preserve" y="14" clip-path="url(#clipPath3)" stroke="none">Link til hjemmeside</text>
      </g>
      <g font-family="'Segoe UI'" text-rendering="geometricPrecision" shape-rendering="geometricPrecision">
        <path d="M0 0 L111 0 L111 18 L0 18 L0 0 ZM1 1 L110 1 L110 17 L1 17 L1 1 Z" fill-rule="evenodd" clip-path="url(#clipPath3)" stroke="none"/>
      </g>
    </g>
    <g visibility="hidden" id="tooltip.y.node.2" pointer-events="none">
      <g fill="rgb(255,255,225)" text-rendering="geometricPrecision" shape-rendering="geometricPrecision" font-family="'Segoe UI'" stroke="rgb(255,255,225)">
        <rect x="0" width="111" height="18" y="0" clip-path="url(#clipPath3)" stroke="none"/>
        <text fill="black" x="4" xml:space="preserve" y="14" clip-path="url(#clipPath3)" stroke="none">Link til hjemmeside</text>
      </g>
      <g font-family="'Segoe UI'" text-rendering="geometricPrecision" shape-rendering="geometricPrecision">
        <path d="M0 0 L111 0 L111 18 L0 18 L0 0 ZM1 1 L110 1 L110 17 L1 17 L1 1 Z" fill-rule="evenodd" clip-path="url(#clipPath3)" stroke="none"/>
      </g>
    </g>
    <g visibility="hidden" id="tooltip.y.node.3" pointer-events="none">
      <g fill="rgb(255,255,225)" text-rendering="geometricPrecision" shape-rendering="geometricPrecision" font-family="'Segoe UI'" stroke="rgb(255,255,225)">
        <rect x="0" width="111" height="18" y="0" clip-path="url(#clipPath3)" stroke="none"/>
        <text fill="black" x="4" xml:space="preserve" y="14" clip-path="url(#clipPath3)" stroke="none">Link til hjemmeside</text>
      </g>
      <g font-family="'Segoe UI'" text-rendering="geometricPrecision" shape-rendering="geometricPrecision">
        <path d="M0 0 L111 0 L111 18 L0 18 L0 0 ZM1 1 L110 1 L110 17 L1 17 L1 1 Z" fill-rule="evenodd" clip-path="url(#clipPath3)" stroke="none"/>
      </g>
    </g>
    <g visibility="hidden" id="tooltip.y.node.4" pointer-events="none">
      <g fill="rgb(255,255,225)" text-rendering="geometricPrecision" shape-rendering="geometricPrecision" font-family="'Segoe UI'" stroke="rgb(255,255,225)">
        <rect x="0" width="111" height="18" y="0" clip-path="url(#clipPath3)" stroke="none"/>
        <text fill="black" x="4" xml:space="preserve" y="14" clip-path="url(#clipPath3)" stroke="none">Link til hjemmeside</text>
      </g>
      <g font-family="'Segoe UI'" text-rendering="geometricPrecision" shape-rendering="geometricPrecision">
        <path d="M0 0 L111 0 L111 18 L0 18 L0 0 ZM1 1 L110 1 L110 17 L1 17 L1 1 Z" fill-rule="evenodd" clip-path="url(#clipPath3)" stroke="none"/>
      </g>
    </g>
    <g visibility="hidden" id="tooltip.y.node.5" pointer-events="none">
      <g fill="rgb(255,255,225)" text-rendering="geometricPrecision" shape-rendering="geometricPrecision" font-family="'Segoe UI'" stroke="rgb(255,255,225)">
        <rect x="0" width="111" height="18" y="0" clip-path="url(#clipPath3)" stroke="none"/>
        <text fill="black" x="4" xml:space="preserve" y="14" clip-path="url(#clipPath3)" stroke="none">Link til hjemmeside</text>
      </g>
      <g font-family="'Segoe UI'" text-rendering="geometricPrecision" shape-rendering="geometricPrecision">
        <path d="M0 0 L111 0 L111 18 L0 18 L0 0 ZM1 1 L110 1 L110 17 L1 17 L1 1 Z" fill-rule="evenodd" clip-path="url(#clipPath3)" stroke="none"/>
      </g>
    </g>
    <g visibility="hidden" id="tooltip.y.node.6" pointer-events="none">
      <g fill="rgb(255,255,225)" text-rendering="geometricPrecision" shape-rendering="geometricPrecision" font-family="'Segoe UI'" stroke="rgb(255,255,225)">
        <rect x="0" width="111" height="18" y="0" clip-path="url(#clipPath3)" stroke="none"/>
        <text fill="black" x="4" xml:space="preserve" y="14" clip-path="url(#clipPath3)" stroke="none">Link til hjemmeside</text>
      </g>
      <g font-family="'Segoe UI'" text-rendering="geometricPrecision" shape-rendering="geometricPrecision">
        <path d="M0 0 L111 0 L111 18 L0 18 L0 0 ZM1 1 L110 1 L110 17 L1 17 L1 1 Z" fill-rule="evenodd" clip-path="url(#clipPath3)" stroke="none"/>
      </g>
    </g>
    <g visibility="hidden" id="tooltip.y.node.7" pointer-events="none">
      <g fill="rgb(255,255,225)" text-rendering="geometricPrecision" shape-rendering="geometricPrecision" font-family="'Segoe UI'" stroke="rgb(255,255,225)">
        <rect x="0" width="111" height="18" y="0" clip-path="url(#clipPath3)" stroke="none"/>
        <text fill="black" x="4" xml:space="preserve" y="14" clip-path="url(#clipPath3)" stroke="none">Link til hjemmeside</text>
      </g>
      <g font-family="'Segoe UI'" text-rendering="geometricPrecision" shape-rendering="geometricPrecision">
        <path d="M0 0 L111 0 L111 18 L0 18 L0 0 ZM1 1 L110 1 L110 17 L1 17 L1 1 Z" fill-rule="evenodd" clip-path="url(#clipPath3)" stroke="none"/>
      </g>
    </g>
    <g visibility="hidden" id="tooltip.y.node.8" pointer-events="none">
      <g fill="rgb(255,255,225)" text-rendering="geometricPrecision" shape-rendering="geometricPrecision" font-family="'Segoe UI'" stroke="rgb(255,255,225)">
        <rect x="0" width="111" height="18" y="0" clip-path="url(#clipPath3)" stroke="none"/>
        <text fill="black" x="4" xml:space="preserve" y="14" clip-path="url(#clipPath3)" stroke="none">Link til hjemmeside</text>
      </g>
      <g font-family="'Segoe UI'" text-rendering="geometricPrecision" shape-rendering="geometricPrecision">
        <path d="M0 0 L111 0 L111 18 L0 18 L0 0 ZM1 1 L110 1 L110 17 L1 17 L1 1 Z" fill-rule="evenodd" clip-path="url(#clipPath3)" stroke="none"/>
      </g>
    </g>
    <g visibility="hidden" id="tooltip.y.node.9" pointer-events="none">
      <g fill="rgb(255,255,225)" text-rendering="geometricPrecision" shape-rendering="geometricPrecision" font-family="'Segoe UI'" stroke="rgb(255,255,225)">
        <rect x="0" width="111" height="18" y="0" clip-path="url(#clipPath3)" stroke="none"/>
        <text fill="black" x="4" xml:space="preserve" y="14" clip-path="url(#clipPath3)" stroke="none">Link til hjemmeside</text>
      </g>
      <g font-family="'Segoe UI'" text-rendering="geometricPrecision" shape-rendering="geometricPrecision">
        <path d="M0 0 L111 0 L111 18 L0 18 L0 0 ZM1 1 L110 1 L110 17 L1 17 L1 1 Z" fill-rule="evenodd" clip-path="url(#clipPath3)" stroke="none"/>
      </g>
    </g>
    <g visibility="hidden" id="tooltip.y.node.10" pointer-events="none">
      <g fill="rgb(255,255,225)" text-rendering="geometricPrecision" shape-rendering="geometricPrecision" font-family="'Segoe UI'" stroke="rgb(255,255,225)">
        <rect x="0" width="111" height="18" y="0" clip-path="url(#clipPath3)" stroke="none"/>
        <text fill="black" x="4" xml:space="preserve" y="14" clip-path="url(#clipPath3)" stroke="none">Link til hjemmeside</text>
      </g>
      <g font-family="'Segoe UI'" text-rendering="geometricPrecision" shape-rendering="geometricPrecision">
        <path d="M0 0 L111 0 L111 18 L0 18 L0 0 ZM1 1 L110 1 L110 17 L1 17 L1 1 Z" fill-rule="evenodd" clip-path="url(#clipPath3)" stroke="none"/>
      </g>
    </g>
    <g visibility="hidden" id="tooltip.y.node.11" pointer-events="none">
      <g fill="rgb(255,255,225)" text-rendering="geometricPrecision" shape-rendering="geometricPrecision" font-family="'Segoe UI'" stroke="rgb(255,255,225)">
        <rect x="0" width="111" height="18" y="0" clip-path="url(#clipPath3)" stroke="none"/>
        <text fill="black" x="4" xml:space="preserve" y="14" clip-path="url(#clipPath3)" stroke="none">Link til hjemmeside</text>
      </g>
      <g font-family="'Segoe UI'" text-rendering="geometricPrecision" shape-rendering="geometricPrecision">
        <path d="M0 0 L111 0 L111 18 L0 18 L0 0 ZM1 1 L110 1 L110 17 L1 17 L1 1 Z" fill-rule="evenodd" clip-path="url(#clipPath3)" stroke="none"/>
      </g>
    </g>
    <g visibility="hidden" id="tooltip.y.node.12" pointer-events="none">
      <g fill="rgb(255,255,225)" text-rendering="geometricPrecision" shape-rendering="geometricPrecision" font-family="'Segoe UI'" stroke="rgb(255,255,225)">
        <rect x="0" width="111" height="18" y="0" clip-path="url(#clipPath3)" stroke="none"/>
        <text fill="black" x="4" xml:space="preserve" y="14" clip-path="url(#clipPath3)" stroke="none">Link til hjemmeside</text>
      </g>
      <g font-family="'Segoe UI'" text-rendering="geometricPrecision" shape-rendering="geometricPrecision">
        <path d="M0 0 L111 0 L111 18 L0 18 L0 0 ZM1 1 L110 1 L110 17 L1 17 L1 1 Z" fill-rule="evenodd" clip-path="url(#clipPath3)" stroke="none"/>
      </g>
    </g>
    <g visibility="hidden" id="tooltip.y.node.13" pointer-events="none">
      <g fill="rgb(255,255,225)" text-rendering="geometricPrecision" shape-rendering="geometricPrecision" font-family="'Segoe UI'" stroke="rgb(255,255,225)">
        <rect x="0" width="111" height="18" y="0" clip-path="url(#clipPath3)" stroke="none"/>
        <text fill="black" x="4" xml:space="preserve" y="14" clip-path="url(#clipPath3)" stroke="none">Link til hjemmeside</text>
      </g>
      <g font-family="'Segoe UI'" text-rendering="geometricPrecision" shape-rendering="geometricPrecision">
        <path d="M0 0 L111 0 L111 18 L0 18 L0 0 ZM1 1 L110 1 L110 17 L1 17 L1 1 Z" fill-rule="evenodd" clip-path="url(#clipPath3)" stroke="none"/>
      </g>
    </g>
    <g visibility="hidden" id="tooltip.y.node.14" pointer-events="none">
      <g fill="rgb(255,255,225)" text-rendering="geometricPrecision" shape-rendering="geometricPrecision" font-family="'Segoe UI'" stroke="rgb(255,255,225)">
        <rect x="0" width="111" height="18" y="0" clip-path="url(#clipPath3)" stroke="none"/>
        <text fill="black" x="4" xml:space="preserve" y="14" clip-path="url(#clipPath3)" stroke="none">Link til hjemmeside</text>
      </g>
      <g font-family="'Segoe UI'" text-rendering="geometricPrecision" shape-rendering="geometricPrecision">
        <path d="M0 0 L111 0 L111 18 L0 18 L0 0 ZM1 1 L110 1 L110 17 L1 17 L1 1 Z" fill-rule="evenodd" clip-path="url(#clipPath3)" stroke="none"/>
      </g>
    </g>
    <g visibility="hidden" id="tooltip.y.node.15" pointer-events="none">
      <g fill="rgb(255,255,225)" text-rendering="geometricPrecision" shape-rendering="geometricPrecision" font-family="'Segoe UI'" stroke="rgb(255,255,225)">
        <rect x="0" width="111" height="18" y="0" clip-path="url(#clipPath3)" stroke="none"/>
        <text fill="black" x="4" xml:space="preserve" y="14" clip-path="url(#clipPath3)" stroke="none">Link til hjemmeside</text>
      </g>
      <g font-family="'Segoe UI'" text-rendering="geometricPrecision" shape-rendering="geometricPrecision">
        <path d="M0 0 L111 0 L111 18 L0 18 L0 0 ZM1 1 L110 1 L110 17 L1 17 L1 1 Z" fill-rule="evenodd" clip-path="url(#clipPath3)" stroke="none"/>
      </g>
    </g>
    <g visibility="hidden" id="tooltip.y.node.16" pointer-events="none">
      <g fill="rgb(255,255,225)" text-rendering="geometricPrecision" shape-rendering="geometricPrecision" font-family="'Segoe UI'" stroke="rgb(255,255,225)">
        <rect x="0" width="111" height="18" y="0" clip-path="url(#clipPath3)" stroke="none"/>
        <text fill="black" x="4" xml:space="preserve" y="14" clip-path="url(#clipPath3)" stroke="none">Link til hjemmeside</text>
      </g>
      <g font-family="'Segoe UI'" text-rendering="geometricPrecision" shape-rendering="geometricPrecision">
        <path d="M0 0 L111 0 L111 18 L0 18 L0 0 ZM1 1 L110 1 L110 17 L1 17 L1 1 Z" fill-rule="evenodd" clip-path="url(#clipPath3)" stroke="none"/>
      </g>
    </g>
    <g visibility="hidden" id="tooltip.y.node.17" pointer-events="none">
      <g fill="rgb(255,255,225)" text-rendering="geometricPrecision" shape-rendering="geometricPrecision" font-family="'Segoe UI'" stroke="rgb(255,255,225)">
        <rect x="0" width="111" height="18" y="0" clip-path="url(#clipPath3)" stroke="none"/>
        <text fill="black" x="4" xml:space="preserve" y="14" clip-path="url(#clipPath3)" stroke="none">Link til hjemmeside</text>
      </g>
      <g font-family="'Segoe UI'" text-rendering="geometricPrecision" shape-rendering="geometricPrecision">
        <path d="M0 0 L111 0 L111 18 L0 18 L0 0 ZM1 1 L110 1 L110 17 L1 17 L1 1 Z" fill-rule="evenodd" clip-path="url(#clipPath3)" stroke="none"/>
      </g>
    </g>
    <g visibility="hidden" id="tooltip.y.node.18" pointer-events="none">
      <g fill="rgb(255,255,225)" text-rendering="geometricPrecision" shape-rendering="geometricPrecision" font-family="'Segoe UI'" stroke="rgb(255,255,225)">
        <rect x="0" width="111" height="18" y="0" clip-path="url(#clipPath3)" stroke="none"/>
        <text fill="black" x="4" xml:space="preserve" y="14" clip-path="url(#clipPath3)" stroke="none">Link til hjemmeside</text>
      </g>
      <g font-family="'Segoe UI'" text-rendering="geometricPrecision" shape-rendering="geometricPrecision">
        <path d="M0 0 L111 0 L111 18 L0 18 L0 0 ZM1 1 L110 1 L110 17 L1 17 L1 1 Z" fill-rule="evenodd" clip-path="url(#clipPath3)" stroke="none"/>
      </g>
    </g>
    <g visibility="hidden" id="tooltip.y.node.19" pointer-events="none">
      <g fill="rgb(255,255,225)" text-rendering="geometricPrecision" shape-rendering="geometricPrecision" font-family="'Segoe UI'" stroke="rgb(255,255,225)">
        <rect x="0" width="111" height="18" y="0" clip-path="url(#clipPath3)" stroke="none"/>
        <text fill="black" x="4" xml:space="preserve" y="14" clip-path="url(#clipPath3)" stroke="none">Link til hjemmeside</text>
      </g>
      <g font-family="'Segoe UI'" text-rendering="geometricPrecision" shape-rendering="geometricPrecision">
        <path d="M0 0 L111 0 L111 18 L0 18 L0 0 ZM1 1 L110 1 L110 17 L1 17 L1 1 Z" fill-rule="evenodd" clip-path="url(#clipPath3)" stroke="none"/>
      </g>
    </g>
  </g>
</svg>
