<?xml version="1.0" encoding="UTF-8"?><svg xmlns="http://www.w3.org/2000/svg" xmlns:xlink="http://www.w3.org/1999/xlink" fill-opacity="1" color-rendering="auto" color-interpolation="auto" text-rendering="auto" stroke="black" stroke-linecap="square" width="798" stroke-miterlimit="10" shape-rendering="auto" stroke-opacity="1" fill="black" stroke-dasharray="none" font-weight="normal" stroke-width="1" height="264" font-family="'Dialog'" font-style="normal" stroke-linejoin="miter" font-size="12px" stroke-dashoffset="0" image-rendering="auto">
  <!--Generated by ySVG 2.5-->
  <defs id="genericDefs"/>
  <g>
    <defs id="defs1">
      <clipPath clipPathUnits="userSpaceOnUse" id="clipPath1">
        <path d="M0 0 L798 0 L798 264 L0 264 L0 0 Z"/>
      </clipPath>
      <clipPath clipPathUnits="userSpaceOnUse" id="clipPath2">
        <path d="M-339 -263 L459 -263 L459 1 L-339 1 L-339 -263 Z"/>
      </clipPath>
    </defs>
    <g fill="white" text-rendering="geometricPrecision" shape-rendering="geometricPrecision" transform="translate(339,263)" stroke="white">
      <rect x="-339" width="798" height="264" y="-263" clip-path="url(#clipPath2)" stroke="none"/>
    </g>
    <g stroke-linecap="butt" transform="matrix(1,0,0,1,339,263)" fill="gray" text-rendering="geometricPrecision" shape-rendering="geometricPrecision" stroke-dasharray="6,2" stroke="gray" stroke-miterlimit="1.45">
      <rect x="-323.1488" y="-247.3217" clip-path="url(#clipPath2)" fill="none" width="767.1204" rx="4" ry="4" height="233.0153"/>
    </g>
    <g stroke-linecap="butt" font-size="14px" transform="matrix(1,0,0,1,339,263)" fill="gray" text-rendering="geometricPrecision" font-family="'Calibri'" shape-rendering="geometricPrecision" font-style="italic" stroke="gray" stroke-miterlimit="1.45">
      <text x="-317.1487" xml:space="preserve" y="-230.8217" clip-path="url(#clipPath2)" stroke="none">tillidstjenester</text>
    </g>
    <g stroke-linecap="butt" transform="matrix(1,0,0,1,339,263)" fill="gray" text-rendering="geometricPrecision" shape-rendering="geometricPrecision" stroke-dasharray="6,2" stroke="gray" stroke-miterlimit="1.45">
      <rect x="-305.5383" y="-210.5422" clip-path="url(#clipPath2)" fill="none" width="279.856" rx="4" ry="4" height="176.0054"/>
    </g>
    <g stroke-linecap="butt" font-size="14px" transform="matrix(1,0,0,1,339,263)" fill="gray" text-rendering="geometricPrecision" font-family="'Calibri'" shape-rendering="geometricPrecision" font-style="italic" stroke="gray" stroke-miterlimit="1.45">
      <text x="-299.5383" xml:space="preserve" y="-194.0422" clip-path="url(#clipPath2)" stroke="none">eIDAS tillidstjenester</text>
    </g>
    <g stroke-linecap="butt" transform="matrix(1,0,0,1,339,263)" fill="gray" text-rendering="geometricPrecision" shape-rendering="geometricPrecision" stroke-dasharray="6,2" stroke="gray" stroke-miterlimit="1.45">
      <rect x="-14.7719" y="-210.5422" clip-path="url(#clipPath2)" fill="none" width="241.1593" rx="4" ry="4" height="176.0054"/>
    </g>
    <g stroke-linecap="butt" font-size="14px" transform="matrix(1,0,0,1,339,263)" fill="gray" text-rendering="geometricPrecision" font-family="'Calibri'" shape-rendering="geometricPrecision" font-style="italic" stroke="gray" stroke-miterlimit="1.45">
      <text x="-8.7719" xml:space="preserve" y="-194.0422" clip-path="url(#clipPath2)" stroke="none">NSIS tillidstjenester</text>
    </g>
    <g stroke-linecap="butt" transform="matrix(1,0,0,1,339,263)" fill="gray" text-rendering="geometricPrecision" shape-rendering="geometricPrecision" stroke-dasharray="6,2" stroke="gray" stroke-miterlimit="1.45">
      <rect x="237.2979" y="-210.5422" clip-path="url(#clipPath2)" fill="none" width="183.556" rx="4" ry="4" height="176.0054"/>
    </g>
    <g stroke-linecap="butt" font-size="14px" transform="matrix(1,0,0,1,339,263)" fill="gray" text-rendering="geometricPrecision" font-family="'Calibri'" shape-rendering="geometricPrecision" font-style="italic" stroke="gray" stroke-miterlimit="1.45">
      <text x="243.2979" xml:space="preserve" y="-194.0422" clip-path="url(#clipPath2)" stroke="none">Andre typer tillidstjenester</text>
      <rect fill="none" x="-288.9755" width="107.4733" height="25" y="-166.6971" clip-path="url(#clipPath2)"/>
    </g>
    <g stroke-linecap="butt" font-size="13px" transform="matrix(1,0,0,1,339,263)" fill="blue" text-rendering="geometricPrecision" font-family="'Calibri'" shape-rendering="geometricPrecision" stroke="blue" font-weight="bold" stroke-miterlimit="1.45">
      <text x="-284.5125" xml:space="preserve" y="-151.9471" clip-path="url(#clipPath2)" stroke="none">Certifikatudsteder</text>
    </g>
    <g stroke-linecap="butt" transform="matrix(1,0,0,1,339,263)" fill="gray" text-rendering="geometricPrecision" shape-rendering="geometricPrecision" stroke="gray" stroke-miterlimit="1.45">
      <rect fill="none" x="-288.9755" width="107.4733" height="25" y="-123.1528" clip-path="url(#clipPath2)"/>
    </g>
    <g stroke-linecap="butt" font-size="13px" transform="matrix(1,0,0,1,339,263)" fill="blue" text-rendering="geometricPrecision" font-family="'Calibri'" shape-rendering="geometricPrecision" stroke="blue" font-weight="bold" stroke-miterlimit="1.45">
      <text x="-272.7916" xml:space="preserve" y="-108.4028" clip-path="url(#clipPath2)" stroke="none">Tidsstempling</text>
    </g>
    <g stroke-linecap="butt" transform="matrix(1,0,0,1,339,263)" fill="gray" text-rendering="geometricPrecision" shape-rendering="geometricPrecision" stroke="gray" stroke-miterlimit="1.45">
      <rect fill="none" x="-156.3087" width="111.5969" height="25" y="-166.6971" clip-path="url(#clipPath2)"/>
    </g>
    <g stroke-linecap="butt" font-size="13px" transform="matrix(1,0,0,1,339,263)" fill="blue" text-rendering="geometricPrecision" font-family="'Calibri'" shape-rendering="geometricPrecision" stroke="blue" font-weight="bold" stroke-miterlimit="1.45">
      <text x="-127.9924" xml:space="preserve" y="-151.9471" clip-path="url(#clipPath2)" stroke="none">Validering</text>
    </g>
    <g stroke-linecap="butt" transform="matrix(1,0,0,1,339,263)" fill="gray" text-rendering="geometricPrecision" shape-rendering="geometricPrecision" stroke="gray" stroke-miterlimit="1.45">
      <rect fill="none" x="-231.193" width="148.2536" height="25" y="-79.6086" clip-path="url(#clipPath2)"/>
    </g>
    <g stroke-linecap="butt" font-size="13px" transform="matrix(1,0,0,1,339,263)" fill="blue" text-rendering="geometricPrecision" font-family="'Calibri'" shape-rendering="geometricPrecision" stroke="blue" font-weight="bold" stroke-miterlimit="1.45">
      <text x="-179.9114" xml:space="preserve" y="-64.8586" clip-path="url(#clipPath2)" stroke="none">Levering</text>
    </g>
    <g stroke-linecap="butt" transform="matrix(1,0,0,1,339,263)" fill="gray" text-rendering="geometricPrecision" shape-rendering="geometricPrecision" stroke="gray" stroke-miterlimit="1.45">
      <rect fill="none" x="5.6268" width="200.3619" height="25.5137" y="-167.966" clip-path="url(#clipPath2)"/>
    </g>
    <g stroke-linecap="butt" font-size="13px" transform="matrix(1,0,0,1,339,263)" fill="rgb(148,0,39)" text-rendering="geometricPrecision" font-family="'Calibri'" shape-rendering="geometricPrecision" stroke="rgb(148,0,39)" font-weight="bold" stroke-miterlimit="1.45">
      <text x="10.8786" xml:space="preserve" y="-153.216" clip-path="url(#clipPath2)" stroke="none">Udstedelse af identifikationsmidler</text>
    </g>
    <g stroke-linecap="butt" transform="matrix(1,0,0,1,339,263)" fill="gray" text-rendering="geometricPrecision" shape-rendering="geometricPrecision" stroke="gray" stroke-miterlimit="1.45">
      <rect fill="none" x="5.6268" width="200.3619" height="25.5137" y="-109.3103" clip-path="url(#clipPath2)"/>
    </g>
    <g stroke-linecap="butt" font-size="13px" transform="matrix(1,0,0,1,339,263)" fill="rgb(148,0,39)" text-rendering="geometricPrecision" font-family="'Calibri'" shape-rendering="geometricPrecision" stroke="rgb(148,0,39)" font-weight="bold" stroke-miterlimit="1.45">
      <text x="41.1886" xml:space="preserve" y="-94.5603" clip-path="url(#clipPath2)" stroke="none">Autentifikation (broker)</text>
    </g>
    <g stroke-linecap="butt" transform="matrix(1,0,0,1,339,263)" fill="gray" text-rendering="geometricPrecision" shape-rendering="geometricPrecision" stroke="gray" stroke-miterlimit="1.45">
      <rect fill="none" x="262.1753" width="124.9538" height="25.5137" y="-167.966" clip-path="url(#clipPath2)"/>
    </g>
    <g stroke-linecap="butt" font-size="13px" transform="matrix(1,0,0,1,339,263)" fill="rgb(148,0,39)" text-rendering="geometricPrecision" font-family="'Calibri'" shape-rendering="geometricPrecision" stroke="rgb(148,0,39)" font-weight="bold" stroke-miterlimit="1.45">
      <text x="271.9032" xml:space="preserve" y="-153.216" clip-path="url(#clipPath2)" stroke="none">Attributregistrering</text>
    </g>
    <g stroke-linecap="butt" transform="matrix(1,0,0,1,339,263)" fill="gray" text-rendering="geometricPrecision" shape-rendering="geometricPrecision" stroke="gray" stroke-miterlimit="1.45">
      <rect fill="none" x="-156.3087" width="111.5969" height="25" y="-123.1528" clip-path="url(#clipPath2)"/>
    </g>
    <g stroke-linecap="butt" font-size="13px" transform="matrix(1,0,0,1,339,263)" fill="blue" text-rendering="geometricPrecision" font-family="'Calibri'" shape-rendering="geometricPrecision" stroke="blue" font-weight="bold" stroke-miterlimit="1.45">
      <text x="-124.187" xml:space="preserve" y="-108.4028" clip-path="url(#clipPath2)" stroke="none">Bevaring</text>
    </g>
    <g stroke-linecap="butt" transform="matrix(1,0,0,1,339,263)" fill="gray" text-rendering="geometricPrecision" shape-rendering="geometricPrecision" stroke="gray" stroke-miterlimit="1.45">
      <rect fill="none" x="262.1753" width="124.9538" height="25.5137" y="-127.5987" clip-path="url(#clipPath2)"/>
    </g>
    <g stroke-linecap="butt" font-size="13px" transform="matrix(1,0,0,1,339,263)" fill="rgb(148,0,39)" text-rendering="geometricPrecision" font-family="'Calibri'" shape-rendering="geometricPrecision" stroke="rgb(148,0,39)" font-weight="bold" stroke-miterlimit="1.45">
      <text x="273.487" xml:space="preserve" y="-112.8487" clip-path="url(#clipPath2)" stroke="none">Attributattestering</text>
    </g>
    <g stroke-linecap="butt" transform="matrix(1,0,0,1,339,263)" fill="gray" text-rendering="geometricPrecision" shape-rendering="geometricPrecision" stroke="gray" stroke-miterlimit="1.45">
      <rect fill="none" x="262.1753" width="124.9538" height="25.5137" y="-84.9011" clip-path="url(#clipPath2)"/>
    </g>
    <g stroke-linecap="butt" font-size="13px" transform="matrix(1,0,0,1,339,263)" fill="rgb(148,0,39)" text-rendering="geometricPrecision" font-family="'Calibri'" shape-rendering="geometricPrecision" stroke="rgb(148,0,39)" font-weight="bold" stroke-miterlimit="1.45">
      <text x="282.015" xml:space="preserve" y="-70.1511" clip-path="url(#clipPath2)" stroke="none">Adgangskontrol</text>
    </g>
  </g>
</svg>
