<?xml version="1.0" encoding="UTF-8"?><svg xmlns="http://www.w3.org/2000/svg" xmlns:xlink="http://www.w3.org/1999/xlink" fill-opacity="1" color-rendering="auto" color-interpolation="auto" text-rendering="auto" stroke="black" stroke-linecap="square" width="798" stroke-miterlimit="10" shape-rendering="auto" stroke-opacity="1" fill="black" stroke-dasharray="none" font-weight="normal" stroke-width="1" height="264" font-family="'Dialog'" font-style="normal" stroke-linejoin="miter" font-size="12px" stroke-dashoffset="0" image-rendering="auto">
  <!--Generated by ySVG 2.5-->
  <defs id="genericDefs"/>
  <g>
    <defs id="defs1">
      <clipPath clipPathUnits="userSpaceOnUse" id="clipPath1">
        <path d="M0 0 L798 0 L798 264 L0 264 L0 0 Z"/>
      </clipPath>
      <clipPath clipPathUnits="userSpaceOnUse" id="clipPath2">
        <path d="M1059 653 L1857 653 L1857 917 L1059 917 L1059 653 Z"/>
      </clipPath>
    </defs>
    <g fill="white" text-rendering="geometricPrecision" shape-rendering="geometricPrecision" transform="translate(-1059,-653)" stroke="white">
      <rect x="1059" width="798" height="264" y="653" clip-path="url(#clipPath2)" stroke="none"/>
    </g>
    <g stroke-linecap="butt" transform="matrix(1,0,0,1,-1059,-653)" fill="gray" text-rendering="geometricPrecision" shape-rendering="geometricPrecision" stroke-dasharray="6,2" stroke="gray" stroke-miterlimit="1.45">
      <rect x="1074.2727" y="668.2164" clip-path="url(#clipPath2)" fill="none" width="767.1204" rx="4" ry="4" height="233.0153"/>
    </g>
    <g stroke-linecap="butt" font-size="10px" transform="matrix(1,0,0,1,-1059,-653)" fill="gray" text-rendering="geometricPrecision" font-family="'Calibri'" shape-rendering="geometricPrecision" font-style="italic" stroke="gray" stroke-miterlimit="1.45">
      <text x="1080.2727" xml:space="preserve" y="683.7379" clip-path="url(#clipPath2)" stroke="none">tillidstjenester</text>
    </g>
    <g stroke-linecap="butt" transform="matrix(1,0,0,1,-1059,-653)" fill="gray" text-rendering="geometricPrecision" shape-rendering="geometricPrecision" stroke-dasharray="6,2" stroke="gray" stroke-miterlimit="1.45">
      <rect x="1091.8831" y="704.9958" clip-path="url(#clipPath2)" fill="none" width="279.856" rx="4" ry="4" height="176.0054"/>
    </g>
    <g stroke-linecap="butt" font-size="10px" transform="matrix(1,0,0,1,-1059,-653)" fill="gray" text-rendering="geometricPrecision" font-family="'Calibri'" shape-rendering="geometricPrecision" font-style="italic" stroke="gray" stroke-miterlimit="1.45">
      <text x="1097.8832" xml:space="preserve" y="720.5173" clip-path="url(#clipPath2)" stroke="none">eIDAS tillidstjenester</text>
    </g>
    <g stroke-linecap="butt" transform="matrix(1,0,0,1,-1059,-653)" fill="gray" text-rendering="geometricPrecision" shape-rendering="geometricPrecision" stroke-dasharray="6,2" stroke="gray" stroke-miterlimit="1.45">
      <rect x="1382.6495" y="704.9958" clip-path="url(#clipPath2)" fill="none" width="241.1593" rx="4" ry="4" height="176.0054"/>
    </g>
    <g stroke-linecap="butt" font-size="10px" transform="matrix(1,0,0,1,-1059,-653)" fill="gray" text-rendering="geometricPrecision" font-family="'Calibri'" shape-rendering="geometricPrecision" font-style="italic" stroke="gray" stroke-miterlimit="1.45">
      <text x="1388.6495" xml:space="preserve" y="720.5173" clip-path="url(#clipPath2)" stroke="none">NSIS tillidstjenester</text>
    </g>
    <g stroke-linecap="butt" transform="matrix(1,0,0,1,-1059,-653)" fill="gray" text-rendering="geometricPrecision" shape-rendering="geometricPrecision" stroke-dasharray="6,2" stroke="gray" stroke-miterlimit="1.45">
      <rect x="1633.1483" y="704.9958" clip-path="url(#clipPath2)" fill="none" width="183.556" rx="4" ry="4" height="176.0054"/>
    </g>
    <g stroke-linecap="butt" font-size="10px" transform="matrix(1,0,0,1,-1059,-653)" fill="gray" text-rendering="geometricPrecision" font-family="'Calibri'" shape-rendering="geometricPrecision" font-style="italic" stroke="gray" stroke-miterlimit="1.45">
      <text x="1639.1483" xml:space="preserve" y="720.5173" clip-path="url(#clipPath2)" stroke="none">Andre typer tillidstjenester</text>
      <rect fill="none" x="1108.4459" width="107.4733" height="25" y="748.8409" clip-path="url(#clipPath2)"/>
    </g>
    <g stroke-linecap="butt" font-size="13px" transform="matrix(1,0,0,1,-1059,-653)" fill="blue" text-rendering="geometricPrecision" font-family="'Calibri'" shape-rendering="geometricPrecision" stroke="blue" font-weight="bold" stroke-miterlimit="1.45">
      <text x="1154.8035" xml:space="preserve" y="766.2189" clip-path="url(#clipPath2)" stroke="none">CA</text>
    </g>
    <g stroke-linecap="butt" transform="matrix(1,0,0,1,-1059,-653)" fill="gray" text-rendering="geometricPrecision" shape-rendering="geometricPrecision" stroke="gray" stroke-miterlimit="1.45">
      <rect fill="none" x="1108.4459" width="107.4733" height="25" y="792.3852" clip-path="url(#clipPath2)"/>
    </g>
    <g stroke-linecap="butt" font-size="13px" transform="matrix(1,0,0,1,-1059,-653)" fill="blue" text-rendering="geometricPrecision" font-family="'Calibri'" shape-rendering="geometricPrecision" stroke="blue" font-weight="bold" stroke-miterlimit="1.45">
      <text x="1124.6299" xml:space="preserve" y="809.7631" clip-path="url(#clipPath2)" stroke="none">Tidsstempling</text>
    </g>
    <g stroke-linecap="butt" transform="matrix(1,0,0,1,-1059,-653)" fill="gray" text-rendering="geometricPrecision" shape-rendering="geometricPrecision" stroke="gray" stroke-miterlimit="1.45">
      <rect fill="none" x="1241.1128" width="111.5969" height="25" y="748.8409" clip-path="url(#clipPath2)"/>
    </g>
    <g stroke-linecap="butt" font-size="13px" transform="matrix(1,0,0,1,-1059,-653)" fill="blue" text-rendering="geometricPrecision" font-family="'Calibri'" shape-rendering="geometricPrecision" stroke="blue" font-weight="bold" stroke-miterlimit="1.45">
      <text x="1269.4291" xml:space="preserve" y="766.2189" clip-path="url(#clipPath2)" stroke="none">Validering</text>
    </g>
    <g stroke-linecap="butt" transform="matrix(1,0,0,1,-1059,-653)" fill="gray" text-rendering="geometricPrecision" shape-rendering="geometricPrecision" stroke="gray" stroke-miterlimit="1.45">
      <rect fill="none" x="1166.2284" width="148.2536" height="25" y="835.9295" clip-path="url(#clipPath2)"/>
    </g>
    <g stroke-linecap="butt" font-size="13px" transform="matrix(1,0,0,1,-1059,-653)" fill="blue" text-rendering="geometricPrecision" font-family="'Calibri'" shape-rendering="geometricPrecision" stroke="blue" font-weight="bold" stroke-miterlimit="1.45">
      <text x="1217.51" xml:space="preserve" y="853.3074" clip-path="url(#clipPath2)" stroke="none">Levering</text>
    </g>
    <g stroke-linecap="butt" transform="matrix(1,0,0,1,-1059,-653)" fill="gray" text-rendering="geometricPrecision" shape-rendering="geometricPrecision" stroke="gray" stroke-miterlimit="1.45">
      <rect fill="none" x="1403.0482" width="200.3619" height="25.5137" y="747.572" clip-path="url(#clipPath2)"/>
    </g>
    <g stroke-linecap="butt" font-size="13px" transform="matrix(1,0,0,1,-1059,-653)" fill="rgb(148,0,39)" text-rendering="geometricPrecision" font-family="'Calibri'" shape-rendering="geometricPrecision" stroke="rgb(148,0,39)" font-weight="bold" stroke-miterlimit="1.45">
      <text x="1408.2999" xml:space="preserve" y="764.95" clip-path="url(#clipPath2)" stroke="none">Udstedelse af identifikationsmidler</text>
    </g>
    <g stroke-linecap="butt" transform="matrix(1,0,0,1,-1059,-653)" fill="gray" text-rendering="geometricPrecision" shape-rendering="geometricPrecision" stroke="gray" stroke-miterlimit="1.45">
      <rect fill="none" x="1403.0482" width="200.3619" height="25.5137" y="806.2277" clip-path="url(#clipPath2)"/>
    </g>
    <g stroke-linecap="butt" font-size="13px" transform="matrix(1,0,0,1,-1059,-653)" fill="rgb(148,0,39)" text-rendering="geometricPrecision" font-family="'Calibri'" shape-rendering="geometricPrecision" stroke="rgb(148,0,39)" font-weight="bold" stroke-miterlimit="1.45">
      <text x="1438.61" xml:space="preserve" y="823.6057" clip-path="url(#clipPath2)" stroke="none">Autentifikation (broker)</text>
    </g>
    <g stroke-linecap="butt" transform="matrix(1,0,0,1,-1059,-653)" fill="gray" text-rendering="geometricPrecision" shape-rendering="geometricPrecision" stroke="gray" stroke-miterlimit="1.45">
      <rect fill="none" x="1662.4493" width="124.9538" height="25.5137" y="750.4697" clip-path="url(#clipPath2)"/>
    </g>
    <g stroke-linecap="butt" font-size="13px" transform="matrix(1,0,0,1,-1059,-653)" fill="rgb(148,0,39)" text-rendering="geometricPrecision" font-family="'Calibri'" shape-rendering="geometricPrecision" stroke="rgb(148,0,39)" font-weight="bold" stroke-miterlimit="1.45">
      <text x="1672.1772" xml:space="preserve" y="767.8476" clip-path="url(#clipPath2)" stroke="none">Attributregistrering</text>
    </g>
    <g stroke-linecap="butt" transform="matrix(1,0,0,1,-1059,-653)" fill="gray" text-rendering="geometricPrecision" shape-rendering="geometricPrecision" stroke="gray" stroke-miterlimit="1.45">
      <rect fill="none" x="1241.1128" width="111.5969" height="25" y="792.3852" clip-path="url(#clipPath2)"/>
    </g>
    <g stroke-linecap="butt" font-size="13px" transform="matrix(1,0,0,1,-1059,-653)" fill="blue" text-rendering="geometricPrecision" font-family="'Calibri'" shape-rendering="geometricPrecision" stroke="blue" font-weight="bold" stroke-miterlimit="1.45">
      <text x="1273.2345" xml:space="preserve" y="809.7631" clip-path="url(#clipPath2)" stroke="none">Bevaring</text>
    </g>
    <g stroke-linecap="butt" transform="matrix(1,0,0,1,-1059,-653)" fill="gray" text-rendering="geometricPrecision" shape-rendering="geometricPrecision" stroke="gray" stroke-miterlimit="1.45">
      <rect fill="none" x="1662.4493" width="124.9538" height="25.5137" y="805.9834" clip-path="url(#clipPath2)"/>
    </g>
    <g stroke-linecap="butt" font-size="13px" transform="matrix(1,0,0,1,-1059,-653)" fill="rgb(148,0,39)" text-rendering="geometricPrecision" font-family="'Calibri'" shape-rendering="geometricPrecision" stroke="rgb(148,0,39)" font-weight="bold" stroke-miterlimit="1.45">
      <text x="1673.761" xml:space="preserve" y="823.3613" clip-path="url(#clipPath2)" stroke="none">Attributattestering</text>
    </g>
  </g>
</svg>
