<?xml version="1.0" encoding="UTF-8"?><svg xmlns="http://www.w3.org/2000/svg" xmlns:xlink="http://www.w3.org/1999/xlink" fill-opacity="1" color-rendering="auto" color-interpolation="auto" text-rendering="auto" stroke="black" stroke-linecap="square" width="716" stroke-miterlimit="10" shape-rendering="auto" stroke-opacity="1" fill="black" stroke-dasharray="none" font-weight="normal" stroke-width="1" height="264" font-family="'Dialog'" font-style="normal" stroke-linejoin="miter" font-size="12px" stroke-dashoffset="0" image-rendering="auto">
  <!--Generated by ySVG 2.5-->
  <defs id="genericDefs"/>
  <g>
    <defs id="defs1">
      <clipPath clipPathUnits="userSpaceOnUse" id="clipPath1">
        <path d="M0 0 L716 0 L716 264 L0 264 L0 0 Z"/>
      </clipPath>
      <clipPath clipPathUnits="userSpaceOnUse" id="clipPath2">
        <path d="M1 -14 L717 -14 L717 250 L1 250 L1 -14 Z"/>
      </clipPath>
    </defs>
    <g fill="white" text-rendering="geometricPrecision" shape-rendering="geometricPrecision" transform="translate(-1,14)" stroke="white">
      <rect x="1" width="716" height="264" y="-14" clip-path="url(#clipPath2)" stroke="none"/>
    </g>
    <g stroke-linecap="butt" transform="matrix(1,0,0,1,-1,14)" fill="gray" text-rendering="geometricPrecision" shape-rendering="geometricPrecision" stroke-dasharray="6,2" stroke="gray" stroke-miterlimit="1.45">
      <rect x="16.1846" y="1.0117" clip-path="url(#clipPath2)" fill="none" width="685.2375" rx="4" ry="4" height="233.0153"/>
    </g>
    <g stroke-linecap="butt" font-size="16px" transform="matrix(1,0,0,1,-1,14)" fill="gray" text-rendering="geometricPrecision" font-family="'Calibri'" shape-rendering="geometricPrecision" font-style="italic" stroke="gray" stroke-miterlimit="1.45">
      <text x="22.1846" xml:space="preserve" y="19.0117" clip-path="url(#clipPath2)" stroke="none">tillidstjenester</text>
    </g>
    <g stroke-linecap="butt" transform="matrix(1,0,0,1,-1,14)" fill="gray" text-rendering="geometricPrecision" shape-rendering="geometricPrecision" stroke-dasharray="6,2" stroke="gray" stroke-miterlimit="1.45">
      <rect x="30.4999" y="37.7911" clip-path="url(#clipPath2)" fill="none" width="262.3775" rx="4" ry="4" height="176.0054"/>
    </g>
    <g stroke-linecap="butt" font-size="16px" transform="matrix(1,0,0,1,-1,14)" fill="gray" text-rendering="geometricPrecision" font-family="'Calibri'" shape-rendering="geometricPrecision" font-style="italic" stroke="gray" stroke-miterlimit="1.45">
      <text x="36.4999" xml:space="preserve" y="55.7911" clip-path="url(#clipPath2)" stroke="none">eIDAS tillidstjenester</text>
    </g>
    <g stroke-linecap="butt" transform="matrix(1,0,0,1,-1,14)" fill="gray" text-rendering="geometricPrecision" shape-rendering="geometricPrecision" stroke-dasharray="6,2" stroke="gray" stroke-miterlimit="1.45">
      <rect x="311.338" y="37.7911" clip-path="url(#clipPath2)" fill="none" width="183.556" rx="4" ry="4" height="176.0054"/>
    </g>
    <g stroke-linecap="butt" font-size="16px" transform="matrix(1,0,0,1,-1,14)" fill="gray" text-rendering="geometricPrecision" font-family="'Calibri'" shape-rendering="geometricPrecision" font-style="italic" stroke="gray" stroke-miterlimit="1.45">
      <text x="317.338" xml:space="preserve" y="55.7911" clip-path="url(#clipPath2)" stroke="none">NSIS tillidstjenester</text>
    </g>
    <g stroke-linecap="butt" transform="matrix(1,0,0,1,-1,14)" fill="gray" text-rendering="geometricPrecision" shape-rendering="geometricPrecision" stroke-dasharray="6,2" stroke="gray" stroke-miterlimit="1.45">
      <rect x="513.9886" y="37.7911" clip-path="url(#clipPath2)" fill="none" width="167.0004" rx="4" ry="4" height="176.0054"/>
    </g>
    <g stroke-linecap="butt" font-size="16px" transform="matrix(1,0,0,1,-1,14)" fill="gray" text-rendering="geometricPrecision" font-family="'Calibri'" shape-rendering="geometricPrecision" font-style="italic" stroke="gray" stroke-miterlimit="1.45">
      <text x="527.7816" xml:space="preserve" y="55.7911" clip-path="url(#clipPath2)" stroke="none">Andre typer</text>
      <text x="519.9886" xml:space="preserve" y="71.7911" clip-path="url(#clipPath2)" stroke="none">tillidstjenester</text>
    </g>
    <g stroke-linecap="butt" font-size="16px" transform="matrix(1,0,0,1,-1,14)" fill="blue" text-rendering="geometricPrecision" font-family="'Calibri'" shape-rendering="geometricPrecision" stroke="blue" font-weight="bold" stroke-miterlimit="1.45">
      <text x="99.5632" xml:space="preserve" y="185.2248" clip-path="url(#clipPath2)" stroke="none">certifikatudsteder</text>
    </g>
    <g stroke-linecap="butt" transform="matrix(1,0,0,1,-1,14)" fill="gray" text-rendering="geometricPrecision" shape-rendering="geometricPrecision" stroke="gray" stroke-miterlimit="1.45">
      <rect x="92.6504" y="168.7248" clip-path="url(#clipPath2)" fill="none" width="133.3413" rx="4" ry="4" height="25"/>
    </g>
    <g stroke-linecap="butt" font-size="16px" transform="matrix(1,0,0,1,-1,14)" fill="blue" text-rendering="geometricPrecision" font-family="'Calibri'" shape-rendering="geometricPrecision" stroke="blue" font-weight="bold" stroke-miterlimit="1.45">
      <text x="50.1331" xml:space="preserve" y="141.6805" clip-path="url(#clipPath2)" stroke="none">tidsstempling</text>
    </g>
    <g stroke-linecap="butt" transform="matrix(1,0,0,1,-1,14)" fill="gray" text-rendering="geometricPrecision" shape-rendering="geometricPrecision" stroke="gray" stroke-miterlimit="1.45">
      <rect x="41.4277" y="125.1805" clip-path="url(#clipPath2)" fill="none" width="107.4733" rx="4" ry="4" height="25"/>
    </g>
    <g stroke-linecap="butt" font-size="16px" transform="matrix(1,0,0,1,-1,14)" fill="blue" text-rendering="geometricPrecision" font-family="'Calibri'" shape-rendering="geometricPrecision" stroke="blue" font-weight="bold" stroke-miterlimit="1.45">
      <text x="192.6606" xml:space="preserve" y="98.1362" clip-path="url(#clipPath2)" stroke="none">validering</text>
    </g>
    <g stroke-linecap="butt" transform="matrix(1,0,0,1,-1,14)" fill="gray" text-rendering="geometricPrecision" shape-rendering="geometricPrecision" stroke="gray" stroke-miterlimit="1.45">
      <rect x="169.7411" y="81.6362" clip-path="url(#clipPath2)" fill="none" width="111.5969" rx="4" ry="4" height="25"/>
    </g>
    <g stroke-linecap="butt" font-size="16px" transform="matrix(1,0,0,1,-1,14)" fill="blue" text-rendering="geometricPrecision" font-family="'Calibri'" shape-rendering="geometricPrecision" stroke="blue" font-weight="bold" stroke-miterlimit="1.45">
      <text x="70.527" xml:space="preserve" y="98.1362" clip-path="url(#clipPath2)" stroke="none">levering</text>
    </g>
    <g stroke-linecap="butt" transform="matrix(1,0,0,1,-1,14)" fill="gray" text-rendering="geometricPrecision" shape-rendering="geometricPrecision" stroke="gray" stroke-miterlimit="1.45">
      <rect x="41.4277" y="81.6362" clip-path="url(#clipPath2)" fill="none" width="111.5969" rx="4" ry="4" height="25"/>
    </g>
    <g stroke-linecap="butt" font-size="16px" transform="matrix(1,0,0,1,-1,14)" fill="rgb(148,0,39)" text-rendering="geometricPrecision" font-family="'Calibri'" shape-rendering="geometricPrecision" stroke="rgb(148,0,39)" font-weight="bold" stroke-miterlimit="1.45">
      <text x="358.7449" xml:space="preserve" y="96.1155" clip-path="url(#clipPath2)" stroke="none">udstedelse af</text>
      <text x="333.3894" xml:space="preserve" y="112.1155" clip-path="url(#clipPath2)" stroke="none">identifikationsmidler</text>
    </g>
    <g stroke-linecap="butt" transform="matrix(1,0,0,1,-1,14)" fill="gray" text-rendering="geometricPrecision" shape-rendering="geometricPrecision" stroke="gray" stroke-miterlimit="1.45">
      <rect x="324.4985" y="80.3673" clip-path="url(#clipPath2)" fill="none" width="157.235" rx="4" ry="4" height="39.4964"/>
    </g>
    <g stroke-linecap="butt" font-size="16px" transform="matrix(1,0,0,1,-1,14)" fill="rgb(148,0,39)" text-rendering="geometricPrecision" font-family="'Calibri'" shape-rendering="geometricPrecision" stroke="rgb(148,0,39)" font-weight="bold" stroke-miterlimit="1.45">
      <text x="353.4246" xml:space="preserve" y="154.7712" clip-path="url(#clipPath2)" stroke="none">autentifikation</text>
      <text x="375.9832" xml:space="preserve" y="170.7712" clip-path="url(#clipPath2)" stroke="none">(broker)</text>
    </g>
    <g stroke-linecap="butt" transform="matrix(1,0,0,1,-1,14)" fill="gray" text-rendering="geometricPrecision" shape-rendering="geometricPrecision" stroke="gray" stroke-miterlimit="1.45">
      <rect x="324.4985" y="139.023" clip-path="url(#clipPath2)" fill="none" width="157.235" rx="4" ry="4" height="39.4964"/>
    </g>
    <g stroke-linecap="butt" font-size="16px" transform="matrix(1,0,0,1,-1,14)" fill="rgb(148,0,39)" text-rendering="geometricPrecision" font-family="'Calibri'" shape-rendering="geometricPrecision" stroke="rgb(148,0,39)" font-weight="bold" stroke-miterlimit="1.45">
      <text x="533.0687" xml:space="preserve" y="105.6257" clip-path="url(#clipPath2)" stroke="none">attributregistrering</text>
    </g>
    <g stroke-linecap="butt" transform="matrix(1,0,0,1,-1,14)" fill="gray" text-rendering="geometricPrecision" shape-rendering="geometricPrecision" stroke="gray" stroke-miterlimit="1.45">
      <rect x="528.1273" y="88.8688" clip-path="url(#clipPath2)" fill="none" width="137.9298" rx="4" ry="4" height="25.5137"/>
    </g>
    <g stroke-linecap="butt" font-size="16px" transform="matrix(1,0,0,1,-1,14)" fill="blue" text-rendering="geometricPrecision" font-family="'Calibri'" shape-rendering="geometricPrecision" stroke="blue" font-weight="bold" stroke-miterlimit="1.45">
      <text x="196.5903" xml:space="preserve" y="141.6805" clip-path="url(#clipPath2)" stroke="none">bevaring</text>
    </g>
    <g stroke-linecap="butt" transform="matrix(1,0,0,1,-1,14)" fill="gray" text-rendering="geometricPrecision" shape-rendering="geometricPrecision" stroke="gray" stroke-miterlimit="1.45">
      <rect x="169.7411" y="125.1805" clip-path="url(#clipPath2)" fill="none" width="111.5969" rx="4" ry="4" height="25"/>
    </g>
    <g stroke-linecap="butt" font-size="16px" transform="matrix(1,0,0,1,-1,14)" fill="rgb(148,0,39)" text-rendering="geometricPrecision" font-family="'Calibri'" shape-rendering="geometricPrecision" stroke="rgb(148,0,39)" font-weight="bold" stroke-miterlimit="1.45">
      <text x="535.0179" xml:space="preserve" y="149.3154" clip-path="url(#clipPath2)" stroke="none">attributattestering</text>
    </g>
    <g stroke-linecap="butt" transform="matrix(1,0,0,1,-1,14)" fill="gray" text-rendering="geometricPrecision" shape-rendering="geometricPrecision" stroke="gray" stroke-miterlimit="1.45">
      <rect x="528.1273" y="132.5586" clip-path="url(#clipPath2)" fill="none" width="137.9298" rx="4" ry="4" height="25.5137"/>
    </g>
    <g stroke-linecap="butt" font-size="16px" transform="matrix(1,0,0,1,-1,14)" fill="rgb(148,0,39)" text-rendering="geometricPrecision" font-family="'Calibri'" shape-rendering="geometricPrecision" stroke="rgb(148,0,39)" font-weight="bold" stroke-miterlimit="1.45">
      <text x="545.514" xml:space="preserve" y="193.0052" clip-path="url(#clipPath2)" stroke="none">adgangskontrol</text>
    </g>
    <g stroke-linecap="butt" transform="matrix(1,0,0,1,-1,14)" fill="gray" text-rendering="geometricPrecision" shape-rendering="geometricPrecision" stroke="gray" stroke-miterlimit="1.45">
      <rect x="528.1273" y="176.2484" clip-path="url(#clipPath2)" fill="none" width="137.9298" rx="4" ry="4" height="25.5137"/>
    </g>
  </g>
</svg>
